<svg width="142" height="34" viewBox="0 0 142 34" fill="none" xmlns="http://www.w3.org/2000/svg">
<path d="M28.8018 0.125543L28.7285 0H9.57269L0 16.5927L9.50992 33.0598L9.58315 33.1853H28.739L38.3117 16.5927L28.8018 0.125543ZM28.4461 32.6727H9.86562L0.575407 16.5927L9.86562 0.502174H28.4461L37.7363 16.5927L28.4461 32.6831V32.6727Z" fill="#777558"/>
<path d="M29.9847 6.07852H27.5575C26.731 6.07852 26.0614 6.74808 26.0614 7.56411V10.891H18.6021C18.3824 10.891 18.1313 10.4621 18.1313 9.89713V5.34618C18.1313 4.50922 17.7023 3.85012 17.1688 3.85012H9.61523L10.7137 1.94604H27.6098L29.9847 6.06805V6.07852Z" fill="#777558"/>
<path d="M18.6013 11.3932C18.0573 11.3932 17.6284 10.7341 17.6284 9.90763V5.35668C17.6284 4.79173 17.3877 4.36279 17.168 4.36279H9.32158L2.25977 16.5928L10.7026 31.2186H17.7225V15.8291H18.2247V22.598L25.6108 17.4193C25.8933 17.231 26.0502 16.9276 26.0502 16.5928V11.3932H18.5909H18.6013ZM15.7661 18.5597C15.7661 19.3862 15.0966 20.0557 14.2805 20.0557H8.92403C8.108 20.0557 7.43843 19.3862 7.43843 18.5597V13.5379H7.94061V18.5597C7.94061 19.1141 8.39047 19.5536 8.93449 19.5536H14.291C14.835 19.5536 15.2849 19.1037 15.2849 18.5597V17.367H10.0435V16.8648H15.2849V9.52054H15.7871V18.5492L15.7661 18.5597ZM26.7512 22.1272H32.8505L36.0519 16.5928L30.2769 6.59119H27.5568C27.0023 6.59119 26.5629 7.04105 26.5629 7.58507V16.6033C26.5629 17.095 26.3223 17.5658 25.9038 17.8378L18.2456 23.2152V23.1943L18.2352 31.2291H19.5848V29.5552C19.5848 28.7287 20.2543 28.0591 21.0704 28.0591H26.678C27.222 28.0591 27.6718 27.6197 27.6718 27.0652V25.9563C27.6718 25.4122 27.222 24.9624 26.678 24.9624H21.5621V24.4602H26.678C27.5045 24.4602 28.1636 25.1298 28.1636 25.9458V27.0548C28.1636 27.8813 27.494 28.5404 26.678 28.5404H21.0704C20.5263 28.5404 20.0765 28.9902 20.0765 29.5343V31.2082H27.5986L32.5576 22.6189H26.7407C25.9247 22.6189 25.2551 21.9493 25.2551 21.1333V20.401H25.7573V21.1333C25.7573 21.6773 26.2072 22.1272 26.7512 22.1272Z" fill="#777558"/>
<path d="M54.6301 9.26653C55.0499 9.26653 55.6272 9.26654 55.8896 9.34526C56.0208 9.39774 56.1258 9.47646 56.1258 9.60767C56.1258 9.87007 56.0471 10.1062 55.9683 10.185C55.8896 10.2637 55.7584 10.2899 55.6534 10.2899L53.2655 10.3424V14.2785C53.2655 15.1182 53.1081 16.5614 52.8457 17.4274H52.1634C52.1109 16.8501 52.0585 15.3281 52.0585 14.6984V12.1793C50.1691 12.809 47.7025 13.2814 45.9969 13.4126C45.8394 13.4388 45.6557 13.4388 45.4983 13.4388C44.9735 13.4388 44.6061 13.1239 44.4487 12.6516C44.3962 12.5204 44.3699 12.258 44.3699 11.9956V7.40345C44.1338 7.21976 43.7139 7.03608 43.3203 6.93111L43.399 6.56374C43.399 6.56374 43.4515 6.45878 43.5565 6.45878C44.0813 6.45878 44.9735 6.51126 45.3408 6.58998C45.4983 6.64246 45.577 6.72119 45.577 6.87863V7.56089L45.5508 12.1005C45.5508 12.2842 45.6295 12.3629 45.8132 12.3629C47.4401 12.3105 50.1954 11.9693 52.006 11.4708V5.01554C51.7698 4.70065 51.3237 4.43824 50.7989 4.25456L50.9301 3.86096C50.9301 3.86096 50.9826 3.78223 51.1138 3.78223C51.6649 3.78223 52.6095 3.99216 53.0556 4.17584C53.1868 4.22832 53.2393 4.33328 53.2393 4.49073L53.1868 5.27795V9.60767L54.1052 9.55518L54.5513 9.26653H54.6301Z" fill="#777558"/>
<path d="M64.1022 12.3105C64.1022 12.3105 64.2072 12.3892 64.2072 12.4679C64.2072 12.6778 64.1285 12.8615 64.0497 12.9402C63.0264 12.9402 60.2711 12.9665 59.169 12.9927C59.0902 13.2814 58.9853 13.465 58.8803 13.5963H58.2505C58.1456 13.3338 58.1193 12.9402 58.1193 12.6516L58.0144 7.27224C57.8569 7.08856 57.4633 6.87863 57.1484 6.79991L57.2534 6.43254C57.2534 6.43254 57.3059 6.35382 57.4371 6.35382C57.8832 6.35382 58.7491 6.43255 59.1427 6.53751C59.2477 6.56375 59.3002 6.64247 59.3002 6.77367V7.40345L59.2739 8.89917L62.8164 8.84668V6.58998C62.6065 6.35381 62.2654 6.14389 61.898 6.03893L62.0292 5.64532C62.0292 5.64532 62.0817 5.5666 62.2129 5.5666C62.7115 5.59284 63.5512 5.77652 63.9185 5.93396C64.0235 5.98644 64.1022 6.03893 64.076 6.17013V6.79991L63.9973 10.8935C63.9973 11.3133 63.9185 11.8906 63.8136 12.2317L64.1285 12.3367L64.1022 12.3105ZM59.2477 9.63391V12.258L62.7902 12.2055V9.58143L59.2477 9.63391ZM65.4405 3.86096C65.4405 3.86096 65.493 3.78223 65.6242 3.78223C66.1752 3.78223 67.1199 3.99216 67.566 4.17584C67.6972 4.22832 67.7497 4.33328 67.7497 4.49073L67.6972 5.27795V14.2523C67.6972 15.092 67.5398 16.5615 67.3036 17.4012H66.6213C66.5688 16.8239 66.5164 15.2757 66.5164 14.6459V5.01554C66.2802 4.7269 65.8341 4.43824 65.3355 4.25456L65.4405 3.86096Z" fill="#777558"/>
<path d="M81.4207 9.84359C81.9455 9.84359 82.7328 9.94856 83.0476 10.0798C83.1789 10.1322 83.2576 10.211 83.2576 10.3422C83.2576 10.6046 83.0739 10.8407 82.9164 10.9195C82.5491 10.867 81.6831 10.8407 81.2633 10.8407C80.2661 10.8407 73.9684 10.9195 73.2074 10.9457C72.84 10.972 72.079 11.1031 71.7379 11.2343C71.1869 11.0769 70.662 10.762 70.2947 10.4471C70.2422 10.3946 70.2422 10.3684 70.2422 10.3159L70.3472 10.106C70.8457 10.1847 71.5017 10.2372 71.9741 10.2634C72.3939 10.2634 74.3095 10.2634 76.2775 10.211V8.97766C76.1201 8.79397 75.8315 8.61029 75.5166 8.50532L75.6215 8.16419C75.6215 8.16419 75.674 8.08547 75.8052 8.08547C76.2513 8.08547 77.0123 8.19043 77.3797 8.29539C77.4846 8.34787 77.5371 8.42659 77.5109 8.5578L77.4321 9.16134V10.211C79.0066 10.1847 80.4498 10.1585 80.8697 10.1322L81.4207 9.89608V9.84359ZM71.4755 8.97766C71.4755 8.97766 71.423 8.87269 71.5017 8.84645C73.7584 7.82306 75.5428 6.35358 76.3825 4.91034C76.2513 4.70041 75.9627 4.46425 75.6478 4.30681L75.8577 3.99192C75.8577 3.99192 75.9364 3.9132 76.0676 3.93944C76.5924 4.01816 77.4059 4.25433 77.7208 4.41177C77.852 4.49049 77.9307 4.59545 77.9307 4.72666C77.9307 4.8841 77.8782 4.98907 77.8258 5.06779C77.6421 5.35644 77.4321 5.67132 77.196 5.93373L79.6888 7.06208L80.686 7.16704C81.0534 7.37697 81.5519 7.66561 81.7881 7.90178C81.9455 8.03298 82.0243 8.16419 82.0243 8.29539C82.0243 8.50532 81.8143 8.71524 81.6307 8.71524C81.5257 8.74148 81.342 8.689 81.2108 8.61028L76.6449 6.53727C75.4378 7.7181 73.7322 8.63652 71.7904 9.24006C71.7117 9.2663 71.6592 9.24006 71.6329 9.24006L71.4755 9.00389V8.97766ZM79.7676 16.0889C80.1612 16.0889 80.7647 16.1414 81.0271 16.1938C81.1321 16.2201 81.237 16.2988 81.237 16.43C81.237 16.6924 81.1583 16.8761 81.0796 16.9548C81.0271 17.0073 80.9484 17.0336 80.8697 17.0336H74.4669C73.6535 17.0598 73.3911 16.7711 73.3911 16.1414V14.9081C73.2074 14.7244 72.9187 14.5932 72.5776 14.5144L72.6301 14.2258C72.6301 14.2258 72.6826 14.1471 72.7875 14.1471C73.2074 14.1471 74.2045 14.1733 74.6244 14.2258C75.6215 14.2258 78.2456 14.1996 78.7967 14.1733L79.0591 14.0946C79.0853 13.7797 79.1115 13.045 79.0853 12.7563C78.1669 12.7563 75.4903 12.7826 74.913 12.8088C74.6244 12.8088 74.0996 12.9138 73.7322 13.0187C73.2861 12.8613 72.8925 12.5989 72.5776 12.3365C72.5251 12.284 72.5251 12.2315 72.5251 12.179L72.6039 12.0216C72.9975 12.1003 73.5748 12.1265 73.9421 12.1265C74.7031 12.1265 78.3243 12.1003 79.1903 12.0478L79.6364 11.8379C79.6364 11.8379 79.7938 11.7854 79.8725 11.8379C80.03 11.8904 80.3711 12.0478 80.5023 12.1265C80.5548 12.179 80.581 12.2577 80.5285 12.3365L80.3711 12.7038C80.3449 13.0974 80.1874 13.7535 80.0824 14.0946L80.3449 14.2258C80.3449 14.2258 80.4236 14.3045 80.4236 14.357C80.4236 14.5407 80.3449 14.6981 80.2924 14.7768L74.6244 14.8293V16.0889C74.6244 16.2726 74.7031 16.3513 74.8606 16.3513C75.9364 16.3513 78.4818 16.3513 79.3477 16.2988L79.7938 16.0889H79.7676Z" fill="#777558"/>
<path d="M95.1971 6.51126C95.6169 6.5375 96.2205 6.61623 96.5091 6.72119C96.5878 6.74743 96.6666 6.82615 96.6666 6.93111C96.6666 7.19352 96.4829 7.42969 96.3517 7.50841C96.0893 7.45593 95.3808 7.45593 95.0659 7.45593C94.5148 7.45593 91.051 7.53465 90.5262 7.56089C90.2376 7.56089 89.7128 7.66585 89.4766 7.77081C89.083 7.61337 88.6107 7.32472 88.322 7.06231C88.2695 7.00983 88.2695 6.95735 88.2695 6.93111L88.3745 6.74743C88.7943 6.82615 89.3716 6.85239 89.6865 6.85239C90.2901 6.85239 94.1212 6.79991 94.751 6.74743L95.1971 6.51126ZM92.5992 12.7041C90.9723 12.7041 89.634 11.7594 89.634 10.3686C89.634 8.97789 90.9723 8.05946 92.5992 8.05946C94.2262 8.05946 95.512 8.97789 95.512 10.3686C95.512 11.7594 94.1999 12.7041 92.5992 12.7041ZM90.4738 4.64817C91.7333 4.88434 93.0191 4.91058 93.99 4.91058C94.1212 4.91058 94.1737 4.96307 94.2262 5.04179C94.3049 5.19923 94.2787 5.54036 94.1737 5.67156C94.1212 5.75028 94.0425 5.75028 93.9375 5.75028C93.2553 5.75028 92.1794 5.77653 91.5496 5.82901C91.4184 5.82901 91.3397 5.82901 91.261 5.77653C90.9723 5.61908 90.605 5.25171 90.3688 4.93682C90.3425 4.8581 90.3425 4.83186 90.3688 4.77938L90.4738 4.64817ZM92.5992 11.8906C93.5964 11.8906 94.3836 11.3396 94.3836 10.3686C94.3836 9.39774 93.5702 8.82045 92.5992 8.82045C91.6283 8.82045 90.8149 9.39774 90.8149 10.3686C90.8149 11.3396 91.6021 11.8906 92.5992 11.8906ZM98.1885 15.9317C98.6346 15.9317 99.2906 15.9842 99.5793 16.0366C99.6842 16.0366 99.7892 16.1416 99.7892 16.2466C99.7892 16.5614 99.6842 16.7451 99.6055 16.8501C99.553 16.9026 99.4743 16.9288 99.3956 16.9288H93.4389C92.468 16.9551 92.1269 16.6139 92.1269 15.8005V14.436C91.8907 14.2523 91.5234 14.0948 91.1298 13.9899L91.2085 13.6487C91.2085 13.6487 91.2872 13.5438 91.3659 13.5438C91.8645 13.5438 92.7567 13.6225 93.1241 13.7012C93.2815 13.7275 93.3602 13.8062 93.3602 13.9899V14.6459L93.334 15.853C93.334 16.1154 93.4389 16.2203 93.6751 16.2203C94.5411 16.2203 96.8765 16.2203 97.6899 16.1678L98.1623 15.9054L98.1885 15.9317ZM100.025 8.92541C100.445 8.92541 101.023 8.92541 101.285 9.00413C101.416 9.03037 101.521 9.13533 101.521 9.26653C101.521 9.52894 101.442 9.76511 101.364 9.84383C101.285 9.89631 101.154 9.92255 101.049 9.92255L98.6608 9.97503V11.1296C98.6608 12.153 98.5034 13.3601 98.241 14.0948H97.5587C97.48 13.5438 97.4538 12.1793 97.4538 11.497V4.98931C97.2176 4.70066 96.7715 4.43824 96.2729 4.25456L96.4041 3.86096C96.4041 3.86096 96.4566 3.78223 96.5616 3.78223C97.1389 3.78223 98.0573 3.99216 98.4772 4.17584C98.6084 4.22832 98.6608 4.33328 98.6346 4.49073V5.25171L98.6084 9.2403L99.5268 9.18781L99.9729 8.92541H100.025Z" fill="#777558"/>
<path d="M109.107 10.29C109.107 10.29 109.212 10.3688 109.212 10.4212C109.212 10.6312 109.133 10.8148 109.081 10.8673C108.057 10.8673 105.354 10.9198 104.305 10.9198C104.252 11.2085 104.147 11.3921 104.016 11.4971H103.386C103.281 11.2609 103.255 10.8673 103.255 10.6049L103.176 6.32769C103.019 6.14401 102.652 5.93408 102.311 5.85536L102.416 5.48799C102.416 5.48799 102.494 5.40927 102.599 5.40927C103.045 5.40927 103.885 5.48799 104.252 5.59295C104.357 5.6192 104.41 5.69792 104.41 5.82912V6.45889L104.384 7.37732L107.847 7.32484V5.69792C107.69 5.48799 107.349 5.27806 107.008 5.14686L107.139 4.80574C107.139 4.80574 107.191 4.72701 107.296 4.72701C107.769 4.72701 108.53 4.88446 108.897 5.0419C109.002 5.09438 109.054 5.1731 109.028 5.30431V5.90784L108.949 8.87304C108.949 9.29289 108.871 9.84395 108.792 10.1851L109.081 10.2638L109.107 10.29ZM104.357 8.11206V10.2113L107.821 10.1588V8.05958L104.357 8.11206ZM112.256 14.6722C112.256 16.2467 110.944 17.2963 109.212 17.2963C107.48 17.2963 106.142 16.2467 106.142 14.6722C106.142 13.1765 107.454 12.2056 109.212 12.2056C110.97 12.2056 112.256 13.2028 112.256 14.6722ZM111.022 14.6722C111.022 13.6488 110.235 12.9928 109.212 12.9928C108.188 12.9928 107.401 13.6226 107.401 14.6722C107.401 15.7219 108.188 16.3516 109.212 16.3516C110.235 16.3516 111.022 15.7219 111.022 14.6722ZM113.699 8.08582C114.119 8.08582 114.696 8.08582 114.959 8.16454C115.09 8.21702 115.195 8.29574 115.195 8.42695C115.195 8.71559 115.116 8.92552 115.037 9.00424C114.959 9.08297 114.827 9.10921 114.722 9.10921L112.334 9.16169V9.60778C112.334 10.5 112.177 11.6546 111.941 12.3106H111.232C111.154 11.7858 111.127 10.5524 111.127 9.94891V4.96317C110.891 4.67453 110.445 4.41212 109.947 4.22844L110.078 3.83482C110.078 3.83482 110.13 3.7561 110.235 3.7561C110.813 3.7561 111.731 3.96603 112.151 4.14972C112.282 4.2022 112.334 4.30716 112.308 4.4646V5.22559L112.282 8.40071H113.2L113.647 8.08582H113.699Z" fill="#777558"/>
<path d="M133.511 11.2872C132.986 11.3659 132.487 11.3921 132.094 11.4184C131.831 11.4184 131.202 11.5758 130.939 11.6808C130.441 11.4709 129.89 11.156 129.496 10.8148C129.417 10.7624 129.417 10.7099 129.443 10.6574L129.522 10.4737C130.021 10.5524 130.65 10.5787 131.123 10.5787C132.907 10.5787 136.45 10.29 138.182 9.97515C138.26 9.97515 138.313 9.97515 138.313 10.0539L138.365 10.3425C138.365 10.3425 138.365 10.4475 138.287 10.4737C137.447 10.7099 136.03 10.9461 134.692 11.156V11.6283C134.692 12.1794 134.56 12.8879 134.403 13.3077H133.642C133.563 12.9141 133.511 12.2843 133.511 11.8907V11.3134V11.2872ZM131.07 7.24611C131.07 5.80287 132.382 4.85821 134.036 4.85821C135.689 4.85821 137.001 5.80287 137.001 7.24611C137.001 8.68935 135.689 9.58154 134.036 9.58154C132.382 9.58154 131.07 8.63687 131.07 7.24611ZM132.251 7.24611C132.251 8.21702 133.038 8.79431 134.036 8.79431C135.033 8.79431 135.82 8.24326 135.82 7.24611C135.82 6.24896 135.033 5.67167 134.036 5.67167C133.038 5.67167 132.251 6.24896 132.251 7.24611ZM139.809 16.063C140.255 16.063 140.884 16.1155 141.173 16.168C141.304 16.1942 141.383 16.2729 141.383 16.4041C141.383 16.6928 141.278 16.9027 141.226 16.9814C141.173 17.0339 141.094 17.0601 141.016 17.0601L134.849 17.1126C133.878 17.1126 133.537 16.7715 133.537 15.958V14.646C133.301 14.4623 132.907 14.3049 132.54 14.1999L132.619 13.8588C132.619 13.8588 132.697 13.7538 132.776 13.7538C133.275 13.7538 134.167 13.8325 134.534 13.9113C134.665 13.9375 134.744 14.0162 134.744 14.1999V14.8559V16.0105C134.744 16.2729 134.849 16.3516 135.085 16.3516C136.03 16.3516 138.496 16.3516 139.336 16.2992L139.809 16.0368V16.063ZM139.31 4.96317C139.074 4.67453 138.628 4.41212 138.129 4.22844L138.26 3.83482C138.26 3.83482 138.313 3.7561 138.444 3.7561C138.995 3.7561 139.94 3.96603 140.36 4.14972C140.491 4.2022 140.543 4.30716 140.543 4.4646L140.491 5.22559V11.4709C140.491 12.363 140.333 13.7013 140.097 14.4623H139.415C139.362 14.0425 139.31 13.1765 139.31 12.4943C138.811 12.5205 138.129 12.573 137.867 12.6255C137.604 12.6517 137.237 12.7567 137.001 12.8354C136.607 12.6779 136.266 12.4943 135.977 12.2581C135.925 12.2056 135.925 12.1794 135.925 12.1269L136.03 11.9432C136.371 11.9957 136.791 11.9957 137.158 11.9957C137.604 11.9957 138.628 11.917 139.31 11.8645V5.01566V4.96317Z" fill="#777558"/>
<path d="M127.026 12.2724H126.323C126.304 12.147 126.29 11.983 126.28 11.7805C126.271 11.578 126.256 11.3706 126.237 11.1584C126.228 10.9366 126.218 10.7244 126.209 10.5219C126.209 10.3097 126.209 10.1361 126.209 10.0011V4.73527C126.094 4.59061 125.931 4.45076 125.721 4.31574C125.511 4.17108 125.281 4.06017 125.033 3.98301L125.162 3.57795C125.172 3.52973 125.229 3.50562 125.334 3.50562C125.525 3.50562 125.745 3.52973 125.993 3.57795C126.242 3.61653 126.481 3.66475 126.71 3.72261C126.949 3.78048 127.14 3.83835 127.284 3.89621C127.408 3.94443 127.465 4.05052 127.456 4.21448L127.413 4.99567V9.63944C127.413 9.89019 127.398 10.1795 127.37 10.5074C127.341 10.8353 127.298 11.1584 127.241 11.4767C127.183 11.7853 127.112 12.0505 127.026 12.2724ZM124.259 6.42786L124.976 7.10779C124.851 7.11743 124.703 7.14155 124.531 7.18012C124.369 7.2187 124.225 7.2621 124.101 7.31032C123.91 7.21388 123.733 7.11261 123.571 7.00652C123.408 6.89079 123.26 6.77506 123.126 6.65933C123.069 6.6111 123.055 6.56288 123.083 6.51466L123.169 6.34106C123.341 6.36999 123.523 6.39411 123.714 6.41339C123.905 6.42304 124.087 6.42786 124.259 6.42786ZM126.567 6.34106V7.06439C126.414 7.05475 126.232 7.05475 126.022 7.06439C125.812 7.06439 125.611 7.06921 125.42 7.07886C125.229 7.0885 125.081 7.09815 124.976 7.10779L124.259 6.42786C124.431 6.42786 124.66 6.42786 124.947 6.42786C125.234 6.41822 125.525 6.40857 125.821 6.39893C126.118 6.37964 126.366 6.36035 126.567 6.34106ZM124.158 9.01738L124.861 9.69731C124.737 9.70695 124.589 9.73106 124.417 9.76964C124.254 9.80822 124.111 9.85162 123.986 9.89984C123.805 9.80339 123.628 9.70213 123.456 9.59604C123.294 9.48031 123.145 9.36457 123.012 9.24884C122.964 9.20062 122.949 9.1524 122.969 9.10418L123.069 8.93058C123.241 8.95951 123.423 8.98362 123.614 9.00291C123.805 9.01255 123.986 9.01738 124.158 9.01738ZM126.51 8.93058V9.65391C126.347 9.64426 126.156 9.64426 125.936 9.65391C125.726 9.65391 125.52 9.65873 125.32 9.66837C125.129 9.67802 124.976 9.68766 124.861 9.69731L124.158 9.01738C124.331 9.01738 124.56 9.01738 124.847 9.01738C125.133 9.00773 125.43 8.99809 125.735 8.98844C126.041 8.96915 126.299 8.94987 126.51 8.93058ZM127.226 14.587C127.226 15.1271 127.093 15.5997 126.825 16.0047C126.557 16.4098 126.185 16.7232 125.707 16.9451C125.238 17.1669 124.703 17.2778 124.101 17.2778C123.509 17.2778 122.973 17.1669 122.496 16.9451C122.027 16.7232 121.654 16.4098 121.377 16.0047C121.11 15.5997 120.976 15.1271 120.976 14.587C120.976 14.0759 121.11 13.6322 121.377 13.2561C121.654 12.8799 122.027 12.5858 122.496 12.3736C122.973 12.1614 123.509 12.0554 124.101 12.0554C124.703 12.0554 125.238 12.1614 125.707 12.3736C126.185 12.5858 126.557 12.8799 126.825 13.2561C127.093 13.6322 127.226 14.0759 127.226 14.587ZM125.993 14.587C125.993 14.0469 125.817 13.6274 125.463 13.3284C125.109 13.0198 124.655 12.8655 124.101 12.8655C123.556 12.8655 123.107 13.0198 122.754 13.3284C122.4 13.6274 122.223 14.0469 122.223 14.587C122.223 15.1367 122.4 15.5611 122.754 15.8601C123.107 16.1687 123.556 16.323 124.101 16.323C124.655 16.323 125.109 16.1687 125.463 15.8601C125.817 15.5611 125.993 15.1367 125.993 14.587ZM123.485 5.7624L122.28 5.55987C122.194 5.45378 122.075 5.35251 121.922 5.25607C121.779 5.14998 121.616 5.06318 121.435 4.99567L121.564 4.63401C121.583 4.60507 121.602 4.58579 121.621 4.57614C121.65 4.55685 121.693 4.55203 121.75 4.56167C121.903 4.56167 122.08 4.58096 122.28 4.61954C122.491 4.65812 122.696 4.70152 122.897 4.74974C123.098 4.78832 123.255 4.83172 123.37 4.87994C123.485 4.91852 123.537 5.00532 123.528 5.14034L123.485 5.7624ZM118.783 6.34106L117.55 6.1964C117.464 6.09995 117.339 6.00833 117.177 5.92153C117.024 5.82509 116.861 5.75758 116.689 5.719L116.79 5.34287C116.799 5.32358 116.814 5.30911 116.833 5.29947C116.861 5.28018 116.904 5.27054 116.962 5.27054C117.124 5.27054 117.311 5.28018 117.521 5.29947C117.741 5.31876 117.951 5.34287 118.152 5.3718C118.352 5.39109 118.515 5.42002 118.639 5.4586C118.744 5.48753 118.797 5.56951 118.797 5.70453L118.783 6.34106ZM118.438 11.5924H117.779C117.731 11.467 117.693 11.3224 117.664 11.1584C117.645 10.9848 117.636 10.8305 117.636 10.6955L117.55 6.18193L118.783 6.2832L118.754 10.493C118.763 10.7919 118.735 11.0282 118.668 11.2018C118.601 11.3754 118.524 11.5056 118.438 11.5924ZM123.284 10.2615H122.28V5.55987L123.485 5.70453L123.442 8.90164C123.442 9.12347 123.427 9.36457 123.399 9.62497C123.37 9.88537 123.332 10.0975 123.284 10.2615ZM122.467 8.06258L118.539 8.10598V7.38265L122.467 7.33925V8.06258ZM123.126 10.2036L123.585 10.3338C123.652 10.3531 123.685 10.4013 123.685 10.4785C123.685 10.5749 123.671 10.6714 123.642 10.7678C123.614 10.8546 123.58 10.9125 123.542 10.9414C123.332 10.9414 123.059 10.9463 122.725 10.9559C122.4 10.9559 122.046 10.9607 121.664 10.9704C121.282 10.9704 120.895 10.9752 120.503 10.9848C120.121 10.9848 119.767 10.9897 119.442 10.9993C119.117 10.9993 118.849 10.9993 118.639 10.9993L118.696 10.2615L122.41 10.2181L123.126 10.2036Z" fill="#777558"/>
<path d="M72.7095 29.4659H72.3946L69.6918 25.3724V29.4659H69.377V24.8213H69.6918L72.3946 28.9148V24.8213H72.7095V29.4659Z" fill="#777558"/>
<path d="M80.529 29.4659H80.1879L79.6631 28.0489H77.5113L76.9603 29.4659H76.6191L78.4297 24.8213H78.7446L80.529 29.4659ZM79.5581 27.7865L78.5872 25.2411L77.6163 27.7865H79.5581Z" fill="#777558"/>
<path d="M84.5156 24.8212H84.8305V26.9204H86.1425C86.1425 26.9204 86.3525 26.9204 86.4312 26.9467C86.5099 26.9467 86.5886 26.9991 86.6936 27.0254C86.9035 27.1303 87.0872 27.2878 87.2447 27.4977C87.3759 27.7076 87.4546 27.9438 87.4546 28.18C87.4546 28.4161 87.4021 28.6523 87.2971 28.836C87.1922 29.0197 87.0347 29.1771 86.851 29.2821C86.6674 29.387 86.4312 29.4395 86.195 29.4395H84.5156V24.7949V24.8212ZM86.5624 26.658C86.7198 26.5006 86.7986 26.2906 86.7986 26.0545C86.7986 25.7658 86.7198 25.5297 86.5362 25.3722C86.3525 25.1885 86.1425 25.1098 85.8539 25.1098H84.5419V24.8212H85.8539C86.0901 24.8212 86.3 24.8736 86.5099 24.9786C86.6936 25.0836 86.851 25.241 86.956 25.4247C87.061 25.6084 87.1135 25.8183 87.1135 26.0807C87.1135 26.2644 87.061 26.4481 86.9298 26.6318C86.8248 26.8155 86.6674 26.9729 86.4574 27.0516L85.9326 26.9467C86.195 26.9467 86.3787 26.8417 86.5624 26.6843V26.658ZM86.9035 28.9147C87.0872 28.731 87.1659 28.4949 87.1659 28.2062C87.1659 27.9176 87.0872 27.6552 86.9035 27.4715C86.7198 27.2878 86.4837 27.1828 86.2213 27.1828H84.8568V29.1771H86.2213C86.5099 29.1771 86.7461 29.0722 86.9035 28.8885V28.9147Z" fill="#777558"/>
<path d="M93.0473 27.6553V29.4659H92.7324V27.6553L91.1055 24.8213H91.4728L92.8898 27.3142L94.3331 24.8213H94.7004L93.0735 27.6553H93.0473Z" fill="#777558"/>
<path d="M98.9242 28.9934C99.1341 29.1509 99.3703 29.2296 99.6065 29.2296C99.9476 29.2296 100.21 29.1509 100.446 28.9672C100.656 28.7835 100.761 28.5473 100.761 28.2587C100.761 28.075 100.709 27.9176 100.63 27.7864C100.525 27.6551 100.42 27.5502 100.262 27.4715C100.105 27.3927 99.9213 27.314 99.6852 27.2353C99.3965 27.1303 99.1866 27.0254 99.0029 26.9204C98.8192 26.8155 98.688 26.6842 98.5568 26.5268C98.4256 26.3694 98.3731 26.1332 98.3731 25.8708C98.3731 25.6346 98.4256 25.4509 98.5568 25.2672C98.688 25.0836 98.8455 24.9524 99.0554 24.8736C99.2653 24.7687 99.5015 24.7424 99.7377 24.7424C99.9213 24.7424 100.105 24.7687 100.289 24.8474C100.472 24.9261 100.604 25.0311 100.735 25.1623C100.866 25.2935 100.945 25.4509 101.023 25.6609L100.735 25.7658C100.656 25.5559 100.525 25.3722 100.341 25.2148C100.158 25.0573 99.9476 25.0048 99.7377 25.0048C99.5277 25.0048 99.3703 25.0311 99.2128 25.1098C99.0554 25.1885 98.9242 25.2935 98.8455 25.4247C98.7667 25.5559 98.7143 25.7133 98.7143 25.8708C98.7143 26.0807 98.7667 26.2644 98.8717 26.3956C98.9767 26.5268 99.1079 26.6318 99.2391 26.7105C99.3965 26.7892 99.5802 26.8679 99.8426 26.9729C100.105 27.0779 100.341 27.1828 100.499 27.2615C100.656 27.3403 100.814 27.4715 100.918 27.6289C101.023 27.7864 101.102 27.9963 101.102 28.2325C101.102 28.4686 101.05 28.6785 100.918 28.8885C100.787 29.0984 100.63 29.2296 100.394 29.3346C100.184 29.4395 99.9213 29.492 99.6327 29.492C99.344 29.492 99.0554 29.4133 98.8192 29.2296C98.5831 29.0459 98.3469 28.8097 98.1895 28.5211L98.4519 28.3637C98.5831 28.6261 98.7668 28.8097 98.9767 28.9672L98.9242 28.9934Z" fill="#777558"/>
<path d="M108.241 25.0573C108.582 25.2672 108.845 25.5296 109.028 25.897C109.212 26.2644 109.317 26.658 109.317 27.1303C109.317 27.6027 109.212 27.9963 109.028 28.3637C108.845 28.731 108.582 28.9934 108.241 29.2034C107.9 29.4133 107.506 29.5182 107.06 29.5182C106.614 29.5182 106.221 29.4133 105.879 29.2034C105.538 28.9934 105.276 28.731 105.066 28.3637C104.856 27.9963 104.777 27.6027 104.777 27.1303C104.777 26.658 104.882 26.2644 105.066 25.897C105.25 25.5296 105.538 25.2672 105.879 25.0573C106.221 24.8474 106.614 24.7424 107.06 24.7424C107.506 24.7424 107.874 24.8474 108.241 25.0573ZM108.084 28.9672C108.372 28.7835 108.608 28.5473 108.766 28.2324C108.923 27.9176 109.002 27.5502 109.002 27.1303C109.002 26.7105 108.923 26.3694 108.766 26.0545C108.608 25.7396 108.372 25.4772 108.084 25.3197C107.795 25.136 107.454 25.0573 107.087 25.0573C106.719 25.0573 106.378 25.136 106.063 25.3197C105.774 25.5034 105.538 25.7396 105.381 26.0545C105.223 26.3694 105.145 26.7367 105.145 27.1303C105.145 27.5239 105.223 27.8913 105.381 28.2324C105.538 28.5473 105.774 28.7835 106.063 28.9672C106.352 29.1509 106.693 29.2296 107.087 29.2296C107.48 29.2296 107.795 29.1509 108.084 28.9672Z" fill="#777558"/>
<path d="M113.565 29.2034H115.874V29.492H113.25V24.8474H113.565V29.2296V29.2034Z" fill="#777558"/>
</svg>
