<svg width="40" height="38" viewBox="0 0 40 38" fill="none" xmlns="http://www.w3.org/2000/svg">
<g clip-path="url(#clip0_149_4)">
<path d="M8.50171 8.65853C9.65212 4.68741 12.9342 1.14318 17.0744 0.288502C23.1081 -0.956838 28.9974 1.89092 31.0414 7.7738C35.1355 9.19856 38.7701 12.3778 39.6495 16.7714C41.1462 24.2505 36.7748 31.3734 28.5617 30.577C27.3369 30.4586 25.9801 29.6791 24.9289 29.0763L24.7969 13.2545L22.5121 14.8181L22.4058 28.0148L20.724 27.5287V15.5525L18.44 17.1178L18.3329 27.2193C18.2372 27.2529 18.1398 27.1309 18.1123 27.1309H16.8282L16.7388 17.5854L14.345 18.8811L14.2608 27.3077C11.1745 27.4889 8.38215 28.979 6.05034 30.9191C5.82274 30.9792 4.99735 30.2774 4.78304 30.0927C-0.277336 25.7247 -1.91483 17.535 2.78864 12.2814C5.40651 9.35677 10.683 7.98681 13.5479 11.2685C13.702 11.4453 13.8508 11.9182 14.1182 11.836C14.1696 11.82 14.6186 11.1024 14.7444 10.9556C15.9736 9.53265 17.5473 8.67797 19.4009 8.33858L19.4797 8.09198C19.4275 7.87986 18.51 7.93731 18.2895 7.95322C17.5783 8.00537 16.5634 8.29173 15.9098 8.5834C15.2563 8.87507 14.7639 9.36561 14.1244 9.64048C13.625 9.52912 13.2008 9.19856 12.6836 9.0377C12.3559 8.93606 10.708 8.67152 10.4228 8.67152L8.50171 8.65941V8.65853Z" fill="#0074D8"/>
<path d="M35.159 30.6667C35.2245 30.7294 34.8331 31.2032 34.7622 31.2862C32.0974 34.4204 27.7801 35.618 23.8887 34.1808C22.1157 33.5259 20.6084 32.209 18.8629 31.5072C15.3018 30.0763 10.4584 30.9875 7.08691 32.6102C7.6723 31.2942 8.97769 30.2009 10.2149 29.5018C13.7095 27.5255 18.4573 27.5493 22.0847 29.1756C23.724 29.911 25.3048 31.1537 27.0114 31.6831C29.67 32.5077 32.7271 31.8908 35.1599 30.6658L35.159 30.6667Z" fill="#78C9A9"/>
<path d="M29.4024 35.9701C29.4236 36.0973 29.2536 36.0859 29.1597 36.123C23.4219 38.3892 14.1796 37.3365 9.18302 33.6553C9.03601 33.5474 8.46391 33.1736 8.50288 33.0118C10.4556 31.6507 13.6775 31.5623 15.9447 32.0334C18.9752 32.6627 21.2831 34.7442 24.1782 35.5715C25.898 36.0629 27.6267 36.123 29.4024 35.9701Z" fill="#78C9A9"/>
</g>
<defs>
<clipPath id="clip0_149_4">
<rect width="39.9401" height="37.3125" fill="white"/>
</clipPath>
</defs>
</svg>
