<svg width="577" height="213" viewBox="0 0 577 213" fill="none" xmlns="http://www.w3.org/2000/svg">
<g clip-path="url(#clip0_8_128)">
<path d="M48.5334 49.4258C55.1006 26.7565 73.8364 6.5241 97.4711 1.64512C131.914 -5.46397 165.534 10.7926 177.202 44.3753C200.574 52.5086 221.322 70.6572 226.342 95.7383C234.886 138.433 209.932 179.095 163.047 174.549C156.055 173.873 148.31 169.422 142.309 165.981L141.555 75.6623L128.512 84.5878L127.905 159.922L118.305 157.147V88.7806L105.267 97.7161L104.655 155.381C104.109 155.573 103.553 154.876 103.396 154.876H96.0656L95.555 100.385L81.8899 107.782L81.4096 155.885C63.791 156.92 47.8509 165.426 34.5397 176.501C33.2404 176.844 28.5286 172.838 27.3052 171.784C-1.58221 146.849 -10.9299 100.098 15.9201 70.1072C30.8643 53.4118 60.9852 45.5913 77.3399 64.3251C78.2196 65.3342 79.0689 68.0336 80.5957 67.5643C80.8889 67.4735 83.452 63.3766 84.1699 62.539C91.187 54.4158 100.171 49.5368 110.752 47.5994L111.202 46.1917C110.904 44.9808 105.666 45.3087 104.407 45.3995C100.348 45.6972 94.554 47.3319 90.823 48.997C87.092 50.662 84.2812 53.4622 80.6311 55.0313C77.7797 54.3956 75.3581 52.5086 72.4057 51.5903C70.5351 51.0101 61.1279 49.5 59.5 49.5L48.5334 49.4309V49.4258Z" fill="#2372B7"/>
<path d="M200.705 175.063C201.079 175.421 198.845 178.126 198.44 178.6C183.228 196.491 158.582 203.328 136.368 195.124C126.247 191.385 117.643 183.867 107.678 179.861C87.3498 171.693 59.701 176.895 40.4546 186.158C43.7963 178.645 51.2482 172.404 58.3108 168.413C78.2599 157.131 105.363 157.268 126.07 166.551C135.428 170.749 144.452 177.843 154.194 180.865C169.371 185.573 186.823 182.051 200.71 175.058L200.705 175.063Z" fill="#78C9A9"/>
<path d="M167.844 205.336C167.965 206.063 166.995 205.997 166.459 206.209C133.704 219.145 80.9442 213.136 52.4208 192.122C51.5816 191.506 48.3157 189.372 48.5382 188.449C59.6857 180.679 78.0777 180.174 91.0199 182.863C108.32 186.456 121.495 198.338 138.021 203.06C147.839 205.866 157.708 206.209 167.844 205.336Z" fill="#78C9A9"/>
</g>
<path d="M563.156 169.188C563.156 171.25 562.797 173.255 562.078 175.203C561.359 177.151 560.385 178.87 559.156 180.359C557.927 181.849 556.562 182.969 555.062 183.719L553.531 181.719C554.906 181.073 556.172 180.094 557.328 178.781C558.484 177.469 559.401 175.969 560.078 174.281C560.755 172.594 561.094 170.896 561.094 169.188V164.188H563.156V169.188ZM563.562 169.188C563.562 170.833 563.901 172.469 564.578 174.094C565.255 175.719 566.167 177.161 567.312 178.422C568.458 179.682 569.708 180.625 571.062 181.25L569.594 183.219C568.094 182.469 566.729 181.38 565.5 179.953C564.271 178.526 563.302 176.875 562.594 175C561.885 173.125 561.531 171.188 561.531 169.188V164.188H563.562V169.188ZM576.562 189.562H574.125V161.75H576.562V189.562Z" fill="#13334E"/>
<path d="M548.469 176.781H529.281V174.75H548.469V176.781ZM551.438 186.031H526.031V183.969H551.438V186.031ZM539.906 184.781H537.438V175.625H539.906V184.781ZM548.188 166.031H531.719V175.656H529.281V164H548.188V166.031Z" fill="#13334E"/>
<path d="M521.312 177H518.844V161.781H521.312V177ZM502.062 174.406C504.771 174.406 507.135 174.344 509.156 174.219C511.177 174.094 513.25 173.854 515.375 173.5L515.688 175.562C513.479 175.896 511.349 176.125 509.297 176.25C507.245 176.375 504.833 176.438 502.062 176.438H499.812V174.406H502.062ZM512.438 170.594H502.219V175.719H499.812V168.656H510.031V165.125H499.75V163.125H512.438V170.594ZM505.688 181.719H518.875V178.406H521.312V189.156H503.219V178.406H505.688V181.719ZM518.875 187.125V183.688H505.688V187.125H518.875Z" fill="#13334E"/>
<path d="M479.656 170.281C479.656 172.156 479.297 174.026 478.578 175.891C477.859 177.755 476.896 179.422 475.688 180.891C474.479 182.359 473.156 183.458 471.719 184.188L470.281 182.219C471.594 181.573 472.818 180.609 473.953 179.328C475.089 178.047 475.995 176.604 476.672 175C477.349 173.396 477.688 171.823 477.688 170.281V165.719H479.656V170.281ZM480.062 170.281C480.062 171.719 480.391 173.193 481.047 174.703C481.703 176.214 482.589 177.573 483.703 178.781C484.818 179.99 486.031 180.906 487.344 181.531L485.938 183.5C484.5 182.792 483.182 181.74 481.984 180.344C480.786 178.948 479.844 177.37 479.156 175.609C478.469 173.849 478.125 172.073 478.125 170.281V165.719H480.062V170.281ZM486.344 166.688H471.25V164.594H486.344V166.688ZM492.219 189.531H489.75V161.781H492.219V189.531ZM496.844 175.094H491.656V173H496.844V175.094Z" fill="#13334E"/>
<path d="M457.5 172.156H438.469V170.156H457.5V172.156ZM460.438 177.969H435.031V175.938H460.438V177.969ZM440.938 171.156H438.469V162.781H440.938V171.156ZM457.656 188.844H438.312V186.812H457.656V188.844ZM440.781 187.344H438.312V180.75H440.781V187.344Z" fill="#13334E"/>
<path d="M428.938 189.531H426.469V161.781H428.938V189.531ZM433.531 175.281H428.344V173.188H433.531V175.281ZM423.781 168.25H407.25V166.219H423.781V168.25ZM415.656 170.562C416.948 170.562 418.109 170.833 419.141 171.375C420.172 171.917 420.979 172.672 421.562 173.641C422.146 174.609 422.438 175.708 422.438 176.938C422.438 178.167 422.146 179.266 421.562 180.234C420.979 181.203 420.172 181.958 419.141 182.5C418.109 183.042 416.948 183.312 415.656 183.312C414.365 183.312 413.198 183.042 412.156 182.5C411.115 181.958 410.302 181.203 409.719 180.234C409.135 179.266 408.844 178.167 408.844 176.938C408.844 175.708 409.135 174.609 409.719 173.641C410.302 172.672 411.115 171.917 412.156 171.375C413.198 170.833 414.365 170.562 415.656 170.562ZM415.656 172.625C414.802 172.625 414.036 172.807 413.359 173.172C412.682 173.536 412.151 174.047 411.766 174.703C411.38 175.359 411.188 176.104 411.188 176.938C411.188 177.771 411.38 178.516 411.766 179.172C412.151 179.828 412.682 180.339 413.359 180.703C414.036 181.068 414.802 181.25 415.656 181.25C416.51 181.25 417.271 181.068 417.938 180.703C418.604 180.339 419.13 179.828 419.516 179.172C419.901 178.516 420.094 177.771 420.094 176.938C420.094 176.104 419.901 175.359 419.516 174.703C419.13 174.047 418.604 173.536 417.938 173.172C417.271 172.807 416.51 172.625 415.656 172.625ZM416.844 167.125H414.375V162.094H416.844V167.125Z" fill="#13334E"/>
<path d="M386.625 165.094C386.625 167.302 386.495 169.411 386.234 171.422C385.974 173.432 385.484 175.427 384.766 177.406C384.047 179.385 383.052 181.229 381.781 182.938L379.812 181.781C381.062 180.219 382.031 178.542 382.719 176.75C383.406 174.958 383.88 173.13 384.141 171.266C384.401 169.401 384.531 167.406 384.531 165.281V165.094H386.625ZM385.75 167.156H380.406V165.094H385.75V167.156ZM392.781 165.094C392.781 167.552 392.682 169.849 392.484 171.984C392.286 174.12 391.833 176.312 391.125 178.562C390.417 180.812 389.365 182.875 387.969 184.75L386.031 183.594C387.385 181.885 388.401 179.995 389.078 177.922C389.755 175.849 390.193 173.818 390.391 171.828C390.589 169.839 390.688 167.667 390.688 165.312V165.094H392.781ZM392 167.156H387.531V165.094H392V167.156ZM403.625 189.531H401.25V161.781H403.625V189.531ZM396.625 174.719H391.5V172.688H396.625V174.719ZM398.406 188.094H396.094V162.469H398.406V188.094Z" fill="#13334E"/>
<path d="M373.812 178.469H371.344V161.781H373.812V178.469ZM377.969 171.219H373.125V169.156H377.969V171.219ZM373.812 189.156H356.25V180.062H373.812V189.156ZM358.656 187.156H371.406V182.062H358.656V187.156ZM368.719 166.75H352.188V164.719H368.719V166.75ZM360.438 168.156C361.771 168.156 362.943 168.359 363.953 168.766C364.964 169.172 365.745 169.745 366.297 170.484C366.849 171.224 367.125 172.094 367.125 173.094C367.125 174.073 366.844 174.938 366.281 175.688C365.719 176.438 364.932 177.01 363.922 177.406C362.911 177.802 361.75 178 360.438 178C359.104 178 357.932 177.802 356.922 177.406C355.911 177.01 355.13 176.438 354.578 175.688C354.026 174.938 353.75 174.073 353.75 173.094C353.75 172.094 354.026 171.224 354.578 170.484C355.13 169.745 355.911 169.172 356.922 168.766C357.932 168.359 359.104 168.156 360.438 168.156ZM360.438 170.031C359.583 170.031 358.823 170.156 358.156 170.406C357.49 170.656 356.974 171.01 356.609 171.469C356.245 171.927 356.062 172.469 356.062 173.094C356.062 173.698 356.245 174.229 356.609 174.688C356.974 175.146 357.49 175.5 358.156 175.75C358.823 176 359.583 176.125 360.438 176.125C361.292 176.125 362.047 176 362.703 175.75C363.359 175.5 363.87 175.146 364.234 174.688C364.599 174.229 364.781 173.698 364.781 173.094C364.781 172.469 364.599 171.927 364.234 171.469C363.87 171.01 363.359 170.656 362.703 170.406C362.047 170.156 361.292 170.031 360.438 170.031ZM361.688 165.75H359.219V161.531H361.688V165.75Z" fill="#13334E"/>
<path d="M339.312 189.562H336.875V161.75H339.312V189.562ZM324.562 163.906C325.938 163.906 327.161 164.307 328.234 165.109C329.307 165.911 330.146 167.042 330.75 168.5C331.354 169.958 331.656 171.646 331.656 173.562C331.656 175.5 331.354 177.198 330.75 178.656C330.146 180.115 329.307 181.245 328.234 182.047C327.161 182.849 325.938 183.25 324.562 183.25C323.208 183.25 321.99 182.849 320.906 182.047C319.823 181.245 318.979 180.115 318.375 178.656C317.771 177.198 317.469 175.5 317.469 173.562C317.469 171.646 317.771 169.958 318.375 168.5C318.979 167.042 319.823 165.911 320.906 165.109C321.99 164.307 323.208 163.906 324.562 163.906ZM324.562 166.125C323.646 166.125 322.828 166.432 322.109 167.047C321.391 167.661 320.833 168.531 320.438 169.656C320.042 170.781 319.844 172.083 319.844 173.562C319.844 175.062 320.042 176.375 320.438 177.5C320.833 178.625 321.391 179.5 322.109 180.125C322.828 180.75 323.646 181.062 324.562 181.062C325.5 181.062 326.328 180.75 327.047 180.125C327.766 179.5 328.323 178.625 328.719 177.5C329.115 176.375 329.312 175.062 329.312 173.562C329.312 172.083 329.109 170.781 328.703 169.656C328.297 168.531 327.74 167.661 327.031 167.047C326.323 166.432 325.5 166.125 324.562 166.125Z" fill="#13334E"/>
<path d="M303.25 177.094H290.25V164.188H303.25V177.094ZM292.625 175.094H300.875V166.188H292.625V175.094ZM311.719 181.719H309.25V161.812H311.719V181.719ZM312.594 188.594H293.781V186.562H312.594V188.594ZM296.219 187.375H293.781V179.844H296.219V187.375Z" fill="#13334E"/>
<path d="M270.594 169.188C270.594 171.25 270.234 173.255 269.516 175.203C268.797 177.151 267.823 178.87 266.594 180.359C265.365 181.849 264 182.969 262.5 183.719L260.969 181.719C262.344 181.073 263.609 180.094 264.766 178.781C265.922 177.469 266.839 175.969 267.516 174.281C268.193 172.594 268.531 170.896 268.531 169.188V164.188H270.594V169.188ZM271 169.188C271 170.833 271.339 172.469 272.016 174.094C272.693 175.719 273.604 177.161 274.75 178.422C275.896 179.682 277.146 180.625 278.5 181.25L277.031 183.219C275.531 182.469 274.167 181.38 272.938 179.953C271.708 178.526 270.74 176.875 270.031 175C269.323 173.125 268.969 171.188 268.969 169.188V164.188H271V169.188ZM284 189.562H281.562V161.75H284V189.562Z" fill="#13334E"/>
<path d="M539.057 132.708H527.633V39.582H539.057V132.708ZM457.967 113.124C463.611 109.996 468.371 106.358 472.247 102.21C474.967 99.286 477.007 96.464 478.367 93.744C479.727 90.956 480.679 87.522 481.223 83.442C481.767 79.294 482.039 73.616 482.039 66.408V43.458H493.463V66.408C493.463 73.412 493.667 78.886 494.075 82.83C494.551 86.774 495.333 90.004 496.421 92.52C497.509 94.968 499.175 97.45 501.419 99.966C503.459 102.414 505.907 104.726 508.763 106.902C511.619 109.01 514.509 110.812 517.433 112.308V124.956C514.237 123.256 510.905 121.25 507.437 118.938C504.037 116.626 501.215 114.45 498.971 112.41C496.523 110.234 494.279 107.922 492.239 105.474C490.267 102.958 488.771 100.578 487.751 98.334C486.867 100.578 485.235 103.23 482.855 106.29C480.475 109.282 478.095 111.832 475.715 113.94C473.403 116.184 470.615 118.394 467.351 120.57C464.155 122.746 461.027 124.514 457.967 125.874V113.124Z" fill="#13334E"/>
<path d="M438.136 39.582V66.612H451.192V76.71H438.136V107.82H426.712V39.582H438.136ZM388.666 72.018C386.218 76.302 382.614 80.28 377.854 83.952C372.414 88.304 366.294 91.976 359.494 94.968V82.728C365.138 80.212 369.83 77.22 373.57 73.752C377.31 70.352 379.792 67.156 381.016 64.164C382.24 61.104 382.852 57.058 382.852 52.026V41.724H394.378V52.026C394.378 56.514 394.888 60.186 395.908 63.042C396.996 65.898 398.968 68.686 401.824 71.406C405.7 75.01 410.936 78.376 417.532 81.504V93.234C410.188 90.106 404.068 86.638 399.172 82.83C394.004 78.614 390.502 75.01 388.666 72.018ZM365.512 99.456H376.936V122.712H440.584V132.504H365.512V99.456Z" fill="#13334E"/>
<path d="M343.946 74.67H332.726V52.23H269.588V42.03H344.252L343.946 74.67ZM263.468 91.092V80.892H352.412V91.092H314.264V110.574H302.84V91.092H263.468ZM270.506 100.986H282.236V122.304H347.108V132.198H270.506V100.986Z" fill="#13334E"/>
<defs>
<clipPath id="clip0_8_128">
<rect width="228" height="213" fill="white"/>
</clipPath>
</defs>
</svg>
