<svg width="454" height="142" viewBox="0 0 454 142" fill="none" xmlns="http://www.w3.org/2000/svg">
<path d="M266.961 10.8691V10.1959C268.348 10.0547 268.489 9.88099 268.489 8.25226V4.29986C268.489 2.62769 267.893 1.49844 266.311 1.49844C265.336 1.49844 264.404 2.07392 263.656 2.74713V8.34998C263.656 10.0004 263.797 10.0547 265.206 10.1959V10.8691H260.048V10.1959C261.63 10.033 261.771 9.93528 261.771 8.34998V3.42034C261.771 1.86762 261.608 1.79161 260.308 1.57444V0.955524C261.478 0.760076 262.649 0.456046 263.656 0V1.88933C264.133 1.55273 264.664 1.19441 265.282 0.792651C265.954 0.358322 266.571 0.0760078 267.265 0.0760078C269.172 0.0760078 270.375 1.48758 270.375 3.81124V8.36084C270.375 9.98957 270.516 10.0656 271.903 10.2067V10.8799H266.951L266.961 10.8691Z" fill="#FBF7F2"/>
<path d="M318.53 34.4966C317.382 34.6594 316.092 34.9743 314.868 35.3327V33.4868C313.578 34.5617 312.527 35.3327 311.205 35.3327C309.601 35.3327 308.214 34.3554 308.214 31.7386V27.0913C308.214 25.7991 308.019 25.658 307.423 25.5385L306.751 25.4191V24.8002C307.781 24.7567 309.352 24.5179 310.165 24.3658C310.089 25.1368 310.089 26.2769 310.089 27.8622V31.1197C310.089 33.2262 311.183 33.8234 312.267 33.8234C313.156 33.8234 314.033 33.4433 314.846 32.6724V27.0913C314.846 25.7991 314.564 25.6254 313.752 25.506L312.982 25.4082V24.7893C314.51 24.7133 316.19 24.4527 316.732 24.355V32.3792C316.732 33.5736 316.927 33.7474 317.826 33.7908L318.498 33.8125V34.4857L318.53 34.4966Z" fill="#FBF7F2"/>
<path d="M373.395 50.523C372.896 50.6207 371.098 50.903 369.689 51.4134V49.8607C369.255 50.1213 368.638 50.4579 368.204 50.7185C367.251 51.2722 366.601 51.4134 366.319 51.4134C364.401 51.4134 361.876 49.5023 361.876 46.1471C361.876 42.7919 364.791 40.3271 368.063 40.3271C368.399 40.3271 369.19 40.3706 369.689 40.5877V37.0697C369.689 35.5386 369.526 35.4844 367.825 35.3432V34.7243C369.017 34.5614 370.697 34.2248 371.574 33.9099V48.3514C371.574 49.6001 371.737 49.7629 372.626 49.8172L373.395 49.8607V50.5339V50.523ZM369.689 42.4771C369.136 41.641 368.107 41.2609 367.175 41.2609C366.026 41.2609 364 42.0319 364 45.4739C364 48.3731 365.788 49.9041 367.327 49.9258C368.183 49.9258 369.115 49.4915 369.689 49.068V42.4771Z" fill="#FBF7F2"/>
<path d="M425.551 64.6826C424.402 64.8455 423.112 65.1604 421.888 65.5187V63.6728C420.598 64.7478 419.547 65.5187 418.225 65.5187C416.621 65.5187 415.234 64.5414 415.234 61.9246V57.2773C415.234 55.9852 415.039 55.844 414.443 55.7246L413.771 55.6051V54.9862C414.801 54.9428 416.372 54.7039 417.185 54.5519C417.109 55.3228 417.109 56.4629 417.109 58.0482V61.3057C417.109 63.4122 418.204 64.0094 419.287 64.0094C420.176 64.0094 421.053 63.6294 421.866 62.8584V57.2773C421.866 55.9852 421.584 55.8114 420.772 55.692L420.002 55.5943V54.9753C421.53 54.8993 423.21 54.6387 423.752 54.541V62.5652C423.752 63.7597 423.947 63.9334 424.846 63.9768L425.518 63.9985V64.6717L425.551 64.6826Z" fill="#FBF7F2"/>
<path d="M453.55 106.226C452.261 106.226 450.852 106.248 450.343 106.27C450.202 106.107 446.442 101.644 446.301 101.503C445.965 101.123 445.824 101.003 445.607 101.003C445.51 101.003 445.326 101.003 445.174 101.047V103.707C445.174 105.314 445.293 105.412 446.843 105.553V106.226H441.555V105.553C443.158 105.412 443.278 105.238 443.278 103.707V92.2626C443.278 90.7099 443.115 90.6556 441.631 90.4384V89.8195C442.877 89.7001 444.307 89.3417 445.163 89.0051V100.428C445.878 100.265 446.333 99.9719 446.691 99.5919C447.244 99.0381 448.121 97.9632 448.533 97.366C449.032 96.671 448.848 96.4756 447.699 96.3887V95.7155L452.619 95.4983V96.1498C450.95 96.4104 450.462 96.6059 449.443 97.6809C448.988 98.1586 447.916 99.3856 447.406 100.005C447.883 100.678 450.321 103.457 451.112 104.294C452.261 105.444 452.597 105.51 453.529 105.564V106.237L453.55 106.226Z" fill="#FBF7F2"/>
<path d="M169.804 53.7438C170.931 54.341 171.571 53.8198 173.023 53.7438C174.269 53.6787 175.461 54.0913 177.065 54.0479C177.238 54.0479 177.422 53.7873 177.693 53.7981C178.267 53.8198 178.712 54.2976 178.993 54.341C179.308 54.3845 179.936 53.5701 180.619 53.9936C180.695 54.037 180.651 54.4279 180.781 54.3845C181.302 54.2216 181.822 54.0696 182.353 53.9067C182.559 53.8416 182.515 53.4615 182.613 53.4724C183.393 53.5267 184.585 53.6352 185.398 53.7221C185.755 53.7655 186.005 54.1239 186.275 54.113C186.579 54.0913 186.828 53.7438 187.012 53.6895C187.153 53.6461 187.099 54.0261 187.164 54.0804C187.652 54.493 188.237 53.6895 188.616 53.6787C188.757 53.6787 188.746 54.1239 188.844 54.1564C189.515 54.341 189.407 53.6787 189.548 53.6678C189.862 53.657 191.249 54.3085 191.899 53.8524C192.344 53.5375 192.571 53.4181 193.449 53.5701C193.861 53.6461 195.573 54.417 195.866 54.1347C195.963 54.037 195.725 53.4615 195.985 53.4398C196.44 53.4072 197.491 54.1239 198.087 54.1347C198.618 54.1456 198.835 53.7113 199.225 53.6787C199.886 53.6135 201.446 54.1456 202.205 54.1347C203.061 54.1347 204.513 53.6352 205.445 53.7004C205.781 53.7221 206.962 54.113 207.265 54.1347C207.796 54.1673 208.208 53.4398 208.609 53.4832C208.988 53.5158 209.346 54.1022 209.801 54.1347C210.429 54.189 212.662 53.7221 213.019 53.7655C213.204 53.7873 213.399 54.1239 213.659 54.0913C213.973 54.0479 214.493 53.4289 215.1 53.4507C215.588 53.4724 215.739 54.113 216.216 54.113C218.914 54.1347 221.732 53.7873 224.441 54.037C225.904 54.1673 227.02 53.9176 228.45 54.0153C228.938 54.0479 229.404 54.6451 229.816 54.6016C230.076 54.5799 229.848 54.0696 229.935 53.9067C229.967 53.8416 230.943 54.3736 231.441 54.3845C232.904 54.417 235.645 53.6678 237.087 54.2759C237.347 54.3845 237.726 55.1337 238.192 54.7971C238.268 54.7428 238.279 54.3953 238.615 54.189C239.514 53.6352 239.677 54.3302 240.197 54.3736C240.554 54.4062 240.858 54.1239 241.096 54.1239C241.291 54.1239 241.139 54.6776 241.335 54.6016C241.497 54.5365 241.627 54.1564 242.017 54.1456C242.451 54.1347 242.884 54.5908 243.318 54.493C243.686 54.4062 243.924 53.8958 244.564 53.885C245.008 53.885 244.867 54.3519 245.041 54.3845C245.398 54.4496 245.972 54.1239 246.027 54.1673C246.113 54.2325 246.124 54.7428 246.406 54.8079C246.883 54.9274 248.302 53.8958 249.212 54.3085C249.733 54.5365 249.7 55.036 249.733 55.0685C249.884 55.1771 250.35 54.4496 250.535 54.3736C250.73 54.2976 250.567 54.8514 250.773 54.8514C251 54.8514 251.293 54.6016 251.661 54.6233C252.333 54.6668 253.352 55.0468 254.002 55.0251C254.652 55.0034 255.183 54.4822 255.638 54.4279C256.213 54.3736 256.776 54.9491 257.242 54.9925C258.813 55.1445 259.594 54.4279 261.544 55.0685C261.772 55.1445 261.696 55.568 261.815 55.5246C262.823 55.188 264.102 54.8514 265.25 54.9057C266.323 54.96 266.009 54.8622 266.897 54.8079C267.32 54.7754 267.201 55.3508 267.677 55.416C267.873 55.4377 268.837 55.0902 269.379 55.1445C269.823 55.188 270.495 55.2748 270.983 55.3291C271.318 55.3726 271.568 55.7092 271.719 55.7526C271.893 55.796 271.784 55.2857 271.925 55.3074C272.63 55.416 274.006 55.5897 274.71 55.5463C275.209 55.5137 275.696 55.0251 275.74 55.0577C275.772 55.0903 275.74 55.5789 276.119 55.72C276.921 56.0023 280.096 54.9491 281.104 55.9372C281.819 55.1771 281.927 55.8395 282.534 55.9698C283.91 56.2521 283.813 55.5029 283.899 55.5246C284.203 55.5897 284.615 55.9806 285.091 55.9806C285.568 55.9806 285.731 55.6549 285.991 55.6223C286.695 55.5246 287.237 56.6756 287.367 56.6756C287.454 56.6756 288.06 55.8069 288.754 55.8395C289.144 55.8612 289.404 56.3281 289.729 56.4041C290.304 56.5344 290.867 55.9481 291.279 55.9698C291.42 55.9698 291.387 56.3498 291.517 56.3932C291.593 56.4258 293.045 56.643 293.143 56.643C293.641 56.643 294.183 56.1761 294.508 56.1978C294.638 56.1978 294.638 56.6973 294.736 56.6756C295.418 56.5344 296.199 55.9155 297.011 56.4475C297.174 56.5453 297.141 56.9253 297.304 56.9144C298.582 56.9036 298.106 56.947 299.135 57.1425C299.59 57.2293 299.33 56.6213 299.807 56.643C300.338 56.6647 300.609 57.099 300.977 57.1316C301.346 57.1642 301.693 56.8493 302.061 56.947C303.73 57.3705 303.123 56.871 304.412 56.8927C305.702 56.9144 306.06 57.5551 306.58 57.6962C307.457 57.9351 309.148 57.4791 309.928 57.5876C310.297 57.6419 310.546 58.022 310.882 58.0654C311.413 58.1197 311.727 57.5116 312.236 57.5768C312.366 57.5985 312.334 58.0003 312.518 58.0545C313.157 58.2174 313.807 57.8374 314.295 57.8917C316.007 58.0763 317.947 58.4129 319.637 58.3151C319.692 58.3151 319.637 58.478 320.537 58.6409C320.764 58.6843 320.938 58.9666 321.187 58.9558C321.545 58.9341 322.162 58.2283 322.26 58.3043C322.303 58.3369 322.26 58.8363 322.628 58.9558C322.877 59.0318 324.037 58.8146 324.416 58.8472C324.839 58.8798 325.391 58.9558 325.803 58.9992C326.031 59.0209 325.998 59.4661 326.172 59.5856C326.703 59.9547 327.429 59.1947 327.895 59.2164C328.025 59.2164 328.003 59.6724 328.166 59.705C328.599 59.781 329.553 59.4335 330.203 59.5638C331.46 59.8136 333.291 60.6605 334.635 61.0297C334.884 61.0949 335.209 60.8451 335.339 60.8994C335.372 60.9211 335.339 61.236 335.545 61.3012C335.783 61.3663 336.206 61.2469 336.293 61.3012C336.379 61.3555 336.52 63.3425 336.499 63.4402C336.304 64.1352 335.242 64.1569 334.786 64.5152C334.331 64.8735 334.375 65.5684 333.822 65.8725C333.714 65.9268 332.554 66.1114 332.478 66.1005C332.316 66.0679 332.424 65.6227 332.262 65.677C332.132 65.7096 331.947 65.9811 331.709 66.0245C331.471 66.0679 331.08 65.8616 331.015 65.9159C330.907 65.9919 330.885 66.6651 330.734 66.8063C330.647 66.8931 328.512 66.9149 328.296 67.0017C327.721 67.2298 327.656 67.8704 327.364 67.979C326.833 68.1744 325.879 67.9573 325.597 68.0333C325.294 68.1201 325.294 68.6087 324.936 68.7608C324.427 68.9671 324.102 68.6305 323.766 68.663C323.538 68.6848 323.549 69.1517 323.398 69.2711C323.213 69.4123 322.834 69.1082 322.607 69.1299C322.433 69.1408 322.455 69.6294 322.357 69.6077C322.141 69.5643 321.664 69.1625 321.415 69.1951C321.165 69.2277 321.089 69.7923 320.84 69.9552C320.613 70.0963 320.277 70.0095 320.114 70.0963C319.887 70.2158 319.93 70.5415 319.8 70.5415C319.323 70.5415 318.662 70.5089 318.109 70.661C316.278 71.1604 315.151 72.6372 313.125 72.648C312.334 72.648 310.806 74.6025 310.557 74.6676C310.221 74.7654 309.69 74.3853 309.224 74.4505C308.563 74.5373 307.988 75.5254 307.891 75.5689C307.717 75.6449 306.991 75.3191 306.493 75.6014C306.222 75.7535 306.352 76.2529 305.973 76.5135C305.518 76.8393 304.857 76.633 304.542 76.8176C304.293 76.9696 303.686 77.9251 303.036 78.1966C302.646 78.3594 301.898 78.1206 301.487 78.4897C301.205 78.7395 301.313 79.2064 301.248 79.2932C301.205 79.3367 300.685 79.1521 300.392 79.2172C299.926 79.3367 299.428 79.8362 298.983 79.8905C298.832 79.9013 298.073 79.6841 297.401 79.7167C297.163 79.7167 296.719 79.543 296.686 79.5647C296.61 79.6081 296.545 80.1728 296.199 80.3574C295.538 80.7157 294.692 79.6841 294.584 80.922C294.205 80.9763 294.324 80.3574 294.01 80.2271C293.414 79.9882 293.457 80.6071 293.327 80.6397C290.531 81.2586 287.519 80.7048 284.972 81.8232C283.748 82.3553 283.91 81.5409 283.39 81.4215C282.794 81.2912 282.577 82.073 282.48 82.073C282.025 82.073 280.508 81.6712 280.193 81.7038C280.009 81.7255 279.771 82.0187 279.489 82.0621C277.972 82.2901 274.949 81.7363 273.778 82.5181C273.562 82.6593 273.648 82.9742 273.627 82.985C273.464 83.0936 273.02 82.1815 272.37 82.2793C272.175 82.3118 272.435 82.8656 271.904 82.757C271.676 82.7136 272.023 82.2575 271.221 82.2684C269.888 82.2901 269.866 83.1262 269.715 83.2131C269.595 83.2782 269.292 82.7896 268.913 82.7462C268.035 82.6593 264.936 82.5941 264.123 82.7462C263.928 82.7787 264.058 83.2131 263.636 83.2348C262.996 83.2674 262.574 82.833 262.108 82.8547C261.403 82.8873 260.688 83.5931 260.406 83.5931C260.168 83.5931 259.886 83.2565 259.485 83.2456C258.824 83.2239 257.394 83.68 256.982 83.604C256.765 83.5605 256.549 83.2022 256.256 83.2022C256.115 83.2022 254.446 83.7886 254.175 83.8103C253.905 83.832 253.384 83.2999 252.799 83.2891C252.127 83.2782 250.946 83.8537 250.242 83.8754C250.134 83.8754 250.166 83.5388 250.101 83.5062C249.96 83.4302 247.392 83.604 247.078 83.6583C246.894 83.6908 246.926 84.1252 246.829 84.1143C246.157 84.0817 245.344 83.3868 244.314 83.8863C244 84.0383 244.239 84.4726 244.163 84.5921C244.119 84.6681 243.653 84.1686 243.339 84.1252C242.992 84.0817 242.548 84.3423 242.31 84.2446C242.126 84.1686 241.985 83.7886 241.692 83.7017C240.749 83.4302 239.839 84.1469 239.677 84.1577C239.048 84.2012 238.203 83.8537 237.585 83.9297C237.228 83.9731 236.967 84.3423 236.707 84.3206C236.458 84.2989 236.176 83.9406 235.981 83.9514C235.786 83.9623 235.255 84.9178 234.746 84.5595C234.649 84.4943 234.649 84.0166 234.345 83.9189C233.771 83.7451 232.265 84.7224 231.604 84.5703C231.192 84.4726 230.997 84.136 230.682 84.1252C230.552 84.1252 230.607 84.9395 230.108 84.5812C230.065 84.5486 230.282 83.8863 229.328 84.1252C229.165 84.1686 229.198 84.4943 229.068 84.5378C228.862 84.6029 228.103 84.3423 227.735 84.4075C227.269 84.4943 226.803 84.9504 226.294 84.9395C225.73 84.9395 225.275 84.3423 224.907 84.3532C224.538 84.364 224.278 84.8744 223.769 84.8309C223.444 84.7984 222.956 84.2012 222.729 84.364C222.696 84.3858 222.599 85.0373 222.382 85.0481C222.317 85.0481 221.883 84.5269 221.266 84.4183C220.171 84.2337 219.64 84.983 219.164 85.0264C218.665 85.0698 217.126 84.8309 216.411 84.7984C213.117 84.6464 209.844 84.7441 206.669 85.0155C206.279 85.0481 205.911 84.2989 205.423 84.7006C205.261 84.8309 205.271 85.2653 205.109 85.2653C204.751 85.2653 203.982 84.7115 203.7 84.6898C203.267 84.6572 201.338 85.2218 200.948 85.1893C200.785 85.1784 200.601 84.8961 200.428 84.8852C198.846 84.7224 197.242 84.7658 195.627 84.8418C195.009 84.8744 193.752 85.3521 193.341 85.4064C192.756 85.4824 191.661 85.1133 191.033 85.0915C190.046 85.0698 188.887 85.2218 187.814 85.1567C187.413 85.135 186.969 84.7549 186.189 84.8744C185.311 85.0047 185.333 85.5367 185.279 85.515C183.512 84.6789 183.989 85.0481 182.494 85.287C182.103 85.3521 181.724 85.1024 181.291 85.211C180.857 85.3196 180.467 85.819 180.001 85.7756C179.806 85.7539 179.806 85.287 179.644 85.1676C179.015 84.7441 177.877 85.819 177.801 85.7539C177.736 85.6996 177.671 84.8201 177.444 84.8309C177.01 84.8527 176.068 85.8408 175.959 85.7539C175.927 85.7322 175.927 85.2979 175.743 85.1676C175.233 84.8201 173.467 85.9385 172.557 85.4499C172.492 85.4064 172.481 85.0698 172.394 85.059C171.56 84.9287 171.69 85.7648 171.451 85.7756C170.996 85.7756 169.902 85.135 169.154 85.059C167.832 84.9178 166.868 85.6019 166.163 85.667C165.687 85.7105 165.166 85.1241 165.004 85.1241C164.787 85.1241 164.516 85.667 164.321 85.7648C164.256 85.7973 164.191 85.0047 163.216 85.1133C162.598 85.1893 162.587 85.7648 162.457 85.7648C162.013 85.7648 161.287 85.3521 160.539 85.4064C159.662 85.4716 159.922 85.515 158.925 85.439C157.928 85.363 156.671 85.7648 156.053 85.6996C155.63 85.6562 155.197 85.1458 154.839 85.1133C154.482 85.0807 153.788 85.7865 153.279 85.7756C153.16 85.7756 153.095 85.1241 152.531 85.1241C152.195 85.1241 151.448 85.6453 150.722 85.5367C150.234 85.4716 149.801 85.0807 149.616 85.1024C149.356 85.1458 148.977 85.6996 148.619 85.7322C148.208 85.7648 148.056 85.2001 147.709 85.1241C147.633 85.1024 146.225 85.211 146.116 85.2436C145.65 85.3956 145.672 85.8951 145.455 85.9276C145 86.0036 144.198 85.3304 143.819 85.2978C143.461 85.2653 143.082 85.515 142.67 85.5259C141.543 85.5693 140.427 85.4499 139.214 85.3956C138 85.3413 137.176 84.9612 135.757 85.4064C135.54 85.4716 135.28 85.819 135.193 85.7539C135.15 85.7213 135.193 85.2653 134.857 85.1458C134.402 84.9938 133.297 85.3521 132.777 85.4064C132.517 85.4281 132.159 85.2218 131.888 85.2761C131.671 85.3304 131.802 85.8299 131.628 85.7539C128.952 84.5161 129.179 85.9168 127.716 85.7539C127.185 85.6887 126.513 85.1567 125.527 85.1784C124.422 85.2001 121.507 85.4933 120.857 85.135C120.575 84.9721 118.473 85.3739 117.888 85.3956C116.176 85.4716 115.287 85.2436 113.369 85.439C112.22 85.5584 112.025 85.1241 111.765 85.0698C110.465 84.7658 110.497 85.515 110.422 85.5367C109.598 85.667 109.75 84.8961 109.49 84.8309C108.829 84.6464 108.959 85.2544 108.774 85.2978C107.908 85.515 107.973 84.8527 107.897 84.8527C106.206 84.9395 104.494 85.059 102.76 85.1241C100.907 85.2001 99.1844 84.6355 97.1255 84.7224C96.0418 84.7658 93.2461 85.287 92.2058 85.0047C91.9999 84.9504 92.3683 84.8092 91.2847 84.7006C90.8296 84.6572 89.8652 84.44 89.4967 84.4183C88.684 84.3749 88.2722 85.1024 88.0772 85.059C87.7521 84.9938 87.5354 84.6789 87.3186 84.6355C85.8016 84.3097 82.6049 84.7115 80.9686 84.7441C80.0908 84.7549 77.8586 83.8863 77.696 83.908C77.5877 83.908 76.6666 85.6236 76.2006 84.136C75.4529 84.8961 74.9436 83.8646 73.7733 83.8754C73.0256 83.8754 73.2748 84.2446 73.1773 84.2989C73.0798 84.3532 72.7547 84.1034 72.473 84.1686C70.6633 84.6029 70.3491 84.364 68.6261 83.7668C67.1849 83.2674 67.4991 84.1795 67.1198 84.3532C66.6756 84.5595 66.8381 83.8971 66.6322 83.8754C65.9495 83.7994 63.9123 84.2229 63.468 84.136C63.2946 84.1034 63.338 83.68 63.1646 83.6583C62.7312 83.5822 61.7776 83.8971 61.1382 83.7668C60.4664 83.6365 60.0979 83.0285 59.1118 83.4411C58.8843 83.5388 58.9276 84.1252 58.7109 83.8971C58.6892 83.8646 58.7759 83.5062 58.4183 83.3542C57.9415 83.1588 57.5948 83.4737 57.2155 83.4302C56.8145 83.3868 56.5653 82.9525 56.056 82.9525C55.5034 82.9525 55.1566 83.528 54.6798 83.452C54.5498 83.4302 54.5931 83.0068 54.4197 82.985C53.9321 82.9199 52.415 82.833 51.8732 82.8005C51.4289 82.7787 51.0171 83.2891 50.562 83.2239C50.3345 83.1914 50.3561 82.6159 50.0961 82.5724C50.0419 82.5724 49.0775 82.7136 48.9691 82.7462C48.6982 82.833 48.8499 83.1371 48.8065 83.2022C48.6548 83.4302 48.4381 82.6919 48.2431 82.5073C47.2461 81.5409 46.8235 82.7136 46 82.2684C45.8157 82.1707 45.8266 81.8558 45.6532 81.8232C45.0355 81.7038 43.0633 82.3227 42.7057 81.8232C42.5865 81.6495 42.6515 81.2477 42.5649 81.1717C42.3698 80.9871 41.5137 81.2912 41.2428 81.1066C41.1128 81.0197 41.0695 80.2813 40.7552 80.0859C40.4626 79.9013 39.8775 80.3248 39.8341 80.2271C39.7691 80.0968 39.9858 79.695 39.6824 79.5213C39.1081 79.1955 38.3062 79.543 38.2412 79.4996C38.187 79.467 38.122 79.0218 37.8836 78.8263C37.3093 78.3594 36.1064 78.3269 35.738 78.088C35.1312 77.6862 34.5243 77.0564 33.6791 76.8067C33.3215 76.6981 32.5847 76.8501 32.4763 76.7307C32.4004 76.6547 32.5413 76.1987 32.4329 76.1009C32.3138 75.9923 31.8478 76.1118 31.5444 75.9381C30.5583 75.3626 30.7642 75.5146 29.6372 75.0803C29.052 74.8522 28.2176 73.8967 27.4591 73.799C27.0148 73.7338 26.5597 74.103 26.1587 73.9727C25.8553 73.875 25.8662 73.3429 25.6278 73.2778C25.216 73.1801 24.49 73.5275 24.4358 73.4841C24.3057 73.3972 23.6772 72.3874 23.4822 72.2788C23.2871 72.1702 22.7778 72.3005 22.4202 72.1811C22.041 72.0508 22.0843 71.7142 21.8026 71.6056C21.3583 71.4319 20.5672 71.6056 19.852 71.2582C19.0718 70.8781 18.9635 70.1289 18.8659 70.0529C18.8009 69.9986 17.8365 70.7587 17.5006 70.5089C17.4139 70.4438 17.3814 69.7271 17.2297 69.6186C17.0346 69.4883 14.824 69.5968 14.3797 68.663C14.0763 69.7163 13.7621 68.739 13.1769 68.4785C12.0608 68.0007 10.7496 67.2298 9.73097 66.904C8.21389 66.4154 8.92908 66.3937 7.86713 65.677C7.0219 65.1015 6.08998 65.0364 5.27726 64.8192C4.38869 64.5803 2.0914 62.1481 1.30035 61.5835C0.801884 61.2251 0.0216725 61.5835 0 60.4542C0 60.2479 0.184217 58.8146 0.216725 58.7386C0.216725 58.7278 0.433451 58.8689 0.541813 58.8255C1.15948 58.5866 1.77715 58.4672 2.34063 58.2609C2.50318 58.1957 2.50318 57.8591 2.67656 57.8157C3.15335 57.7071 3.76018 57.9243 4.20447 57.8157C4.46454 57.7505 4.52956 57.1099 4.70294 57.1207C4.74629 57.1207 5.00636 57.5442 5.38563 57.5659C6.31754 57.6094 8.25724 56.7624 9.10247 56.6647C9.73097 56.5887 10.2511 56.9361 10.6846 56.8927C11.0313 56.8493 11.2806 56.4475 11.6165 56.4367C12.0066 56.4258 13.1769 57.1207 13.9354 57.099C14.2063 57.099 14.4231 56.8059 14.6181 56.795C15.6259 56.7624 17.934 56.9687 18.7576 56.6973C19.1694 56.5561 19.1368 56.2086 19.2019 56.2195C19.9496 56.3281 21.1632 56.7733 22.0735 56.8059C22.4094 56.8059 22.5936 56.4475 22.8537 56.491C23.1138 56.5344 23.3305 56.9904 23.8181 56.9253C23.9373 56.9144 23.9156 56.4801 24.089 56.4475C24.4575 56.3715 24.8692 56.5887 25.2052 56.5561C26.4297 56.4584 27.0365 56.4475 28.2068 56.5561C29.9514 56.7298 31.7069 56.0023 33.2565 55.9915C33.6033 55.9915 35.0878 56.8276 36.2256 56.6864C36.4099 56.6647 36.334 56.1978 36.4857 56.1978C36.9192 56.2195 37.4393 56.5561 38.2845 56.4367C38.4579 56.415 38.4254 56.0784 38.6205 55.9915C39.4332 55.6332 41.9472 56.3498 42.8033 56.3281C44.2878 56.2955 46.3684 56.0458 48.0263 55.796C48.3839 55.7417 48.7524 55.3834 48.9258 55.3726C49.2075 55.3508 49.6193 55.8829 50.0852 55.9698C51.7757 56.2847 53.1302 55.5897 54.4739 55.5354C54.5931 55.5354 54.5498 55.8938 54.6798 55.9372C54.7557 55.9589 56.0994 55.872 56.2186 55.8503C56.7387 55.72 56.5545 55.2531 56.9879 55.264C57.6598 55.2966 57.9415 55.8503 58.4292 55.9481C59.101 56.0783 59.7078 55.5789 60.228 55.6114C60.6614 55.644 60.9648 56.2195 61.3766 56.2195C61.8209 56.2195 62.016 55.6223 62.3194 55.568C62.5903 55.5137 63.0021 55.796 63.4355 55.7526C64.5408 55.6223 64.7792 55.7852 65.5377 55.7309C65.8845 55.7092 66.1012 55.3183 66.4372 55.2966C66.9248 55.264 67.64 55.8938 68.2468 55.7635C68.496 55.7092 68.5069 55.188 68.7453 55.0577C68.9295 54.96 68.767 55.4594 69.0053 55.5246C69.2438 55.5897 71.2268 55.7852 71.5085 55.7743C71.942 55.7743 71.8553 55.1445 72.473 55.0903C73.1448 55.036 73.3399 55.6223 73.8275 55.6875C74.6402 55.7852 76.0814 54.8731 76.9808 55.0468C77.2409 55.1011 77.2734 55.7309 77.4793 55.7526C77.5335 55.7526 78.0103 55.3509 78.4221 55.2966C79.8416 55.112 80.9361 55.9915 82.3556 54.9708C82.4857 54.8731 82.4206 54.6125 82.4423 54.6016C82.6157 54.493 83.06 55.2205 83.2442 55.2857C83.4501 55.3617 83.2876 54.7862 83.4718 54.8188C83.8619 54.9057 84.1219 55.5137 84.1978 55.5246C84.848 55.6006 85.509 54.9165 85.7799 54.9057C86.0833 54.9057 86.8527 55.3726 87.622 55.2423C89.4967 54.9382 90.0494 54.7862 92.0324 54.9708C92.39 55.0034 92.7909 54.7428 93.116 54.8079C93.3436 54.8514 93.1811 55.3726 93.3761 55.2857C93.5387 55.2097 93.6795 54.8731 94.0805 54.8188C94.5573 54.7536 95.0016 55.0794 95.435 55.0577C97.1255 54.9491 97.6023 54.8839 99.4011 55.0034C99.9104 55.036 101.005 54.5148 101.655 54.6125C102.143 54.6885 102.554 55.2314 103.053 55.188C103.714 55.1337 105.058 54.8514 105.816 54.7102C106.098 54.6559 106.304 54.3085 106.726 54.341C107.203 54.3736 107.398 54.9491 107.647 54.9708C108.027 55.0142 108.59 54.4388 109.056 54.3628C109.565 54.2867 110.573 54.7319 110.66 54.7319C110.898 54.7102 110.996 54.417 111.126 54.3519C111.191 54.3193 111.332 55.1011 112.394 54.96C113.152 54.8514 113.402 54.1564 113.9 54.113C114.518 54.0587 114.951 54.8405 115.742 54.8405C115.97 54.8405 116.056 54.3627 117.248 54.493C118.44 54.6233 118.213 54.3519 118.917 54.3628C119.903 54.3628 120.022 55.0685 120.098 55.0468C121.388 54.6668 121.28 54.4605 122.872 54.4713C123.403 54.4713 125.137 54.8514 125.592 54.7428C126.047 54.6342 127.38 53.7004 127.9 53.7113C128.507 53.7113 129.537 54.5908 129.775 54.5908C130.014 54.5908 130.23 54.2867 130.479 54.2542C131.986 54.0261 132.961 55.0034 134.164 53.8958C134.825 53.7547 134.251 54.3302 134.272 54.3519C134.76 54.7211 135.193 54.1673 135.529 54.1456C136.277 54.113 138.379 54.2976 138.769 54.2433C139.604 54.1347 140.026 53.7004 141.251 54.1347C141.478 54.2107 141.337 54.5473 141.749 54.5908C142.8 54.6994 141.988 54.0913 142.573 53.885C142.844 55.2531 143.581 54.2867 144.133 54.1782C145.618 53.8741 147.178 53.9827 148.684 54.0153C149.443 54.0261 149.345 53.9284 149.822 53.8958C150.234 53.8741 150.678 54.4279 150.96 54.3519C151.274 54.265 151.101 53.3964 152.087 53.6678C152.26 53.7113 152.217 54.0804 152.39 54.1239C152.553 54.1673 154.384 54.2542 154.839 54.2867C155.923 54.3628 156.4 53.7113 156.487 53.7004C156.627 53.7004 157.169 54.3953 157.635 54.3736C157.754 54.3736 157.733 53.9176 157.895 53.885C158.047 53.8633 160.539 53.885 160.843 53.9067C161.265 53.9284 161.764 54.3085 162.013 54.2867C162.262 54.265 162.446 53.6678 163.151 53.6461C164.625 53.5918 166.12 54.0913 167.301 54.1239C167.561 54.1239 169.197 53.4724 169.685 53.733L169.804 53.7438ZM193.677 55.0685V55.2966C193.828 55.2206 193.828 55.1445 193.677 55.0685ZM227.312 55.0685V55.2966C227.464 55.2206 227.464 55.1445 227.312 55.0685ZM127.109 55.2966V55.5246C127.261 55.4486 127.261 55.3726 127.109 55.2966ZM133.795 55.2966V55.5246C133.947 55.4486 133.947 55.3726 133.795 55.2966ZM75.5179 55.9915V56.2195C75.6696 56.1435 75.6696 56.0675 75.5179 55.9915ZM102.695 55.9915V56.2195C102.847 56.1435 102.847 56.0675 102.695 55.9915ZM196.906 55.9915V56.2195C197.058 56.1435 197.058 56.0675 196.906 55.9915ZM174.561 56.4475V56.6756C174.713 56.5995 174.713 56.5235 174.561 56.4475ZM87.492 56.6756V56.9036C87.6437 56.8276 87.6437 56.7516 87.492 56.6756ZM302.581 57.8048C302.159 57.5876 301.79 57.9894 301.985 58.098C302.408 58.3151 302.776 57.9134 302.581 57.8048ZM127.348 58.0654V58.2934C127.5 58.2174 127.5 58.1414 127.348 58.0654ZM225.698 58.0654V58.2934C225.849 58.2174 225.849 58.1414 225.698 58.0654ZM258.174 58.0654V58.2934C258.326 58.2174 258.326 58.1414 258.174 58.0654ZM151.068 58.2934V58.5215C151.22 58.4454 151.22 58.3694 151.068 58.2934ZM28.0659 58.7603V58.9884C28.2176 58.9123 28.2176 58.8363 28.0659 58.7603ZM118.126 58.7603V58.9884C118.278 58.9123 118.278 58.8363 118.126 58.7603ZM225.925 58.9884V59.2164C226.077 59.1404 226.077 59.0644 225.925 58.9884ZM70.219 59.2164V59.4444C70.3707 59.3684 70.3707 59.2924 70.219 59.2164ZM319.442 59.2164V59.4444C319.594 59.3684 319.594 59.2924 319.442 59.2164ZM166.738 59.6833V59.9113C166.889 59.8353 166.889 59.7593 166.738 59.6833ZM325.435 59.6833V59.9113C325.586 59.8353 325.586 59.7593 325.435 59.6833ZM144.848 60.1393V60.3674C145 60.2913 145 60.2153 144.848 60.1393ZM193.677 60.1393V60.3674C193.828 60.2913 193.828 60.2153 193.677 60.1393ZM206.117 60.1393V60.3674C206.268 60.2913 206.268 60.2153 206.117 60.1393ZM274.179 60.6062C273.854 60.4434 273.562 60.7474 273.724 60.8343C274.049 60.9971 274.342 60.6931 274.179 60.6062ZM305.626 60.8343V61.0623C305.778 60.9863 305.778 60.9103 305.626 60.8343ZM72.7547 61.3012V61.5292C72.9064 61.4532 72.9064 61.3772 72.7547 61.3012ZM107.073 61.5292V61.7572C107.225 61.6812 107.225 61.6052 107.073 61.5292ZM260.71 62.4521V62.6802C260.861 62.6041 260.861 62.5281 260.71 62.4521ZM97.3964 62.9082V63.1362C97.5481 63.0602 97.5481 62.9842 97.3964 62.9082ZM211.643 62.9082V63.1362C211.795 63.0602 211.795 62.9842 211.643 62.9082ZM250.805 62.9082V63.1362C250.957 63.0602 250.957 62.9842 250.805 62.9082ZM311.846 62.9082V63.1362C311.998 63.0602 311.998 62.9842 311.846 62.9082ZM326.128 63.1471V63.3751C326.28 63.2991 326.28 63.2231 326.128 63.1471ZM322.672 63.8311V64.0592C322.823 63.9831 322.823 63.9071 322.672 63.8311ZM34.9795 64.07V64.298C35.1312 64.222 35.1312 64.146 34.9795 64.07ZM36.8216 64.07V64.298C36.9733 64.222 36.9733 64.146 36.8216 64.07ZM163.508 64.07V64.298C163.66 64.222 163.66 64.146 163.508 64.07ZM209.346 64.07V64.298C209.498 64.222 209.498 64.146 209.346 64.07ZM8.4848 64.5261V64.7541C8.63651 64.6781 8.63651 64.6021 8.4848 64.5261ZM55.4817 64.5261V64.7541C55.6334 64.6781 55.6334 64.6021 55.4817 64.5261ZM322.444 64.7541V64.9821C322.596 64.9061 322.596 64.8301 322.444 64.7541ZM328.664 64.7541V64.9821C328.816 64.9061 328.816 64.8301 328.664 64.7541ZM111.917 65.221V65.449C112.069 65.373 112.069 65.297 111.917 65.221ZM202.432 65.221V65.449C202.584 65.373 202.584 65.297 202.432 65.221ZM256.559 65.221V65.449C256.711 65.373 256.711 65.297 256.559 65.221ZM299.178 65.221V65.449C299.33 65.373 299.33 65.297 299.178 65.221ZM134.716 65.449V65.677C134.868 65.601 134.868 65.525 134.716 65.449ZM208.425 65.449V65.677C208.576 65.601 208.576 65.525 208.425 65.449ZM26.6897 65.677V65.905C26.8414 65.829 26.8414 65.753 26.6897 65.677ZM36.5941 65.677V65.905C36.7458 65.829 36.7458 65.753 36.5941 65.677ZM75.9839 65.9159V66.1439C76.1356 66.0679 76.1356 65.9919 75.9839 65.9159ZM228.569 65.8073C227.93 65.4816 227.356 66.1005 227.659 66.2525C228.298 66.5783 228.873 65.9593 228.569 65.8073ZM259.334 65.9159V66.1439C259.485 66.0679 259.485 65.9919 259.334 65.9159ZM271.535 65.9159V66.1439C271.687 66.0679 271.687 65.9919 271.535 65.9159ZM198.976 66.1439V66.372C199.127 66.2959 199.127 66.2199 198.976 66.1439ZM251.271 66.1439V66.372C251.423 66.2959 251.423 66.2199 251.271 66.1439ZM74.3693 66.372V66.6C74.521 66.524 74.521 66.448 74.3693 66.372ZM39.3573 66.6V66.828C39.509 66.752 39.509 66.676 39.3573 66.6ZM244.13 66.6V66.828C244.282 66.752 244.282 66.676 244.13 66.6ZM80.1234 66.8389V67.0669C80.2751 66.9909 80.2751 66.9149 80.1234 66.8389ZM309.776 66.8389V67.0669C309.928 66.9909 309.928 66.9149 309.776 66.8389ZM64.6925 67.2949V67.5229C64.8442 67.4469 64.8442 67.3709 64.6925 67.2949ZM249.191 67.2949V67.5229C249.342 67.4469 249.342 67.3709 249.191 67.2949ZM133.795 67.5338V67.7618C133.947 67.6858 133.947 67.6098 133.795 67.5338ZM171.571 67.5338V67.7618C171.722 67.6858 171.722 67.6098 171.571 67.5338ZM281.212 67.5338V67.7618C281.364 67.6858 281.364 67.6098 281.212 67.5338ZM164.43 67.7618V67.9898C164.581 67.9138 164.581 67.8378 164.43 67.7618ZM110.064 67.9898V68.2179C110.216 68.1418 110.216 68.0658 110.064 67.9898ZM260.482 67.9898V68.2179C260.634 68.1418 260.634 68.0658 260.482 67.9898ZM73.6758 68.4567V68.6848C73.8275 68.6087 73.8275 68.5327 73.6758 68.4567ZM165.578 68.4567V68.6848C165.73 68.6087 165.73 68.5327 165.578 68.4567ZM46.9535 68.6848V68.9128C47.1053 68.8368 47.1053 68.7608 46.9535 68.6848ZM162.815 68.6848V68.9128C162.967 68.8368 162.967 68.7608 162.815 68.6848ZM47.1811 69.3797V69.6077C47.3328 69.5317 47.3328 69.4557 47.1811 69.3797ZM163.736 69.3797V69.6077C163.888 69.5317 163.888 69.4557 163.736 69.3797ZM131.487 70.0638V70.2918C131.639 70.2158 131.639 70.1398 131.487 70.0638ZM182.851 70.3026V70.5307C183.003 70.4546 183.003 70.3786 182.851 70.3026ZM317.145 70.5307V70.7587C317.297 70.6827 317.297 70.6067 317.145 70.5307ZM181.475 70.7587V70.9867C181.627 70.9107 181.627 70.8347 181.475 70.7587ZM242.05 70.7587V70.9867C242.201 70.9107 242.201 70.8347 242.05 70.7587ZM120.662 71.2256V71.4536C120.814 71.3776 120.814 71.3016 120.662 71.2256ZM204.74 71.2256V71.4536C204.892 71.3776 204.892 71.3016 204.74 71.2256ZM289.047 71.6816V71.9097C289.198 71.8336 289.198 71.7576 289.047 71.6816ZM301.942 71.6816V71.9097C302.093 71.8336 302.093 71.7576 301.942 71.6816ZM310.914 71.6599V71.9531C311.098 71.8554 311.098 71.7576 310.914 71.6599ZM35.4346 72.1485V72.3766C35.5863 72.3005 35.5863 72.2245 35.4346 72.1485ZM122.504 72.1485V72.3766C122.656 72.3005 122.656 72.2245 122.504 72.1485ZM246.894 72.1485V72.3766C247.045 72.3005 247.045 72.2245 246.894 72.1485ZM178.712 72.2571L178.3 73.1692C179.774 73.1692 178.918 72.3548 178.712 72.2571ZM277.983 72.3766V72.6046C278.134 72.5286 278.134 72.4526 277.983 72.3766ZM139.322 72.8326V73.0606C139.474 72.9846 139.474 72.9086 139.322 72.8326ZM59.3936 73.0715V73.2995C59.5453 73.2235 59.5453 73.1475 59.3936 73.0715ZM134.023 73.0715V73.2995C134.175 73.2235 134.175 73.1475 134.023 73.0715ZM246.2 73.5275V73.7556C246.352 73.6795 246.352 73.6035 246.2 73.5275ZM209.801 73.7664V73.9944C209.953 73.9184 209.953 73.8424 209.801 73.7664ZM277.528 73.7664V73.9944C277.679 73.9184 277.679 73.8424 277.528 73.7664ZM198.748 73.9944V74.2225C198.9 74.1464 198.9 74.0704 198.748 73.9944ZM33.5924 74.2225V74.4505C33.7441 74.3745 33.7441 74.2985 33.5924 74.2225ZM58.9385 74.2225V74.4505C59.0902 74.3745 59.0902 74.2985 58.9385 74.2225ZM99.2385 74.2225V74.4505C99.3902 74.3745 99.3902 74.2985 99.2385 74.2225ZM131.26 74.2225V74.4505C131.411 74.3745 131.411 74.2985 131.26 74.2225ZM169.728 74.2225V74.4505C169.88 74.3745 169.88 74.2985 169.728 74.2225ZM194.37 74.2225V74.4505C194.522 74.3745 194.522 74.2985 194.37 74.2225ZM286.045 74.6894V74.9174C286.197 74.8414 286.197 74.7654 286.045 74.6894ZM207.504 75.1454V75.3734C207.655 75.2974 207.655 75.2214 207.504 75.1454ZM34.7519 75.3734V75.6014C34.9036 75.5254 34.9036 75.4494 34.7519 75.3734ZM126.188 75.3734V75.6014C126.34 75.5254 126.34 75.4494 126.188 75.3734ZM270.159 75.3734V75.6014C270.311 75.5254 270.311 75.4494 270.159 75.3734ZM216.715 75.6123V75.8403C216.866 75.7643 216.866 75.6883 216.715 75.6123ZM295.949 76.0683V76.2964C296.101 76.2204 296.101 76.1444 295.949 76.0683ZM251.954 76.5353V76.7633C252.106 76.6873 252.106 76.6113 251.954 76.5353ZM66.3071 76.7633V76.9913C66.4588 76.9153 66.4588 76.8393 66.3071 76.7633ZM148.305 76.7633V76.9913C148.457 76.9153 148.457 76.8393 148.305 76.7633ZM248.27 76.7633V76.9913C248.421 76.9153 248.421 76.8393 248.27 76.7633ZM239.525 77.4582V77.6862C239.677 77.6102 239.677 77.5342 239.525 77.4582ZM244.13 77.4582V77.6862C244.282 77.6102 244.282 77.5342 244.13 77.4582ZM294.573 77.4582V77.6862C294.725 77.6102 294.725 77.5342 294.573 77.4582ZM78.0536 77.9143V78.1423C78.2053 78.0663 78.2053 77.9903 78.0536 77.9143ZM86.1158 78.1423V78.3703C86.2675 78.2943 86.2675 78.2183 86.1158 78.1423ZM76.905 78.3812V78.6092C77.0567 78.5332 77.0567 78.4572 76.905 78.3812ZM123.663 78.3812V78.6092C123.815 78.5332 123.815 78.4572 123.663 78.3812ZM254.717 78.3812V78.6092C254.869 78.5332 254.869 78.4572 254.717 78.3812ZM58.2449 79.3041V79.5321C58.3966 79.4561 58.3966 79.3801 58.2449 79.3041ZM241.822 79.3041V79.5321C241.974 79.4561 241.974 79.3801 241.822 79.3041ZM173.64 79.7602V79.9882C173.792 79.9122 173.792 79.8362 173.64 79.7602ZM262.552 79.7602V79.9882C262.704 79.9122 262.704 79.8362 262.552 79.7602ZM178.018 79.999V80.2271C178.17 80.151 178.17 80.075 178.018 79.999ZM180.326 79.999V80.2271C180.478 80.151 180.478 80.075 180.326 79.999ZM275.685 80.2271V80.4551C275.837 80.3791 275.837 80.3031 275.685 80.2271ZM105.697 80.4551V80.6831C105.849 80.6071 105.849 80.5311 105.697 80.4551ZM276.141 80.6831V80.9111C276.292 80.8351 276.292 80.7591 276.141 80.6831ZM58.4725 80.922V81.15C58.6242 81.074 58.6242 80.998 58.4725 80.922ZM249.884 81.15V81.378C250.036 81.302 250.036 81.226 249.884 81.15ZM152.683 81.606V81.8341C152.835 81.7581 152.835 81.6821 152.683 81.606ZM196.906 82.073V82.301C197.058 82.225 197.058 82.149 196.906 82.073ZM49.4892 82.301V82.529C49.6409 82.453 49.6409 82.377 49.4892 82.301ZM70.685 82.301V82.529C70.8367 82.453 70.8367 82.377 70.685 82.301ZM193.221 82.301V82.529C193.373 82.453 193.373 82.377 193.221 82.301ZM123.663 82.529V82.757C123.815 82.681 123.815 82.605 123.663 82.529ZM243.892 82.529V82.757C244.044 82.681 244.044 82.605 243.892 82.529ZM156.595 85.0698V85.2978C156.747 85.2218 156.747 85.1458 156.595 85.0698Z" fill="#FBF7F2"/>
<path d="M397.42 93.8431C397.42 93.8431 397.702 94.5163 397.42 94.6575C397.116 94.8203 396.51 94.7226 396.488 94.766C396.466 94.7986 396.748 95.2112 396.726 95.2221C396.661 95.2764 396.26 95.1461 396.087 95.2655C395.87 95.4175 395.946 95.9713 395.751 96.1016C395.491 96.2753 393.952 96.6988 393.508 96.9811C392.782 97.448 392.641 98.6207 392.554 98.675C392.489 98.7184 391.341 98.5773 390.961 98.8053C390.636 98.9899 390.615 99.3916 390.43 99.5437C390.138 99.7608 389.13 99.8477 388.935 100.141C388.805 100.325 388.935 100.684 388.881 100.771C388.837 100.858 388.317 100.543 388.101 100.586C387.971 100.608 385.868 101.585 385.76 101.683C385.012 102.334 383.701 103.431 382.888 103.898C382.596 104.072 382.238 103.746 381.902 103.811C381.469 103.898 378.716 105.527 378.099 105.831C377.481 106.135 375.91 106.688 375.411 107.025C375.14 107.199 375.108 107.6 375.01 107.666C374.794 107.818 374.339 107.481 374.046 107.524C373.504 107.6 371.857 108.99 371.369 109.175C371.164 109.251 370.914 109.023 370.73 109.131C370.654 109.175 370.687 109.512 370.578 109.512C370.373 109.512 370.037 109.207 369.679 109.283C369.473 109.327 369.473 109.772 369.3 109.881C368.92 110.12 368.227 109.946 367.728 110.152C367.035 110.434 367.577 110.554 365.995 110.923C365.745 110.977 365.778 111.488 365.464 111.585C365.041 111.727 364.456 111.542 363.936 111.672C363.156 111.868 362.744 112.888 362.495 112.997C362.061 113.182 362.191 112.639 362.115 112.584C361.801 112.346 361.064 113.268 360.598 113.399C360.1 113.551 358.593 113.453 358.507 113.518C358.42 113.583 358.409 113.898 358.225 114.029C357.976 114.191 357.597 114.126 357.542 114.17C357.521 114.191 357.802 114.593 357.77 114.626C357.737 114.669 357.055 114.571 356.784 114.626C356.621 114.658 356.61 114.962 356.437 115.049C355.418 115.57 353.934 115.57 352.872 115.755C352.655 115.798 352.612 116.341 352.2 116.526C351.832 116.689 351.42 116.374 351.041 116.493C350.715 116.591 350.542 117.058 350.25 117.123C349.946 117.188 349.61 116.917 349.383 116.96C349.155 117.004 349.112 117.438 348.841 117.612C347.703 118.296 345.319 118.643 344.073 118.318C343.867 118.48 344.3 118.86 344.192 119.002C344.116 119.11 342.003 119.479 341.667 119.599C341.19 119.762 340.887 120.402 340.822 120.402C340.464 120.424 340.074 120.109 339.728 120.142C339.576 120.153 339.576 120.5 339.522 120.522C338.568 120.945 336.672 121.423 335.588 121.542C335.48 121.553 335.241 122.161 334.851 122.237C334.71 122.27 334.786 121.727 334.635 121.77C334.396 121.836 333.908 121.998 333.648 122.096C333.616 122.107 333.605 122.4 333.421 122.455C332.868 122.607 331.936 122.422 331.676 122.509C331.286 122.65 331.145 123.367 330.939 123.388C330.82 123.399 330.343 122.921 330.246 122.932C330.062 122.954 329.997 123.443 329.856 123.551C329.704 123.671 328.209 123.627 327.883 123.768C327.515 123.92 327.623 124.29 327.591 124.311C327.103 124.626 327.147 123.964 327.092 123.91C326.692 123.562 325.965 124.355 325.586 124.496C324.893 124.746 321.024 125.842 320.699 126.059C320.461 126.222 320.417 126.624 320.071 126.809C319.312 127.232 318.499 127.286 317.6 128.014C317.459 128.133 317.492 128.437 317.459 128.459C317.383 128.524 316.993 128.025 316.646 127.992C315.942 127.916 314.642 129.197 313.872 129.599C313.471 129.806 312.919 129.762 312.691 129.914C312.507 130.034 312.247 130.848 311.943 131.13C310.979 132.042 309.397 131.13 308.833 131.955C308.714 132.129 308.758 132.509 308.671 132.585C308.4 132.813 306.731 132.846 306.341 132.9C305.355 133.03 305.658 133.715 305.485 134.008C305.463 134.04 305.084 133.791 304.9 133.801C304.575 133.823 304.423 134.105 304.174 134.16C303.946 134.214 303.589 133.953 303.404 134.095C303.133 134.301 303.253 134.789 303.177 134.931C303.144 134.985 302.407 134.627 301.898 134.67C301.476 134.703 301.606 135.083 301.4 135.148C299.839 135.582 296.989 135.615 295.256 135.875C294.085 136.049 292.633 136.549 291.441 136.668C291.116 136.701 290.932 136.288 290.455 136.342C290.011 136.386 288.288 137.222 287.865 137.233C287.54 137.233 287.074 136.722 286.608 136.635C286.045 136.538 285.492 136.885 284.994 136.885C283.422 136.885 280.605 137.287 279.326 137.2C278.784 137.167 278.633 136.549 277.56 137.015C276.335 137.547 275.468 137.461 274.038 137.243C272.77 137.048 272.434 137.699 271.752 137.71C271.362 137.71 270.917 137.406 270.614 137.439C270.408 137.471 270.549 137.993 270.365 137.917C270.18 137.841 269.693 137.287 269.433 137.222C269.259 137.178 269.379 137.645 269.216 137.656C267.363 137.775 265.12 137.613 263.289 137.754C262.367 137.83 260.298 138.633 259.778 138.622C259.713 138.622 259.528 137.938 258.791 137.982C258.466 137.993 258.271 138.308 258.087 138.329C257.264 138.427 257.123 138.438 256.288 138.622C256.191 138.644 256.202 138.166 256.05 138.145C255.627 138.08 255.085 138.525 254.663 138.557C254.316 138.59 253.915 138.318 253.568 138.384C253.406 138.416 253.428 138.861 253.297 138.872C252.636 138.916 251.304 138.145 250.09 138.46C249.949 138.492 249.971 138.774 249.797 138.84C248.887 139.23 248.15 138.394 246.893 138.47C246.341 138.503 245.929 139.013 245.463 139.089C244.238 139.285 242.299 139.089 240.879 139.111C240.435 139.111 240.001 138.84 239.752 138.85C239.535 138.85 239.546 139.459 239.286 139.491C238.961 139.535 238.083 139.23 237.412 139.306C236.859 139.372 236.415 139.752 236.046 139.752C235.634 139.752 235.298 139.426 234.887 139.415C234.475 139.404 232.936 139.958 232.579 139.915C232.297 139.882 232.015 139.306 231.896 139.306C231.777 139.306 231.495 139.893 231.181 139.947C230.205 140.11 228.894 139.567 228.19 139.535C227.756 139.524 226.586 140.197 225.893 140.208C225.784 140.208 225.817 139.763 225.665 139.752C224.506 139.708 222.685 140.316 221.666 140.349C221.331 140.36 221.146 140.012 220.843 140.001C220.42 139.98 219.239 140.914 217.874 140.631C217.462 140.544 217.126 139.86 215.999 140.099C215.717 140.153 215.587 140.523 215.273 140.631C214.959 140.74 212.022 140.425 211.437 140.523C209.996 140.783 210.765 140.555 209.801 140.479C209.151 140.425 208.164 141.12 207.211 141.076C206.333 141.033 204.437 140.447 203.548 140.251C201.164 139.708 202.291 139.589 201.143 138.97C200.926 138.85 200.547 139.078 200.33 138.883C200.07 138.655 199.127 137.287 198.824 136.918C198.314 136.31 197.22 135.582 196.981 135.289C196.7 134.931 197.014 134.594 196.96 134.507C196.819 134.301 195.833 133.248 195.714 132.987C195.594 132.726 195.822 131.901 195.486 131.673C194.977 131.315 193.882 131.532 193.47 131.391C193.059 131.25 192.517 130.631 191.932 130.468C190.556 130.066 188.096 129.892 186.784 129.35C186.427 129.197 186.459 128.72 186.254 128.687C185.928 128.622 185.506 128.904 185.17 128.872C184.726 128.828 184.314 128.242 183.88 128.112C183.241 127.927 181.572 127.916 181.041 127.786C180.933 127.764 179.828 126.83 179.34 126.668C178.776 126.483 177.834 126.678 177.357 126.537C176.945 126.407 176.317 125.755 176.165 125.755C175.97 125.755 175.753 126.244 175.591 126.157C175.569 126.157 175.634 125.897 175.515 125.788C174.919 125.202 174.312 125.788 173.694 125.658C171.895 125.256 169.652 123.986 167.68 123.54C166.055 123.182 164.353 122.205 162.555 122.009C162.143 121.966 161.634 122.324 161.189 122.259C160.94 122.227 161.189 121.532 160.68 121.347C160.366 121.228 159.054 121.608 159 121.542C158.935 121.477 159.033 120.728 158.632 120.641C158.404 120.598 157.982 120.945 157.548 120.826C157.256 120.739 157.082 120.294 156.757 120.196C156.432 120.098 156.02 120.315 155.587 120.239C155.002 120.131 153.961 119.316 153.81 119.316C153.571 119.316 153.279 119.718 152.932 119.664C152.585 119.61 151.307 118.578 150.754 118.394C149.789 118.068 148.619 118.274 147.871 118.046C147.048 117.796 147.525 117.731 146.203 117.557C145.953 117.525 145.953 116.884 145.444 116.808C144.978 116.743 144.566 117.177 144.187 117.101C143.916 117.058 143.353 116.493 142.887 116.341C142.193 116.113 140.134 115.484 139.484 115.342C138.975 115.234 138.346 115.538 138.303 115.505C138.086 115.342 137.924 114.691 137.122 114.528C136.168 114.343 134.348 114.148 133.405 113.79C132.939 113.616 132.625 113.095 132.354 113.03C131.975 112.932 131.53 113.323 131.064 113.192C130.728 113.095 129.905 112.193 129.396 112.161C128.605 112.107 128.54 112.899 127.153 112.063C125.874 111.281 126.394 111.694 125.061 111.379C124.877 111.336 124.931 110.956 124.801 110.956C122.645 110.956 121.724 109.794 119.48 109.74C118.754 109.718 117.779 108.936 116.966 108.719C115.904 108.437 114.994 108.675 113.878 108.002C113.694 107.894 113.672 107.514 113.466 107.459C112.729 107.264 111.592 107.742 111.082 107.6C110.519 107.448 110.443 106.786 110.248 106.754C109.901 106.688 109.338 107.025 109.273 106.982C109.197 106.927 109.186 106.547 109.023 106.417C108.807 106.243 108.471 106.526 108.243 106.482C107.961 106.428 107.799 105.993 107.474 105.896C106.769 105.679 105.805 105.852 104.96 105.407C104.429 105.125 104.472 104.799 104.375 104.723C104.234 104.625 103.779 104.94 103.432 104.886C102.663 104.766 101.536 104.354 100.68 104.158C100.073 104.017 99.9101 104.571 99.5742 103.659C100.3 103.453 101.2 103.398 101.958 103.398C102.348 103.398 102.782 103.702 103.15 103.681C103.519 103.659 103.833 103.268 104.158 103.203C104.591 103.127 105.166 103.442 105.653 103.322C105.913 103.257 105.697 102.855 105.913 102.845C106.108 102.845 105.935 103.159 106.195 103.301C106.379 103.398 107.398 103.768 107.539 103.778C108.07 103.811 108.308 103.344 108.688 103.301C109.067 103.257 109.576 103.746 110.28 103.8C111.342 103.876 113 103.225 113.954 103.311C114.106 103.322 114.051 103.746 114.236 103.778C115.287 103.963 116.977 104.006 118.104 104.017C118.245 104.017 118.234 103.539 118.353 103.529C118.841 103.496 119.22 104.18 119.719 104.213C120.141 104.234 120.759 103.887 121.214 103.887C121.539 103.887 121.724 104.202 121.994 104.191C122.374 104.18 122.851 103.746 123.176 103.768C123.316 103.768 123.284 104.148 123.414 104.202C123.663 104.3 124.639 103.93 124.996 104.006C125.169 104.039 125.126 104.473 125.278 104.484C125.581 104.495 126.448 104.473 126.849 104.462C127.478 104.452 128.431 103.941 129.071 104.376C129.255 104.495 129.244 104.973 129.396 104.94C129.699 104.886 130.078 104.517 130.577 104.495C131.097 104.473 133.286 104.495 133.752 104.56C135.215 104.734 135.475 105.407 137.306 105.016C138.932 104.669 138.791 105.147 139.777 105.201C142.312 105.342 145 105.309 147.579 105.483C148.348 105.537 150.656 105.429 150.819 105.461C151.079 105.516 151.209 105.917 151.534 105.993C152.098 106.135 153.626 105.993 154.308 105.993C155.565 105.993 157.917 105.776 159.315 105.917C159.791 105.961 160.42 106.428 160.853 106.46C161.178 106.482 161.406 106.091 161.883 106.102C162.912 106.135 164.104 106.493 165.6 106.547C170.563 106.699 175.569 107.003 180.575 107.025C181.291 107.025 182.959 106.982 183.544 107.047C184.13 107.112 184.953 107.763 185.387 107.742C185.56 107.742 185.495 107.286 185.517 107.264C185.614 107.177 185.907 107.611 186.145 107.687C186.405 107.763 188.139 107.828 187.814 107.264C188.507 108.013 188.746 107.264 189.537 107.242C191.412 107.177 193.893 107.948 195.941 107.872C196.808 107.839 198.52 107.253 199.214 107.286C199.647 107.307 199.983 107.872 200.612 107.959C201.749 108.111 202.79 107.915 203.819 107.742C204.664 107.6 206.767 108.263 206.897 108.165C207.027 108.067 206.951 107.47 207.503 107.481C207.926 107.481 208.121 108.035 208.468 108.143C209.161 108.35 209.757 107.905 210.429 107.991C210.96 108.057 211.426 108.567 211.686 108.599C211.827 108.621 213.658 108.002 214.449 108.035C215.013 108.057 215.631 108.426 216.032 108.393C216.378 108.371 216.584 107.991 216.931 107.97C217.278 107.948 218.47 108.067 219.142 108.067C219.922 108.067 221.428 108.665 221.818 108.589C222.338 108.48 222.674 107.97 223.162 107.97C223.682 107.97 223.975 108.502 224.31 108.545C225.037 108.643 226.521 107.959 227.095 108.046C227.366 108.089 227.529 108.545 227.811 108.61C228.179 108.686 228.732 108.176 229.176 108.209C229.664 108.241 230.942 108.665 231.473 108.675C232.167 108.675 232.459 108.154 233.034 108.024C233.218 107.981 234.54 108.133 234.583 108.198C234.616 108.241 234.215 108.632 234.464 108.665C234.854 108.556 235.45 108.556 235.786 108.415C236.003 108.328 235.949 107.926 236.068 107.97C236.534 108.122 236.631 108.437 237.455 108.458C239.069 108.491 240.435 108.209 242.06 108.306C244.477 108.458 246.612 108.057 248.898 108.1C250.383 108.133 251.878 108.285 253.363 108.447C254.489 108.567 256.949 107.622 257.665 107.991C257.881 108.1 257.784 108.502 258.174 108.458C258.694 108.393 258.932 107.981 259.225 107.894C260.33 107.568 261.847 108.393 262.812 108.35C263.386 108.328 263.928 107.568 264.372 107.579C264.871 107.579 265.38 108.187 265.813 108.23C266.29 108.274 266.594 107.915 266.951 107.872C267.905 107.752 271.546 108.122 271.849 107.926C271.925 107.883 271.882 107.492 272.012 107.535C272.803 107.785 275.317 108.035 276.14 107.937C276.964 107.839 277.972 106.808 279.575 107.079C279.76 107.112 279.749 107.438 279.901 107.535C279.998 107.6 281.147 107.546 281.439 107.535C281.602 107.535 281.569 107.123 281.721 107.079C282.826 106.786 282.35 107.459 282.501 107.774C282.566 107.915 284.387 106.982 284.56 106.949C284.679 106.927 286.099 107.188 286.977 107.058C288.158 106.895 289.523 106.634 290.823 106.743C291.463 106.797 292.254 107.427 292.709 107.079C292.915 106.927 292.85 106.634 292.872 106.612C293.067 106.384 293.099 106.938 293.164 106.992C293.999 107.579 294.129 106.862 294.594 106.721C296.166 106.254 298.864 106.178 300.511 106.276C300.825 106.297 301.768 106.71 301.855 106.612C301.931 106.526 301.779 105.787 301.855 105.689C301.909 105.624 302.863 106.145 303.361 106.167C304.542 106.2 306.113 105.755 307.024 105.711C307.88 105.668 309.473 105.776 310.253 105.689C310.751 105.635 310.903 104.908 311.412 105.689C311.64 104.701 311.737 105.7 312.29 105.657C312.604 105.635 313.092 105.157 313.536 105.049C314.035 104.929 316.44 104.701 316.928 104.777C317.318 104.842 317.589 105.223 317.871 105.233C318.098 105.233 318.987 104.365 320.146 104.538C320.32 104.56 320.287 105.016 320.385 104.994C320.688 104.94 321.273 104.484 321.642 104.43C324.113 104.05 327.006 104.332 329.552 104.006C331.633 103.746 333.692 102.986 335.805 102.931C336.152 102.931 336.574 103.235 336.953 103.159C337.159 103.116 337.083 102.703 337.094 102.682C337.214 102.595 337.528 103.149 337.896 103.149C338.156 103.149 339.598 102.345 339.977 102.323C341.375 102.226 340.898 102.627 342.567 102.019C343.813 101.563 343.791 102.019 344.582 102.226C344.756 102.269 344.647 101.759 344.788 101.78C345.503 101.878 346.251 102.519 346.078 101.303C346.641 101.661 347.226 101.455 347.801 101.542C348.126 101.596 348.407 101.943 348.505 101.943C348.732 101.943 349.09 101.194 349.469 101.107C349.794 101.031 351.539 101.335 352.157 101.227C352.774 101.118 353.674 100.564 354.302 100.456C354.812 100.369 355.917 100.64 356.318 100.608C356.48 100.608 356.437 100.152 356.589 100.13C356.936 100.076 357.434 100.456 357.9 100.38C358.041 100.358 358.561 99.4785 358.626 99.4785C359.081 99.5002 360.111 100.173 360.241 100.141C360.479 100.087 360.533 99.5328 360.62 99.4677C360.685 99.4242 361.66 99.8368 362.289 99.674C362.462 99.6305 362.419 99.2396 362.603 99.2071C362.982 99.131 363.416 99.4134 363.957 99.2613C364.358 99.1419 364.326 98.6424 364.911 98.5664C365.691 98.4578 365.81 98.9465 366.255 99.0008C366.699 99.055 367.078 98.6859 367.501 98.6207C371.499 98.0561 375.314 97.2634 379.356 96.6771C381.772 96.3296 384.102 95.0918 386.724 95.1244C387.093 95.1244 387.526 95.3741 387.841 95.309C388.003 95.2764 388.09 94.7335 388.664 94.5054C389.195 94.2883 389.867 94.6032 390.365 94.5489C390.929 94.4837 391.698 94.0168 392.034 94.006C392.37 93.9951 392.717 94.3209 392.966 94.2991C393.172 94.2774 393.627 93.5933 394.212 93.5499C394.494 93.5282 395.87 94.1037 396.206 94.1363C396.607 94.1906 397.398 93.8431 397.452 93.9082L397.42 93.8431ZM394.765 95.2329V95.461C394.917 95.385 394.917 95.309 394.765 95.2329ZM355.148 103.073V103.301C355.299 103.225 355.299 103.149 355.148 103.073ZM363.903 103.768V103.996C364.055 103.92 364.055 103.844 363.903 103.768ZM116.522 104.462V104.69C116.674 104.614 116.674 104.538 116.522 104.462ZM368.054 104.69V104.918C368.205 104.842 368.205 104.766 368.054 104.69ZM136.558 105.852V106.08C136.71 106.004 136.71 105.928 136.558 105.852ZM144.848 106.08V106.308C145 106.232 145 106.156 144.848 106.08ZM324.286 106.308V106.536C324.438 106.46 324.438 106.384 324.286 106.308ZM312.767 106.536V106.764C312.919 106.688 312.919 106.612 312.767 106.536ZM313.916 106.536V106.764C314.067 106.688 314.067 106.612 313.916 106.536ZM113.065 107.003V107.231C113.217 107.155 113.217 107.079 113.065 107.003ZM327.049 107.459V107.687C327.201 107.611 327.201 107.535 327.049 107.459ZM283.509 107.698V107.926C283.661 107.85 283.661 107.774 283.509 107.698ZM254.489 108.849V109.077C254.641 109.001 254.641 108.925 254.489 108.849ZM317.838 108.849V109.077C317.99 109.001 317.99 108.925 317.838 108.849ZM181.702 109.077V109.305C181.854 109.229 181.854 109.153 181.702 109.077ZM147.839 109.305V109.533C147.991 109.457 147.991 109.381 147.839 109.305ZM196.212 109.305V109.533C196.364 109.457 196.364 109.381 196.212 109.305ZM148.532 109.544V109.772C148.684 109.696 148.684 109.62 148.532 109.544ZM254.955 109.544V109.772C255.107 109.696 255.107 109.62 254.955 109.544ZM169.728 109.772V110C169.88 109.924 169.88 109.848 169.728 109.772ZM129.417 110V110.228C129.569 110.152 129.569 110.076 129.417 110ZM126.654 110.228V110.456C126.806 110.38 126.806 110.304 126.654 110.228ZM273.843 110.228V110.456C273.995 110.38 273.995 110.304 273.843 110.228ZM337.409 110.228V110.456C337.56 110.38 337.56 110.304 337.409 110.228ZM291.571 110.467V110.695C291.723 110.619 291.723 110.543 291.571 110.467ZM224.321 111.162V111.39C224.473 111.314 224.473 111.238 224.321 111.162ZM324.286 111.39V111.618C324.438 111.542 324.438 111.466 324.286 111.39ZM213.518 112.899C213.637 112.78 212.672 112.085 212.607 112.15C211.827 112.932 213.084 113.323 213.518 112.899ZM195.063 112.085V112.313C195.215 112.237 195.215 112.161 195.063 112.085ZM240.901 112.085V112.313C241.053 112.237 241.053 112.161 240.901 112.085ZM301.02 112.085V112.313C301.172 112.237 301.172 112.161 301.02 112.085ZM305.171 112.769V112.997C305.322 112.921 305.322 112.845 305.171 112.769ZM199.669 113.008V113.236C199.821 113.16 199.821 113.084 199.669 113.008ZM147.839 113.464V113.692C147.991 113.616 147.991 113.54 147.839 113.464ZM269.465 113.692V113.92C269.617 113.844 269.617 113.768 269.465 113.692ZM163.508 114.387V114.615C163.66 114.539 163.66 114.463 163.508 114.387ZM162.36 115.082V115.31C162.511 115.234 162.511 115.158 162.36 115.082ZM168.807 115.082V115.31C168.959 115.234 168.959 115.158 168.807 115.082ZM226.163 115.082V115.31C226.315 115.234 226.315 115.158 226.163 115.082ZM179.405 115.538V115.766C179.557 115.69 179.557 115.614 179.405 115.538ZM200.59 115.538V115.766C200.742 115.69 200.742 115.614 200.59 115.538ZM294.345 115.538V115.766C294.497 115.69 294.497 115.614 294.345 115.538ZM189.309 116.005V116.233C189.461 116.157 189.461 116.081 189.309 116.005ZM205.434 116.928V117.156C205.585 117.08 205.585 117.004 205.434 116.928ZM295.949 117.623V117.851C296.101 117.775 296.101 117.699 295.949 117.623ZM329.119 117.851V118.079C329.271 118.003 329.271 117.927 329.119 117.851ZM170.422 118.546V118.774C170.573 118.698 170.573 118.622 170.422 118.546ZM195.757 118.774V119.002C195.909 118.926 195.909 118.85 195.757 118.774ZM204.047 118.774V119.002C204.198 118.926 204.198 118.85 204.047 118.774ZM318.987 118.774V119.002C319.139 118.926 319.139 118.85 318.987 118.774ZM336.26 118.774V119.002C336.412 118.926 336.412 118.85 336.26 118.774ZM219.943 119.002V119.23C220.095 119.154 220.095 119.078 219.943 119.002ZM230.541 119.002V119.23C230.693 119.154 230.693 119.078 230.541 119.002ZM249.657 119.24V119.469C249.808 119.393 249.808 119.316 249.657 119.24ZM233.76 119.469V119.697C233.911 119.621 233.911 119.545 233.76 119.469ZM308.617 119.469V119.697C308.768 119.621 308.768 119.545 308.617 119.469ZM269.465 119.697V119.925C269.617 119.849 269.617 119.773 269.465 119.697ZM248.497 119.925V120.153C248.649 120.077 248.649 120.001 248.497 119.925ZM186.774 120.391V120.619C186.925 120.543 186.925 120.467 186.774 120.391ZM164.884 120.619V120.848C165.036 120.771 165.036 120.695 164.884 120.619ZM251.271 120.619V120.848C251.423 120.771 251.423 120.695 251.271 120.619ZM306.319 120.619V120.848C306.471 120.771 306.471 120.695 306.319 120.619ZM195.757 120.848V121.076C195.909 121 195.909 120.924 195.757 120.848ZM286.283 121.314V121.542C286.435 121.466 286.435 121.39 286.283 121.314ZM324.286 121.314V121.542C324.438 121.466 324.438 121.39 324.286 121.314ZM169.262 121.542V121.77C169.414 121.694 169.414 121.618 169.262 121.542ZM257.48 121.77V121.998C257.632 121.922 257.632 121.846 257.48 121.77ZM273.605 123.16V123.388C273.756 123.312 273.756 123.236 273.605 123.16ZM203.126 123.855V124.083C203.277 124.007 203.277 123.931 203.126 123.855ZM239.286 123.855V124.083C239.438 124.007 239.438 123.931 239.286 123.855ZM210.722 125.234V125.462C210.874 125.386 210.874 125.31 210.722 125.234ZM190.23 125.701V125.929C190.382 125.853 190.382 125.777 190.23 125.701ZM285.817 126.396V126.624C285.969 126.548 285.969 126.472 285.817 126.396ZM295.028 126.624V126.852C295.18 126.776 295.18 126.7 295.028 126.624ZM240.446 127.547V127.775C240.597 127.699 240.597 127.623 240.446 127.547ZM309.538 127.547V127.775C309.689 127.699 309.689 127.623 309.538 127.547ZM208.652 128.003V128.231C208.804 128.155 208.804 128.079 208.652 128.003ZM257.025 128.47V128.698C257.177 128.622 257.177 128.546 257.025 128.47ZM268.317 128.926V129.154C268.468 129.078 268.468 129.002 268.317 128.926ZM204.047 129.165V129.393C204.198 129.317 204.198 129.241 204.047 129.165ZM229.154 129.165V129.393C229.306 129.317 229.306 129.241 229.154 129.165ZM282.588 129.393V129.621C282.74 129.545 282.74 129.469 282.588 129.393ZM248.042 129.849V130.077C248.194 130.001 248.194 129.925 248.042 129.849ZM305.626 129.849V130.077C305.778 130.001 305.778 129.925 305.626 129.849ZM253.568 130.316V130.544C253.72 130.468 253.72 130.392 253.568 130.316ZM274.992 130.316V130.544C275.143 130.468 275.143 130.392 274.992 130.316ZM279.597 130.544V130.772C279.749 130.696 279.749 130.62 279.597 130.544ZM289.046 130.544V130.772C289.198 130.696 289.198 130.62 289.046 130.544ZM237.216 131.239V131.467C238.008 131.684 237.368 131.315 237.216 131.239ZM228.927 131.934V132.162C229.078 132.086 229.078 132.01 228.927 131.934ZM229.848 132.39V132.618C230 132.542 230 132.466 229.848 132.39ZM242.743 132.39L241.258 132.77C241.41 132.694 242.895 132.466 242.743 132.39ZM297.336 133.313V133.541C297.488 133.465 297.488 133.389 297.336 133.313ZM285.124 134.236V134.464C285.275 134.388 285.275 134.312 285.124 134.236ZM299.406 134.475V134.703C299.557 134.627 299.557 134.551 299.406 134.475ZM297.336 134.703V134.931C297.488 134.855 297.488 134.779 297.336 134.703ZM209.801 135.398V135.626C209.952 135.55 209.952 135.474 209.801 135.398ZM251.499 135.398V135.626C251.65 135.55 251.65 135.474 251.499 135.398ZM207.276 136.32V136.549C207.428 136.473 207.428 136.396 207.276 136.32ZM235.147 136.32V136.549C235.298 136.473 235.298 136.396 235.147 136.32ZM211.188 137.243V137.471C211.339 137.395 211.339 137.319 211.188 137.243ZM213.03 138.861V139.089C213.182 139.013 213.182 138.937 213.03 138.861ZM223.162 139.317V139.545C223.314 139.469 223.314 139.393 223.162 139.317Z" fill="#FBF7F2"/>
<path d="M117.097 11.201C119.633 12.2108 124.531 12.5909 127.467 13.1555C129.32 13.5138 131.563 14.3934 133.406 14.5888C134.695 14.73 135.172 14.4368 136.667 15.0123C138.585 15.7615 140.969 15.5443 142.812 16.2284C143.993 16.6736 145.932 17.1731 147.319 17.5097C151.123 18.4109 154.981 18.943 158.838 19.8008C160.074 20.0722 161.352 20.8757 162.653 21.082C163.238 21.1797 163.866 20.7563 164.473 21.2015C166.24 22.4719 166.64 21.9507 168.526 22.3307C169.122 22.4502 169.599 23.0474 170.021 23.1559C177.91 25.1539 186.417 27.3255 193.959 31.2236C194.175 31.3322 196.354 33.0044 196.44 33.1347C196.657 33.4604 196.462 35.0131 196.104 35.2955C196.018 35.3606 195.736 35.2629 195.638 35.3497C194.154 36.5876 194.403 36.0338 192.778 36.5984C188.573 38.0643 185.236 38.4443 180.858 38.7267C178.084 38.9112 175.472 39.2913 172.73 39.3347C169.989 39.3781 167.973 39.4759 165.297 39.7582C163.4 39.9536 161.959 39.693 160.106 39.7473C156.184 39.8559 152.239 39.7799 148.306 39.8451C143.516 39.9211 137.87 39.3781 133.081 40.0405C132.94 40.0622 133.048 39.5519 132.875 39.5953C132.669 39.6496 132.387 40.0731 131.943 40.0514C131.65 40.0405 131.325 39.6605 130.805 39.5845C129.667 39.4324 128.291 40.0079 127.803 39.9645C118.181 39.009 108.016 39.6822 98.0036 39.2587C97.245 39.1718 95.6629 39.6062 95.0669 39.5302C94.8069 39.4976 94.8177 38.9004 94.6118 38.8787C94.2109 38.8352 93.9183 39.2261 93.5282 39.2913C92.7263 39.4324 92.1303 39.0198 91.5343 38.9981C90.234 38.9547 88.1642 39.3999 86.8205 39.3347C85.5852 39.2696 85.1518 39.2696 84.0031 39.2913C82.7461 39.3239 81.5433 39.0415 80.3405 38.6724C80.2321 38.8244 80.4705 39.0958 80.4597 39.1284C80.3405 39.3021 76.797 39.2587 76.201 39.2478C75.8001 39.237 75.2583 39.1393 74.6081 39.1175C63.2408 38.8352 51.9495 39.7039 40.5064 40.0405C35.9551 40.1817 30.8946 41.5281 25.9858 41.6258C24.6204 41.6584 21.4887 41.1806 20.7518 41.5932C20.1775 41.919 19.6249 41.2892 19.0614 41.2132C14.6944 40.6594 10.5549 40.9309 6.35044 38.9547C6.05786 38.8135 6.09037 38.4661 5.90615 38.4335C5.61358 38.3683 5.07176 38.5312 4.93089 38.4009C4.86587 38.3358 4.98507 37.9557 4.85504 37.7928C4.79002 37.706 3.26211 37.0002 2.98036 36.783C1.60416 35.7189 1.43078 32.9935 1.66917 31.3756C1.72336 30.9847 3.2296 28.3896 3.60887 27.8901C4.74667 26.37 6.578 24.611 8.08424 23.4274C10.1973 21.7552 14.5535 18.9755 17.0567 18.2046C18.2812 17.8246 20.4701 16.793 21.9438 16.1415C22.1714 16.0438 22.3773 15.6312 22.529 15.6312C22.6699 15.6312 22.9949 16.1632 23.4501 16.0438C23.8185 15.9461 23.7427 15.186 23.7968 15.1209C23.8944 15.0014 24.1653 15.5009 24.3712 15.5118C24.577 15.5226 27.8388 14.4802 28.4131 14.3173C28.9332 14.1762 29.7459 13.6767 30.4178 13.5573C32.986 13.1012 36.3452 12.5583 38.9893 11.7548C39.932 11.4616 41.0157 11.125 42.0993 10.9947C45.5561 10.5713 50.0748 9.93062 54.0083 9.45286C54.8427 9.35513 56.9558 8.66021 57.3134 8.64935C57.4543 8.64935 57.4109 9.00767 57.4759 9.0511C57.9094 9.3117 59.9249 8.57334 60.586 8.47562C65.5381 7.75897 71.368 7.86756 76.3961 7.47666C77.5664 7.38979 79.2894 6.95547 80.3405 6.90117C80.7848 6.87946 81.4566 7.40065 81.9551 7.40065C82.486 7.40065 83.2229 6.89032 83.8297 6.81431C84.4366 6.7383 85.0867 6.96632 85.7044 6.97718C87.785 7.03147 90.6241 6.80345 92.7913 7.14006C95.2078 7.52009 97.4618 8.20416 99.9433 7.97614C100.062 7.97614 100.03 8.36704 100.323 8.48648C100.973 8.76879 101.742 8.38875 102.403 8.64935C102.609 8.73622 102.576 9.07282 102.674 9.07282C106.846 8.83394 112.535 10.5495 116.859 11.1793C116.88 11.1793 117.119 11.6679 117.086 11.1793L117.097 11.201ZM87.2648 10.5061V10.7341C87.4165 10.6581 87.4165 10.5821 87.2648 10.5061ZM93.7124 10.745V10.973C93.8641 10.897 93.8641 10.821 93.7124 10.745ZM95.0995 10.973V11.201C95.2512 11.125 95.2512 11.049 95.0995 10.973ZM86.5713 12.8189V13.0469C86.723 12.9709 86.723 12.8949 86.5713 12.8189ZM51.7977 13.0469V13.275C51.9494 13.1989 51.9494 13.1229 51.7977 13.0469ZM37.0496 13.2858V13.5138C37.2013 13.4378 37.2013 13.3618 37.0496 13.2858ZM38.3174 16.0547C38.5775 15.7832 38.2199 15.3163 37.8623 15.9461C37.8298 16.1524 38.3066 16.0764 38.3174 16.0547ZM77.8265 15.5878V15.8158C77.9782 15.7398 77.9782 15.6638 77.8265 15.5878ZM88.4135 16.7387V16.9668C88.5652 16.8907 88.5652 16.8147 88.4135 16.7387ZM41.655 17.6725V17.9006C41.8067 17.8246 41.8067 17.7485 41.655 17.6725ZM95.5437 18.0743C95.0669 17.8354 94.6443 18.2915 94.8719 18.4109C95.3487 18.6498 95.7713 18.1937 95.5437 18.0743ZM47.6475 18.3566V18.5846C47.7992 18.5086 47.7992 18.4326 47.6475 18.3566ZM58.7004 18.8235V19.0515C58.8522 18.9755 58.8522 18.8995 58.7004 18.8235ZM51.7977 19.0515V19.2796C51.9494 19.2036 51.9494 19.1275 51.7977 19.0515ZM134.717 19.2796V19.5076C134.869 19.4316 134.869 19.3556 134.717 19.2796ZM56.6307 19.9745V20.2025C56.7824 20.1265 56.7824 20.0505 56.6307 19.9745ZM92.3362 19.9745V20.2025C92.4879 20.1265 92.4879 20.0505 92.3362 19.9745ZM48.341 20.2025V20.4305C48.4927 20.3545 48.4927 20.2785 48.341 20.2025ZM108.461 20.6694V20.8974C108.612 20.8214 108.612 20.7454 108.461 20.6694ZM88.4135 21.5924V21.8204C88.5652 21.7444 88.5652 21.6684 88.4135 21.5924ZM39.2385 22.5153C39.4011 22.1896 39.0976 21.8964 39.0109 22.0593C38.8484 22.385 39.1518 22.6782 39.2385 22.5153ZM44.8842 22.0484V22.2764C45.0359 22.2004 45.0359 22.1244 44.8842 22.0484ZM37.5155 22.2873V22.5153C37.6673 22.4393 37.6673 22.3633 37.5155 22.2873ZM68.3772 22.2873V22.5153C68.5289 22.4393 68.5289 22.3633 68.3772 22.2873ZM41.655 22.5153V22.7433C41.8067 22.6673 41.8067 22.5913 41.655 22.5153ZM70.6854 22.5153V22.7433C70.8371 22.6673 70.8371 22.5913 70.6854 22.5153ZM57.1617 22.4284V23.2971C57.7252 23.0039 57.7252 22.7108 57.1617 22.4284ZM72.7551 23.2102V23.4383C72.9068 23.3623 72.9068 23.2862 72.7551 23.2102ZM150.375 23.4383V23.6663C150.527 23.5903 150.527 23.5143 150.375 23.4383ZM109.143 23.9052V24.1332C109.295 24.0572 109.295 23.9812 109.143 23.9052ZM25.5306 24.3612V24.5892C25.6823 24.5132 25.6823 24.4372 25.5306 24.3612ZM160.28 24.3612V24.5892C160.431 24.5132 160.431 24.4372 160.28 24.3612ZM140.016 24.8281V25.0561C140.167 24.9801 140.167 24.9041 140.016 24.8281ZM81.2724 25.2842V25.5122C81.4241 25.4362 81.4241 25.3602 81.2724 25.2842ZM17.3601 26.674C17.035 26.5111 16.7424 26.8152 16.905 26.902C17.2301 27.0649 17.5226 26.7609 17.3601 26.674ZM47.6475 26.902V27.1301C47.7992 27.0541 47.7992 26.978 47.6475 26.902ZM94.4059 27.1301V27.3581C94.5576 27.2821 94.5576 27.2061 94.4059 27.1301ZM70.447 27.3581V27.5861C70.5987 27.5101 70.5987 27.4341 70.447 27.3581ZM6.41546 27.597V27.825C6.56717 27.749 6.56717 27.673 6.41546 27.597ZM52.4804 27.825V28.053C52.6321 27.977 52.6321 27.901 52.4804 27.825ZM115.363 27.825V28.053C115.515 27.977 115.515 27.901 115.363 27.825ZM60.5426 28.281V28.5091C60.6943 28.433 60.6943 28.357 60.5426 28.281ZM76.4394 28.976V29.204C76.5911 29.128 76.5911 29.052 76.4394 28.976ZM113.294 28.976V29.204C113.445 29.128 113.445 29.052 113.294 28.976ZM185.387 28.976V29.204C185.539 29.128 185.539 29.052 185.387 28.976ZM27.8388 29.204V29.432C27.9905 29.356 27.9905 29.28 27.8388 29.204ZM40.5064 30.1378V30.3658C40.6581 30.2898 40.6581 30.2138 40.5064 30.1378ZM164.657 31.9837V32.2117C164.809 32.1357 164.809 32.0597 164.657 31.9837ZM192.994 32.2117V32.4397C193.146 32.3637 193.146 32.2877 192.994 32.2117ZM90.2556 32.9066V33.1347C90.4073 33.0587 90.4073 32.9826 90.2556 32.9066ZM6.64302 34.0576V34.2856C6.79473 34.2096 6.79473 34.1336 6.64302 34.0576ZM36.6053 34.2965V35.4366C37.3422 35.0566 37.3422 34.6765 36.6053 34.2965ZM43.7356 34.7525V34.9806C43.8873 34.9046 43.8873 34.8285 43.7356 34.7525ZM46.2604 34.7525V34.9806C46.4121 34.9046 46.4121 34.8285 46.2604 34.7525ZM165.351 34.7525V34.9806C165.503 34.9046 165.503 34.8285 165.351 34.7525ZM119.048 35.2086V35.4366C119.199 35.3606 119.199 35.2846 119.048 35.2086ZM137.48 35.9035V36.1315C137.632 36.0555 137.632 35.9795 137.48 35.9035ZM88.8794 36.3704V36.5984C89.0312 36.5224 89.0312 36.4464 88.8794 36.3704ZM93.0189 36.8265V37.0545C93.1706 36.9785 93.1706 36.9025 93.0189 36.8265ZM5.03925 37.0545V37.2825C5.19096 37.2065 5.19096 37.1305 5.03925 37.0545ZM53.6399 37.0545V37.2825C53.7916 37.2065 53.7916 37.1305 53.6399 37.0545ZM98.5562 37.0545V37.2825C98.7079 37.2065 98.7079 37.1305 98.5562 37.0545ZM160.973 37.0545V37.2825C161.125 37.2065 161.125 37.1305 160.973 37.0545ZM17.2409 37.5214V37.7494C17.3926 37.6734 17.3926 37.5974 17.2409 37.5214ZM94.8719 37.5214V37.7494C95.0236 37.6734 95.0236 37.5974 94.8719 37.5214ZM13.7841 37.9774V38.2055C13.9358 38.1294 13.9358 38.0534 13.7841 37.9774ZM78.9751 38.9004V39.1284C79.1268 39.0524 79.1268 38.9764 78.9751 38.9004ZM9.64467 39.5953V39.8233C9.79638 39.7473 9.79638 39.6713 9.64467 39.5953ZM16.7858 40.5183V40.7463C16.9375 40.6703 16.9375 40.5943 16.7858 40.5183Z" fill="#FBF7F2"/>
<path d="M117.096 11.2007C117.096 11.2007 116.944 11.2007 116.869 11.2007C117.009 10.9625 117.031 11.179 117.096 11.2007Z" fill="#FBF7F2"/>
</svg>
