<svg width="795" height="156" viewBox="0 0 795 156" fill="none" xmlns="http://www.w3.org/2000/svg">
<path d="M95.8786 0H64.6719V31.1864H95.8786V0Z" fill="#07004D"/>
<path d="M95.8786 124.763H64.6719V155.949H95.8786V124.763Z" fill="#07004D"/>
<path d="M127.076 31.1846H95.8691V62.371H127.076V31.1846Z" fill="#07004D"/>
<path d="M127.076 93.5747H95.8691V124.761H127.076V93.5747Z" fill="#07004D"/>
<path d="M158.3 62.3862H127.094V93.5727H158.3V62.3862Z" fill="#07004D"/>
<path d="M92.2423 62.3898H61.7326V31.8838H30.5097V62.3898H0V93.5762H30.5097V124.066H61.7326V93.5762H92.2423V62.3898Z" fill="#07004D"/>
<path d="M232.617 35.9484C231.758 35.0088 230.85 34.1987 229.877 33.5345C228.904 32.8703 227.737 32.287 226.359 31.7686L247.936 10.1406H231.968L210.958 32.3356V10.1406H198.119V60.7679H210.958V47.4509L216.146 42.3963C217.281 41.2622 218.464 40.7438 219.696 40.841C220.928 40.9382 221.966 41.6511 222.825 42.9633L234.951 60.7679H250.206L235.308 39.3506C234.368 38.0221 233.46 36.888 232.617 35.9484Z" fill="#07004D"/>
<path d="M291.006 12.3769C286.791 10.2708 281.895 9.21777 276.318 9.21777C273.481 9.21777 270.823 9.49319 268.375 10.0278C265.911 10.5786 263.657 11.3563 261.599 12.3607C259.54 13.3814 257.675 14.645 256.022 16.1517C254.368 17.6584 252.974 19.408 251.839 21.4007C250.705 23.3934 249.829 25.5319 249.213 27.8486C248.597 30.1653 248.289 32.6926 248.289 35.4306C248.289 40.8254 249.456 45.475 251.807 49.3956C254.158 53.3162 257.416 56.3457 261.631 58.468C265.846 60.5903 270.758 61.6596 276.383 61.6596C279.172 61.6596 281.798 61.3842 284.262 60.8495C286.726 60.3149 288.996 59.5211 291.071 58.468C293.146 57.4312 295.01 56.1513 296.647 54.6446C298.285 53.138 299.663 51.3883 300.797 49.428C301.932 47.4677 302.808 45.313 303.424 42.9801C304.04 40.6472 304.348 38.1199 304.348 35.4306C304.348 29.9871 303.181 25.3213 300.83 21.3845C298.495 17.4639 295.221 14.4506 291.006 12.3445V12.3769ZM290.584 40.2746C290.309 41.7489 289.855 43.0935 289.239 44.3248C288.623 45.556 287.893 46.6253 287.034 47.5163C286.175 48.4074 285.202 49.1688 284.084 49.7844C282.965 50.4001 281.782 50.8537 280.501 51.1615C279.22 51.4693 277.826 51.6151 276.318 51.6151C273.335 51.6151 270.742 51.0157 268.553 49.8006C266.348 48.6018 264.646 46.7873 263.447 44.3734C262.247 41.9595 261.631 38.9785 261.631 35.4468C261.631 33.6485 261.777 32.0122 262.085 30.5541C262.393 29.0961 262.847 27.7514 263.43 26.5526C264.014 25.3537 264.744 24.3007 265.587 23.3934C266.446 22.5024 267.418 21.7409 268.537 21.1253C269.656 20.5097 270.839 20.0561 272.12 19.7483C273.4 19.4404 274.795 19.2946 276.302 19.2946C279.334 19.2946 281.944 19.8941 284.148 21.1091C286.353 22.3242 288.039 24.1225 289.223 26.5364C290.406 28.9503 290.99 31.9312 290.99 35.4792C290.99 37.2289 290.844 38.8327 290.568 40.307L290.584 40.2746Z" fill="#07004D"/>
<path d="M323.873 42.4769H336.647C338.771 42.4769 340.473 42.9791 341.754 43.9674C343.034 44.9556 343.958 46.4785 344.526 48.5036L348.141 60.7675H361.548L357.154 45.798C356.538 43.8054 355.76 42.2015 354.82 40.9702C353.88 39.739 352.615 38.8155 351.059 38.1675C350.119 37.7787 349 37.4709 347.703 37.2279C349.405 36.7904 350.929 36.1748 352.226 35.381C354.188 34.1497 355.679 32.5782 356.7 30.6666C357.722 28.7549 358.224 26.5678 358.224 24.1053C358.224 21.0757 357.543 18.5322 356.165 16.4423C354.787 14.3686 352.81 12.7971 350.2 11.7279C347.59 10.6586 344.574 10.124 341.121 10.124H311.033V60.7513H323.873V42.4607V42.4769ZM323.873 20.0713H338.771C340.424 20.0713 341.851 20.5735 343.067 21.5941C344.266 22.6148 344.882 24.1863 344.882 26.3086C344.882 27.7342 344.591 28.9007 344.023 29.8241C343.456 30.7476 342.71 31.4118 341.786 31.8492C340.862 32.2866 339.857 32.481 338.771 32.481H323.873V20.0713Z" fill="#07004D"/>
<path d="M409.996 50.7721H380.621V40.0634H407.305V30.4077H380.621V20.1365H409.996V10.1406H367.717V60.7679H409.996V50.7721Z" fill="#07004D"/>
<path d="M452.496 50.3343L456.484 60.7513H470.182L449.529 10.124H434.55L413.832 60.7513H426.315L430.335 50.3343H452.48H452.496ZM441.472 21.4969L448.897 40.9054H433.983L441.472 21.4969Z" fill="#07004D"/>
<path d="M233.322 117.73C233.322 120.143 232.868 122.169 231.944 123.789C231.02 125.425 229.723 126.656 228.037 127.515C226.351 128.373 224.341 128.795 221.974 128.795C219.607 128.795 217.695 128.373 215.944 127.515C214.193 126.672 212.831 125.409 211.859 123.756C210.886 122.104 210.399 120.095 210.399 117.73V87.2397H197.625V117.875C197.625 122.363 198.614 126.17 200.575 129.297C202.537 132.424 205.309 134.773 208.876 136.393C212.442 137.997 216.673 138.807 221.537 138.807C226.4 138.807 230.793 137.997 234.279 136.393C237.748 134.789 240.374 132.391 242.157 129.232C243.924 126.073 244.816 122.217 244.816 117.681V87.256H233.322V117.746V117.73Z" fill="#07004D"/>
<path d="M290.887 120.176L266.894 87.2397H253.131V137.867H264.771V104.639L288.893 137.867H302.3V87.2397H290.887V120.176Z" fill="#07004D"/>
<path d="M324.005 87.2397H311.166V137.867H324.005V87.2397Z" fill="#07004D"/>
<path d="M329.963 97.3814H347.633V137.867H360.327V97.3814H377.932V87.2397H329.963V97.3814Z" fill="#07004D"/>
<path d="M383.877 137.867H426.172V127.871H396.797V117.163H423.481V107.523H396.797V97.2356H426.172V87.2397H383.877V137.867Z" fill="#07004D"/>
<path d="M478.036 93.9469C475.669 91.7436 472.946 90.0749 469.833 88.9408C466.721 87.8068 463.414 87.2397 459.863 87.2397H433.617V137.867H459.863C462.749 137.867 465.472 137.494 468.018 136.765C470.579 136.036 472.93 134.967 475.086 133.574C477.242 132.181 479.074 130.447 480.614 128.357C482.154 126.284 483.337 123.918 484.196 121.31C485.056 118.685 485.477 115.769 485.477 112.545C485.477 108.528 484.829 104.963 483.532 101.869C482.235 98.7747 480.403 96.134 478.036 93.9307V93.9469ZM471.487 118.41C470.984 120.095 470.287 121.537 469.395 122.736C468.504 123.934 467.45 124.923 466.234 125.684C465.035 126.446 463.77 126.996 462.473 127.353C461.176 127.709 459.831 127.887 458.469 127.887H446.473V97.2518H458.469C460.22 97.2518 461.906 97.5272 463.511 98.1104C465.116 98.6775 466.591 99.5685 467.904 100.767C469.233 101.966 470.287 103.554 471.065 105.514C471.843 107.474 472.232 109.824 472.232 112.578C472.232 114.797 471.989 116.757 471.487 118.426V118.41Z" fill="#07004D"/>
<path d="M552.401 91.7112C550.747 90.2531 548.785 89.1352 546.516 88.3738C544.246 87.6124 541.734 87.2397 538.994 87.2397H510.543V137.867H523.463V121.553H538.994C541.734 121.553 544.246 121.18 546.516 120.419C548.785 119.657 550.747 118.54 552.401 117.049C554.054 115.559 555.351 113.76 556.275 111.654C557.199 109.548 557.653 107.102 557.653 104.315C557.653 101.529 557.183 99.2121 556.275 97.0898C555.351 94.9675 554.07 93.1692 552.401 91.6949V91.7112ZM543.468 108.236C542.852 109.321 542.009 110.148 540.955 110.715C539.885 111.282 538.653 111.573 537.227 111.573H523.463V97.187H537.227C539.35 97.187 541.085 97.8188 542.414 99.0987C543.744 100.379 544.408 102.144 544.408 104.413C544.408 105.887 544.1 107.15 543.484 108.236H543.468Z" fill="#07004D"/>
<path d="M599.236 107.377H576.75V87.2397H563.83V137.867H576.75V117.519H599.236V137.867H612.01V87.2397H599.236V107.377Z" fill="#07004D"/>
<path d="M637.833 87.2397L617.115 137.867H629.598L633.618 127.45H655.763L659.751 137.867H673.449L652.796 87.2397H637.817H637.833ZM637.25 118.021L644.739 98.6127L652.164 118.021H637.25Z" fill="#07004D"/>
<path d="M722.201 118.086C721.26 116.855 719.996 115.931 718.44 115.283C717.499 114.894 716.381 114.587 715.084 114.344C716.786 113.906 718.31 113.291 719.607 112.497C721.569 111.265 723.06 109.694 724.081 107.782C725.103 105.871 725.605 103.683 725.605 101.221C725.605 98.1914 724.924 95.6479 723.546 93.558C722.168 91.4843 720.191 89.9129 717.581 88.8436C714.971 87.7744 711.955 87.2397 708.502 87.2397H678.414V137.867H691.253V119.576H704.028C706.152 119.576 707.854 120.079 709.134 121.067C710.415 122.055 711.339 123.578 711.907 125.603L715.522 137.867H728.928L724.535 122.898C723.919 120.905 723.141 119.301 722.201 118.07V118.086ZM711.42 106.924C710.853 107.847 710.107 108.511 709.183 108.949C708.259 109.386 707.254 109.581 706.168 109.581H691.27V97.1708H706.168C707.821 97.1708 709.248 97.673 710.464 98.6937C711.663 99.7143 712.279 101.286 712.279 103.408C712.279 104.834 711.988 106 711.42 106.924Z" fill="#07004D"/>
<path d="M776.969 87.2397L764.746 121.731L752.992 87.2397H735.111V137.867H746.67V103.748L758.877 137.867H769.025L781.443 103.765V137.867H794.072V87.2397H776.969Z" fill="#07004D"/>
</svg>
