<svg width="586" height="116" viewBox="0 0 586 116" fill="none" xmlns="http://www.w3.org/2000/svg">
<g opacity="0.8">
<path d="M70.7521 0H47.7227V23.0145H70.7521V0Z" fill="white"/>
<path d="M70.7521 92.0703H47.7227V115.085H70.7521V92.0703Z" fill="white"/>
<path d="M93.7794 23.0146H70.75V46.0291H93.7794V23.0146Z" fill="white"/>
<path d="M93.7794 69.0557H70.75V92.0701H93.7794V69.0557Z" fill="white"/>
<path d="M116.822 46.041H93.793V69.0555H116.822V46.041Z" fill="white"/>
<path d="M68.0715 46.0416H45.5564V23.5293H22.515V46.0416H0V69.0561H22.515V91.5565H45.5564V69.0561H68.0715V46.0416Z" fill="white"/>
<path d="M171.66 26.5306C171.026 25.8371 170.356 25.2394 169.638 24.7492C168.921 24.259 168.059 23.8286 167.042 23.446L182.966 7.48535H171.182L155.677 23.8645V7.48535H146.202V44.8465H155.677V35.019L159.505 31.2889C160.343 30.452 161.216 30.0694 162.125 30.1411C163.035 30.2129 163.8 30.7389 164.434 31.7073L173.383 44.8465H184.64L173.646 29.0412C172.952 28.0609 172.282 27.224 171.66 26.5306Z" fill="white"/>
<path d="M214.752 9.13407C211.641 7.57985 208.029 6.80273 203.913 6.80273C201.82 6.80273 199.858 7.00598 198.051 7.40051C196.233 7.807 194.57 8.38087 193.05 9.12211C191.531 9.87531 190.155 10.8078 188.935 11.9197C187.715 13.0316 186.686 14.3228 185.848 15.7933C185.011 17.2639 184.365 18.842 183.91 20.5516C183.456 22.2613 183.229 24.1263 183.229 26.1468C183.229 30.128 184.09 33.5593 185.825 36.4525C187.559 39.3458 189.964 41.5815 193.074 43.1476C196.185 44.7138 199.81 45.5029 203.961 45.5029C206.019 45.5029 207.957 45.2997 209.775 44.9051C211.594 44.5106 213.268 43.9248 214.8 43.1476C216.331 42.3825 217.707 41.438 218.915 40.3261C220.123 39.2143 221.14 37.9231 221.978 36.4764C222.815 35.0298 223.461 33.4397 223.916 31.7181C224.37 29.9965 224.598 28.1315 224.598 26.1468C224.598 22.1298 223.736 18.6866 222.002 15.7814C220.279 12.8881 217.862 10.6644 214.752 9.11016V9.13407ZM214.441 29.7216C214.238 30.8095 213.903 31.8018 213.448 32.7104C212.993 33.6191 212.455 34.4081 211.821 35.0657C211.187 35.7232 210.469 36.2852 209.644 36.7395C208.818 37.1938 207.945 37.5285 207 37.7557C206.055 37.9828 205.026 38.0904 203.913 38.0904C201.712 38.0904 199.798 37.6481 198.183 36.7514C196.556 35.8667 195.3 34.5277 194.414 32.7463C193.529 30.9649 193.074 28.7651 193.074 26.1588C193.074 24.8317 193.182 23.6242 193.409 22.5482C193.637 21.4722 193.972 20.4799 194.402 19.5952C194.833 18.7105 195.371 17.9334 195.993 17.2639C196.627 16.6063 197.345 16.0444 198.171 15.5901C198.996 15.1358 199.87 14.801 200.815 14.5739C201.76 14.3467 202.789 14.2391 203.901 14.2391C206.138 14.2391 208.064 14.6815 209.691 15.5781C211.318 16.4748 212.563 17.8019 213.436 19.5832C214.309 21.3646 214.74 23.5644 214.74 26.1827C214.74 27.4739 214.632 28.6575 214.429 29.7455L214.441 29.7216Z" fill="white"/>
<path d="M239.002 31.3479H248.429C249.997 31.3479 251.253 31.7185 252.198 32.4478C253.143 33.1771 253.825 34.3009 254.244 35.7954L256.911 44.8457H266.805L263.563 33.7988C263.108 32.3283 262.534 31.1447 261.84 30.2361C261.146 29.3274 260.213 28.646 259.065 28.1677C258.371 27.8808 257.546 27.6536 256.588 27.4743C257.845 27.1515 258.969 26.6972 259.926 26.1114C261.374 25.2028 262.474 24.0431 263.228 22.6323C263.982 21.2216 264.353 19.6076 264.353 17.7903C264.353 15.5546 263.85 13.6776 262.833 12.1353C261.816 10.605 260.357 9.44532 258.431 8.65626C256.505 7.86719 254.28 7.47266 251.731 7.47266H229.527V44.8338H239.002V31.336V31.3479ZM239.002 14.8134H249.997C251.217 14.8134 252.27 15.184 253.167 15.9372C254.052 16.6904 254.507 17.8501 254.507 19.4163C254.507 20.4684 254.291 21.3292 253.873 22.0106C253.454 22.6921 252.904 23.1823 252.222 23.5051C251.54 23.8279 250.798 23.9713 249.997 23.9713H239.002V14.8134Z" fill="white"/>
<path d="M302.565 37.4699H280.887V29.5673H300.579V22.4418H280.887V14.8619H302.565V7.48535H271.364V44.8465H302.565V37.4699Z" fill="white"/>
<path d="M333.921 37.1464L336.864 44.8338H346.973L331.732 7.47266H320.678L305.389 44.8338H314.6L317.567 37.1464H333.909H333.921ZM325.786 15.8655L331.265 30.1882H320.259L325.786 15.8655Z" fill="white"/>
<path d="M172.187 86.8812C172.187 88.6626 171.852 90.1571 171.17 91.3526C170.488 92.5601 169.531 93.4687 168.287 94.1024C167.043 94.736 165.559 95.0469 163.813 95.0469C162.066 95.0469 160.654 94.736 159.362 94.1024C158.07 93.4807 157.065 92.5482 156.348 91.3287C155.63 90.1092 155.271 88.6267 155.271 86.8812V64.3809H145.844V86.9888C145.844 90.3005 146.574 93.1101 148.021 95.4175C149.469 97.7249 151.514 99.4585 154.146 100.654C156.778 101.838 159.901 102.435 163.49 102.435C167.079 102.435 170.321 101.838 172.893 100.654C175.453 99.4704 177.391 97.701 178.707 95.3697C180.011 93.0383 180.669 90.1929 180.669 86.8454V64.3928H172.187V86.8932V86.8812Z" fill="white"/>
<path d="M214.66 88.6865L196.955 64.3809H186.798V101.742H195.388V77.2211L213.189 101.742H223.083V64.3809H214.66V88.6865Z" fill="white"/>
<path d="M239.099 64.3809H229.624V101.742H239.099V64.3809Z" fill="white"/>
<path d="M243.502 71.865H256.542V101.742H265.909V71.865H278.902V64.3809H243.502V71.865Z" fill="white"/>
<path d="M283.291 101.742H314.503V94.3654H292.826V86.4628H312.517V79.3492H292.826V71.7574H314.503V64.3809H283.291V101.742Z" fill="white"/>
<path d="M352.775 69.3305C351.028 67.7045 349.018 66.4731 346.721 65.6362C344.424 64.7993 341.984 64.3809 339.364 64.3809H319.995V101.742H339.364C341.493 101.742 343.503 101.467 345.381 100.929C347.272 100.391 349.006 99.602 350.597 98.5738C352.188 97.5456 353.54 96.2664 354.677 94.7241C355.813 93.1938 356.687 91.4483 357.321 89.5234C357.955 87.5866 358.266 85.4346 358.266 83.0555C358.266 80.0905 357.787 77.4603 356.83 75.1767C355.873 72.8932 354.521 70.9445 352.775 69.3185V69.3305ZM347.941 87.3834C347.571 88.6267 347.056 89.6908 346.398 90.5755C345.74 91.4602 344.963 92.1895 344.065 92.7514C343.18 93.3133 342.247 93.7198 341.29 93.9828C340.333 94.2459 339.34 94.3774 338.335 94.3774H329.482V71.7694H338.335C339.627 71.7694 340.871 71.9726 342.056 72.403C343.24 72.8215 344.329 73.479 345.298 74.3638C346.279 75.2485 347.056 76.4201 347.63 77.8667C348.205 79.3134 348.492 81.0469 348.492 83.0794C348.492 84.7173 348.312 86.1639 347.941 87.3953V87.3834Z" fill="white"/>
<path d="M407.651 67.6806C406.431 66.6046 404.983 65.7797 403.308 65.2177C401.634 64.6558 399.779 64.3809 397.757 64.3809H376.762V101.742H386.297V89.7027H397.757C399.779 89.7027 401.634 89.4278 403.308 88.8659C404.983 88.3039 406.431 87.479 407.651 86.3791C408.871 85.2792 409.828 83.9521 410.51 82.3979C411.192 80.8437 411.527 79.0384 411.527 76.982C411.527 74.9257 411.18 73.216 410.51 71.6498C409.828 70.0837 408.883 68.7566 407.651 67.6686V67.6806ZM401.059 79.8753C400.605 80.6763 399.983 81.286 399.205 81.7045C398.415 82.1229 397.506 82.3381 396.453 82.3381H386.297V71.7216H396.453C398.021 71.7216 399.301 72.1878 400.282 73.1323C401.263 74.0768 401.753 75.38 401.753 77.0538C401.753 78.1417 401.526 79.0742 401.071 79.8753H401.059Z" fill="white"/>
<path d="M442.214 79.2416H425.621V64.3809H416.086V101.742H425.621V86.7258H442.214V101.742H451.641V64.3809H442.214V79.2416Z" fill="white"/>
<path d="M470.698 64.3809L455.409 101.742H464.621L467.588 94.0546H483.93L486.873 101.742H496.982L481.74 64.3809H470.686H470.698ZM470.268 87.0964L475.795 72.7737L481.274 87.0964H470.268Z" fill="white"/>
<path d="M532.954 87.1443C532.26 86.2356 531.327 85.5542 530.178 85.0759C529.484 84.789 528.659 84.5619 527.702 84.3825C528.958 84.0597 530.082 83.6054 531.04 83.0196C532.487 82.111 533.588 80.9513 534.341 79.5405C535.095 78.1298 535.466 76.5158 535.466 74.6985C535.466 72.4628 534.963 70.5858 533.947 69.0435C532.93 67.5132 531.47 66.3535 529.544 65.5645C527.618 64.7754 525.393 64.3809 522.845 64.3809H500.641V101.742H510.116V88.2442H519.543C521.11 88.2442 522.366 88.6148 523.311 89.3441C524.256 90.0734 524.938 91.1972 525.357 92.6916L528.025 101.742H537.918L534.676 90.6951C534.222 89.2245 533.647 88.0409 532.954 87.1323V87.1443ZM524.998 78.9069C524.579 79.5883 524.029 80.0785 523.347 80.4013C522.665 80.7241 521.923 80.8676 521.122 80.8676H510.128V71.7096H521.122C522.342 71.7096 523.395 72.0802 524.292 72.8334C525.177 73.5866 525.632 74.7463 525.632 76.3125C525.632 77.3646 525.417 78.2254 524.998 78.9069Z" fill="white"/>
<path d="M573.379 64.3809L564.358 89.8343L555.685 64.3809H542.489V101.742H551.019V76.5636L560.028 101.742H567.517L576.681 76.5755V101.742H586V64.3809H573.379Z" fill="white"/>
</g>
</svg>
