<svg width="635" height="117" viewBox="0 0 635 117" fill="none" xmlns="http://www.w3.org/2000/svg">
<path d="M131.273 41.89H158.115V45.9124C158.115 52.323 155.944 57.1625 151.617 60.4306C147.274 63.6988 140.839 65.3329 132.295 65.3329H120.699V72.2464H133.224C143.766 72.2464 151.837 69.9681 157.454 65.4272C163.072 60.8863 165.872 54.3814 165.872 45.9124V34.9766H131.257V41.89H131.273Z" fill="white"/>
<path d="M277.678 35.2586H266.082V42.1721H277.678V72.2456H285.152V0H277.678V35.2586Z" fill="white"/>
<path d="M244.292 47.1206V42.1712H260.844V35.2577H219.211V42.1712H236.33V47.1206C236.33 52.9185 234.552 57.3965 230.996 60.5704C227.44 63.7443 222.421 65.3313 215.939 65.3313H209.771C204.846 64.2157 202.376 59.7848 202.376 52.07V13.7632H194.713V35.1478H171.883V42.0612H194.713V53.547C194.713 59.4077 196.019 63.9014 198.647 67.0439C201.227 70.155 204.878 71.8676 209.598 72.2133L216.898 72.229C222.39 72.229 227.173 71.1606 231.248 69.008C235.339 66.8554 238.376 63.8229 240.374 59.8948C242.246 63.6972 245.173 66.6354 249.169 68.7251C253.166 70.8149 257.839 71.8519 263.204 71.8519V65.127C257.21 65.0013 252.568 63.3515 249.264 60.1776C245.96 57.0037 244.308 52.6514 244.308 47.1049L244.292 47.1206Z" fill="white"/>
<path d="M367.848 28.5331V21.6196H325.57V51.0489C325.57 52.4159 325.932 53.4687 326.64 54.1757C327.348 54.8828 328.402 55.2441 329.771 55.2441H367.848V33.5768H360.17V48.425H333.233V28.5331H367.848Z" fill="white"/>
<path d="M331.837 82.9937H324.158V107.096C324.158 108.463 324.52 109.516 325.244 110.223C325.952 110.93 327.006 111.292 328.375 111.292H368.875V104.378H331.837V82.9937Z" fill="white"/>
<path d="M506.956 82.4268H499.277V105.964C499.277 107.331 499.639 108.384 500.347 109.091C501.055 109.798 502.11 110.159 503.478 110.159H538.078V103.246H506.94V82.4111L506.956 82.4268Z" fill="white"/>
<path d="M510.688 55.1503H518.366V29.0834C518.366 27.7164 518.004 26.6637 517.28 25.9566C516.557 25.2496 515.518 24.8882 514.149 24.8882H481.689V31.8016H510.688V55.1503Z" fill="white"/>
<path d="M593.006 55.1503H600.684V29.0834C600.684 27.7164 600.322 26.6637 599.599 25.9566C598.891 25.2496 597.836 24.8882 596.468 24.8882H564.008V31.8016H593.006V55.1503Z" fill="white"/>
<path d="M619.567 92.608H612.077C612.565 93.2994 612.974 94.195 613.289 95.3105C613.588 96.4261 613.761 97.526 613.761 98.5787C613.761 101.815 612.691 104.455 610.536 106.513C608.38 108.572 605.595 109.593 602.165 109.593C598.735 109.593 595.95 108.572 593.794 106.513C591.654 104.455 590.569 101.815 590.569 98.5787C590.569 95.342 591.639 92.6866 593.794 90.644C595.95 88.5856 598.735 87.5643 602.165 87.5643H618.906V80.6509H602.165C598.42 80.6509 595.085 81.4208 592.158 82.9449C589.231 84.469 586.95 86.6059 585.329 89.3398C583.709 92.0895 582.906 95.1691 582.906 98.5944C582.906 102.02 583.709 105.099 585.329 107.849C586.95 110.583 589.231 112.72 592.158 114.244C595.085 115.768 598.436 116.538 602.165 116.538C605.894 116.538 609.245 115.768 612.172 114.244C615.098 112.72 617.38 110.583 619.001 107.849C620.621 105.099 621.439 102.02 621.439 98.5944C621.439 97.6517 621.266 96.6461 620.92 95.562C620.574 94.4778 620.133 93.4879 619.567 92.6237V92.608Z" fill="white"/>
<path d="M634.549 41.7002V34.7867H621.458V13.7636H613.78V59.1567C613.78 61.215 613.198 62.7548 612.049 63.7761C610.885 64.7974 609.107 65.3159 606.668 65.3159H581.965V44.1985H574.287V65.3159H548.86C545.305 65.3159 542.787 64.2318 541.324 62.0478C539.86 59.8637 539.137 56.627 539.137 52.3375V41.6845H552.228V34.771H539.137V13.7478H531.458V59.141C531.458 61.1993 530.876 62.7391 529.728 63.7604C528.563 64.7817 526.785 65.3002 524.347 65.3002H499.644V44.1828H491.965V65.3002H466.523C462.967 65.3002 460.45 64.2161 458.986 62.0321C457.523 59.848 456.784 56.6113 456.784 52.3218V41.6688H469.89V34.7553H456.784V13.7321H449.121V59.1253C449.121 61.1836 448.539 62.7234 447.39 63.7447C446.242 64.766 444.448 65.2845 442.009 65.2845H419.556V54.0816C423.663 53.3431 426.999 51.5047 429.563 48.6137C432.128 45.7226 433.403 42.2502 433.403 38.1964C433.403 36.0752 432.931 34.2368 432.002 32.6813H424.607C425.347 34.0483 425.74 35.6666 425.74 37.5364C425.74 40.3961 424.796 42.7844 422.892 44.6856C420.988 46.5868 418.565 47.5295 415.639 47.5295C412.712 47.5295 410.383 46.5868 408.48 44.6856C406.576 42.7844 405.632 40.4118 405.632 37.5364C405.632 34.661 406.576 32.3042 408.48 30.4344C410.383 28.5647 412.775 27.6219 415.639 27.6219H440.341V20.7084H419.478V6.41016H411.815V20.7084H390.668V27.6219H401.793C399.228 30.5601 397.953 34.064 397.953 38.1806C397.953 42.2973 399.244 45.7226 401.84 48.6451C404.436 51.5676 407.772 53.3745 411.894 54.0659V65.2688H309.842C307.277 64.7032 305.42 63.399 304.224 61.3407C303.044 59.2824 302.447 56.1713 302.447 52.0075V6.41016H294.957V53.5002C294.957 59.4238 296.247 63.9333 298.843 67.0443C301.392 70.1239 304.995 71.8209 309.653 72.1666L344.457 72.1823V92.1684H352.12V72.1823H443.504C446.116 72.1823 448.303 71.7423 450.049 70.8781C451.796 70.0139 453.086 68.7884 453.889 67.2329C455.069 68.7255 456.721 69.9197 458.845 70.831C460.969 71.7266 463.455 72.1823 466.334 72.1823H525.826C528.437 72.1823 530.624 71.7423 532.371 70.8781C534.117 70.0139 535.392 68.7884 536.21 67.2329C537.39 68.7255 539.042 69.9197 541.166 70.831C543.291 71.7266 545.777 72.1823 548.656 72.1823H608.147C610.759 72.1823 612.946 71.7423 614.693 70.8781C616.439 70.0139 617.713 68.7884 618.532 67.2329C619.712 68.7255 621.364 69.9197 623.488 70.831C625.612 71.7266 628.098 72.1823 630.977 72.1823H633.511V65.2688H631.166C627.61 65.2688 625.093 64.1847 623.63 62.0006C622.166 59.8166 621.443 56.5798 621.443 52.2904V41.6374H634.533L634.549 41.7002Z" fill="white"/>
<path d="M88.3451 82.4584C87.9989 83.0554 87.6685 83.5896 87.3381 84.1082C87.3381 84.1082 87.2594 84.2181 87.2437 84.2339C87.2437 84.2339 87.1808 84.2967 87.1493 84.3753C86.9133 84.7367 86.6773 85.0666 86.4098 85.428C86.2839 85.6009 86.1738 85.7737 86.0322 85.9622C85.922 86.1194 85.8433 86.2294 85.7647 86.3393C85.7647 86.3393 85.4657 86.7321 85.45 86.7479C85.0724 87.2506 84.6948 87.7534 84.2699 88.2405C84.0811 88.5076 83.9238 88.6962 83.7192 88.9162C83.2315 89.4975 82.7437 90.0632 82.2087 90.5974C81.3433 91.5244 80.6196 92.2472 79.9115 92.8914C79.3294 93.4571 78.7157 93.9755 78.1178 94.4941C78.0864 94.5098 78.0549 94.5412 78.0392 94.5883C77.4413 95.0754 76.922 95.4839 76.3871 95.8768C76.2612 95.9867 76.1511 96.081 76.0409 96.1439L75.8049 96.3167C75.8049 96.3167 75.6633 96.411 75.6004 96.4581C75.5689 96.4581 75.443 96.5524 75.4115 96.5838C74.8451 97.008 74.2787 97.4009 73.7122 97.778L73.665 97.8094C73.193 97.7465 71.95 97.5737 71.95 97.5737C62.3049 96.2067 52.0147 93.1428 42.055 90.1731L40.1668 89.6075C39.0497 89.2775 37.9326 88.9476 36.8155 88.6333L36.3906 88.5076C42.0707 87.5806 47.3102 86.5593 51.6371 85.7423C62.1476 83.7154 71.2105 81.9556 80.3993 81.9556C83.1528 81.9556 85.8276 82.1127 88.3608 82.4269L88.3451 82.4584Z" fill="white"/>
<path d="M58.4387 50.0609C71.5611 50.0609 83.1729 43.8388 90.6939 38.528C82.9841 21.7 66.0698 10.8428 47.5034 10.8428C28.937 10.8428 11.8968 21.7629 4.25 38.7166C12.5419 39.2979 26.1363 41.372 44.8129 47.7826C49.2342 49.3067 53.8129 50.0766 58.4545 50.0766L58.4387 50.0609ZM63.9457 29.0691C67.9737 29.0691 71.2621 32.353 71.2621 36.3754C71.2621 40.3978 67.9737 43.6817 63.9457 43.6817C59.9177 43.6817 56.6293 40.3978 56.6293 36.3754C56.6293 32.353 59.9177 29.0691 63.9457 29.0691Z" fill="white"/>
<path d="M94.9719 56.8639C94.9719 56.6125 94.9719 56.3454 94.9404 56.094C94.9247 55.4812 94.8932 54.8999 94.8146 54.2399C94.8146 54.1142 94.8146 54.02 94.7831 53.8471C94.7674 53.47 94.7359 53.093 94.6572 52.653C94.6415 52.2759 94.5943 51.8988 94.5156 51.506C94.4369 50.8932 94.3425 50.2961 94.2324 49.7148C94.1065 49.0077 93.9649 48.3007 93.7918 47.5936C93.666 46.9808 93.5086 46.3838 93.3198 45.7553C93.1782 45.221 93.0366 44.6868 92.8478 44.1369C92.7062 43.6341 92.5488 43.1313 92.36 42.6285C92.2971 42.4242 92.2184 42.2043 92.1397 42C81.0471 49.6677 69.4195 53.7372 58.4685 53.7372C53.4492 53.7372 48.4457 52.9044 43.6468 51.2389C24.451 44.6397 10.8724 42.7228 2.8007 42.2985V42.3457C2.58042 42.8642 2.40734 43.3827 2.26573 43.7912C2.26573 43.8383 2.23426 43.964 2.21853 44.0112C2.06119 44.4983 1.90384 45.0011 1.76224 45.5039C1.60489 46.1166 1.43182 46.7294 1.29021 47.3736C1.13287 48.0493 0.975522 48.7092 0.849648 49.3691L0.818181 49.5734C0.708042 50.1704 0.613636 50.7518 0.534965 51.3489L0.472026 51.7574C0.393355 52.2445 0.346154 52.7316 0.283217 53.2344C0.173077 54.1771 0.110138 55.1041 0.0629354 56.0469C0.0314669 56.7854 0 57.5238 0 58.2623C0 58.9537 0.0157327 59.6293 0.0629354 60.3049C0.0786697 60.8392 0.0944061 61.3734 0.157343 61.9076C0.173077 62.1433 0.18881 62.379 0.236013 62.6461C0.314684 63.5574 0.409091 64.4687 0.566434 65.3486C0.660839 65.9928 0.770977 66.637 0.896851 67.2812C1.02273 67.9883 1.18007 68.6797 1.35315 69.371C1.49475 69.9524 1.6521 70.5337 1.82517 71.1308C6.54545 71.7593 11.6119 72.0735 16.8986 72.0735C37.0856 72.0735 55.9352 67.5641 67.3268 60.0064C72.9912 56.2197 78.687 54.3028 84.2097 54.3028C87.9072 54.3028 91.5261 55.1513 94.9876 56.8325L94.9719 56.8639Z" fill="white"/>
<path d="M84.2077 57.9635C79.4402 57.9635 74.4524 59.6762 69.3703 63.0544C57.2077 71.1462 38.1693 75.7971 17.1798 75.7971C12.3022 75.7971 7.55045 75.53 3.09766 75.0272C3.17633 75.2315 3.255 75.4357 3.36514 75.7028C3.52248 76.1114 3.67982 76.5199 3.86863 76.9127C3.86863 76.9441 3.96304 77.117 3.96304 77.1484C4.07318 77.4155 4.18332 77.6512 4.32493 77.934C4.4508 78.2325 4.59241 78.5468 4.73402 78.8453C4.87563 79.1439 5.01723 79.4267 5.19031 79.7724C5.26898 79.9452 5.36339 80.1337 5.48926 80.338L5.86688 81.0451C6.11863 81.5164 6.37038 81.9564 6.66933 82.4435C6.84241 82.7577 7.04695 83.0562 7.2515 83.3862C7.50325 83.8104 7.77073 84.219 8.05394 84.6432C8.54171 84.6118 9.01373 84.5803 9.50149 84.5646C10.3039 84.5489 11.1379 84.5332 11.9403 84.5332C13.0732 84.5332 14.206 84.5646 15.4962 84.6118L18.0295 84.7689C18.5959 84.816 19.1781 84.8632 19.7287 84.9417C20.9403 85.0517 22.1833 85.2246 23.4106 85.3974L24.0242 85.4917C24.512 85.5859 25.7864 85.8059 25.7864 85.8059L27.4543 86.1516C35.8249 85.0674 43.4088 83.6062 50.0958 82.3178L50.9298 82.1606C61.629 80.1023 70.865 78.3268 80.4 78.3268C83.8143 78.3268 87.1185 78.5625 90.2182 79.0182C90.407 78.6411 90.58 78.2797 90.7531 77.9968C90.7531 77.934 90.7531 77.8554 90.8003 77.7926C91.0363 77.3055 91.2409 76.8027 91.4612 76.2685C91.4926 76.2056 91.5713 76.0328 91.65 75.7814C91.6972 75.7029 91.7286 75.6243 91.7916 75.4357C91.8388 75.3415 91.8702 75.2786 91.9017 75.1686C92.1377 74.5873 92.3265 74.0216 92.5626 73.3617L92.7042 72.9217C92.7042 72.9217 92.7828 72.7332 92.7828 72.7175C92.7828 72.6546 92.7828 72.5918 92.8143 72.5289C92.8458 72.4347 92.893 72.3247 92.9244 72.1361C93.0818 71.649 93.2234 71.162 93.3493 70.6592L93.4279 70.3449C93.5853 69.8107 93.7112 69.2765 93.8213 68.6951C93.9629 68.1609 94.073 67.6267 94.1989 66.9196C94.2461 66.6525 94.309 66.3697 94.3405 66.0869C94.3405 66.0869 94.4035 65.7726 94.4035 65.7569C94.4035 65.694 94.4349 65.6312 94.4349 65.5684C94.4349 65.5212 94.4821 65.2227 94.4979 65.1755C94.608 64.5313 94.6709 63.8871 94.7496 63.1015L94.8283 62.143C94.8283 62.143 94.8597 62.0174 94.8597 61.9388C94.8597 61.9231 94.8597 61.7502 94.8597 61.7345C94.8912 61.5146 94.907 61.2946 94.907 60.9489C91.4612 58.9377 87.8738 57.9321 84.2077 57.9321V57.9635Z" fill="white"/>
<path d="M66.4582 100.386C65.7187 100.261 64.9792 100.104 64.2397 99.9308L62.9338 99.648C62.0841 99.4595 61.2345 99.2709 60.3848 99.0666L59.8813 98.9567C57.8516 98.4539 55.8061 97.9353 53.7292 97.3697C52.3446 96.9926 50.9443 96.5998 49.5439 96.207C46.7432 95.4057 43.9111 94.5886 41.0474 93.7244L39.0492 93.1274C36.2327 92.2946 33.4163 91.4618 30.5842 90.6762C30.1279 90.5505 29.6558 90.4248 29.2153 90.3148L28.8849 90.2363L28.6646 90.1891C28.224 90.0634 27.7677 89.9535 27.3429 89.8592L26.7607 89.7335C26.4146 89.6549 26.0684 89.5921 25.7223 89.5292L25.1086 89.4192C24.5894 89.3092 24.0702 89.215 23.5667 89.1364L22.8586 89.0264C21.6943 88.8693 20.53 88.6965 19.3814 88.5865C18.7835 88.5079 18.2013 88.4608 17.6349 88.4293L15.3377 88.2879C14.2205 88.2408 13.1034 88.2251 11.9863 88.2251C11.5615 88.2251 11.1366 88.2251 10.7275 88.2251C11.058 88.6336 11.4041 89.0264 11.7503 89.4192C11.8919 89.5921 12.0335 89.7492 12.238 89.9849C13.4338 91.3047 14.5667 92.4203 15.6838 93.4259C16.3447 94.0387 17.037 94.62 17.7293 95.17C18.4373 95.7356 19.1454 96.2698 19.8691 96.8041C20.5614 97.2911 21.2695 97.7625 21.9461 98.2182C22.0877 98.2967 22.2293 98.3753 22.3394 98.4696C23.016 98.8938 23.6768 99.2866 24.3849 99.6794C25.0614 100.041 25.7223 100.402 26.3988 100.732C27.4845 101.282 28.6174 101.769 29.5614 102.178C30.4111 102.523 31.2607 102.853 32.1104 103.136C33.0859 103.466 34.0614 103.765 35.0684 104.047C35.9023 104.283 36.7362 104.487 37.5859 104.66L38.5929 104.88C38.8604 104.927 39.1436 104.99 39.4425 105.022C41.0946 105.32 42.8569 105.524 44.6663 105.634H45.0282C45.2957 105.666 45.5631 105.697 45.8306 105.697H46.0194C46.5387 105.713 47.0422 105.729 47.5614 105.729C48.0806 105.729 48.6313 105.713 49.2607 105.697C49.7485 105.682 50.2362 105.65 50.7397 105.619H51.0701C51.495 105.556 51.9355 105.524 52.3761 105.477C53.4617 105.383 54.6418 105.21 55.9949 104.975C56.5456 104.88 57.1121 104.786 57.647 104.645C59.2991 104.299 60.967 103.828 62.7921 103.199C63.1383 103.089 63.5002 102.979 63.8463 102.838C64.4442 102.618 65.0579 102.382 65.6715 102.131C66.1907 101.926 66.71 101.706 67.2135 101.471C67.6855 101.266 68.1575 101.046 68.6138 100.811C68.5666 100.811 68.5351 100.795 68.4879 100.779C67.8271 100.669 67.1663 100.559 66.4897 100.434L66.4582 100.386Z" fill="white"/>
</svg>
