<svg width="635" height="117" viewBox="0 0 635 117" fill="none" xmlns="http://www.w3.org/2000/svg">
<path d="M131.28 41.8895H158.123V45.9118C158.123 52.3225 155.952 57.1619 151.625 60.43C147.282 63.6982 140.847 65.3323 132.303 65.3323H120.707V72.2457H133.231C143.773 72.2457 151.845 69.9674 157.462 65.4266C163.079 60.8857 165.88 54.3808 165.88 45.9118V34.9761H131.265V41.8895H131.28Z" fill="#3860A4"/>
<path d="M277.682 35.2585H266.086V42.1719H277.682V72.2453H285.156V0H277.682V35.2585Z" fill="#3860A4"/>
<path d="M244.295 47.1204V42.171H260.848V35.2576H219.215V42.171H236.334V47.1204C236.334 52.9182 234.556 57.3962 231 60.5701C227.444 63.744 222.425 65.3309 215.942 65.3309H209.775C204.85 64.2154 202.38 59.7845 202.38 52.0697V13.7788H194.717V35.1633H171.887V42.0767H194.717V53.5624C194.717 59.4231 196.023 63.9168 198.651 67.0593C201.231 70.1703 204.881 71.883 209.602 72.2287L216.902 72.2444C222.393 72.2444 227.177 71.1759 231.252 69.0233C235.343 66.8707 238.379 63.8383 240.378 59.9102C242.25 63.7126 245.176 66.6508 249.173 68.7405C253.169 70.8303 257.842 71.8673 263.208 71.8673V65.1424C257.213 65.0167 252.572 63.3669 249.267 60.193C245.963 57.0191 244.311 52.6668 244.311 47.1204H244.295Z" fill="#3860A4"/>
<path d="M367.848 28.535V21.6216H325.57V51.0508C325.57 52.4177 325.932 53.4705 326.64 54.1775C327.348 54.8846 328.402 55.246 329.771 55.246H367.848V33.5787H360.17V48.4268H333.233V28.535H367.848Z" fill="#3860A4"/>
<path d="M331.829 82.9932H324.15V107.096C324.15 108.463 324.512 109.516 325.236 110.223C325.944 110.93 326.998 111.291 328.367 111.291H368.867V104.378H331.829V82.9932Z" fill="#3860A4"/>
<path d="M506.956 82.4268H499.277V105.964C499.277 107.331 499.639 108.384 500.347 109.091C501.055 109.798 502.11 110.159 503.478 110.159H538.078V103.246H506.94V82.4111L506.956 82.4268Z" fill="#3860A4"/>
<path d="M510.688 55.1496H518.366V29.0829C518.366 27.7159 518.004 26.6632 517.28 25.9561C516.556 25.2491 515.518 24.8877 514.149 24.8877H481.689V31.8011H510.688V55.1496Z" fill="#3860A4"/>
<path d="M593.006 55.1496H600.684V29.0829C600.684 27.7159 600.322 26.6632 599.598 25.9561C598.89 25.2491 597.836 24.8877 596.467 24.8877H564.008V31.8011H593.006V55.1496Z" fill="#3860A4"/>
<path d="M619.567 92.608H612.077C612.565 93.2993 612.974 94.1949 613.289 95.3105C613.588 96.426 613.761 97.5259 613.761 98.5786C613.761 101.815 612.691 104.455 610.535 106.513C608.38 108.572 605.595 109.593 602.165 109.593C598.735 109.593 595.95 108.572 593.794 106.513C591.654 104.455 590.569 101.815 590.569 98.5786C590.569 95.3419 591.639 92.6865 593.794 90.6439C595.95 88.5856 598.735 87.5643 602.165 87.5643H618.906V80.6509H602.165C598.42 80.6509 595.084 81.4208 592.158 82.9449C589.231 84.469 586.95 86.6058 585.329 89.3398C583.709 92.0894 582.906 95.1691 582.906 98.5943C582.906 102.02 583.709 105.099 585.329 107.849C586.95 110.583 589.231 112.72 592.158 114.244C595.084 115.768 598.436 116.538 602.165 116.538C605.894 116.538 609.245 115.768 612.172 114.244C615.098 112.72 617.38 110.583 619 107.849C620.621 105.099 621.439 102.02 621.439 98.5943C621.439 97.6516 621.266 96.646 620.92 95.5619C620.574 94.4777 620.133 93.4878 619.567 92.6237V92.608Z" fill="#3860A4"/>
<path d="M634.553 41.7021V34.7887H621.463V13.7656H613.784V59.1585C613.784 61.2168 613.202 62.7566 612.054 63.7779C610.889 64.7992 609.111 65.3177 606.672 65.3177H581.97V44.2004H574.292V65.3177H548.865C545.309 65.3177 542.792 64.2336 541.328 62.0496C539.865 59.8656 539.141 56.6288 539.141 52.3394V41.6864H552.232V34.773H539.141V13.7499H531.463V59.1428C531.463 61.2011 530.881 62.7409 529.732 63.7622C528.568 64.7835 526.79 65.302 524.351 65.302H499.649V44.1847H491.97V65.302H466.528C462.972 65.302 460.455 64.2179 458.992 62.0339C457.528 59.8499 456.789 56.6131 456.789 52.3237V41.6707H469.895V34.7573H456.789V13.7342H449.126V59.1271C449.126 61.1854 448.544 62.7252 447.396 63.7465C446.247 64.7678 444.453 65.2863 442.014 65.2863H419.562V54.0834C423.668 53.345 427.004 51.5066 429.569 48.6155C432.133 45.7245 433.408 42.2521 433.408 38.1983C433.408 36.0771 432.936 34.2388 432.007 32.6833H424.612C425.352 34.0502 425.745 35.6686 425.745 37.5384C425.745 40.398 424.801 42.7863 422.897 44.6875C420.994 46.5887 418.57 47.5314 415.644 47.5314C412.717 47.5314 410.389 46.5887 408.485 44.6875C406.581 42.7863 405.637 40.4137 405.637 37.5384C405.637 34.663 406.581 32.3062 408.485 30.4364C410.389 28.5666 412.78 27.6239 415.644 27.6239H440.347V20.7105H419.483V6.49081H411.821V20.789H390.674V27.7024H401.798C399.233 30.6406 397.959 34.1445 397.959 38.2611C397.959 42.3778 399.249 45.803 401.845 48.7255C404.441 51.648 407.777 53.4549 411.899 54.1463V65.3492H309.847C307.283 64.7835 305.426 63.4794 304.23 61.4211C303.05 59.3628 302.452 56.2517 302.452 52.088V6.4751H294.963V53.5649C294.963 59.4885 296.253 63.9979 298.849 67.109C301.398 70.1886 305.001 71.8855 309.659 72.2312L344.463 72.2469V92.233H352.125V72.2469H443.509C446.121 72.2469 448.308 71.8069 450.055 70.9428C451.801 70.0786 453.091 68.853 453.894 67.2975C455.074 68.7902 456.726 69.9843 458.85 70.8956C460.974 71.7912 463.46 72.2469 466.339 72.2469H525.83C528.442 72.2469 530.629 71.8069 532.376 70.9428C534.122 70.0786 535.397 68.853 536.215 67.2975C537.395 68.7902 539.047 69.9843 541.171 70.8956C543.295 71.7912 545.781 72.2469 548.661 72.2469H608.151C610.763 72.2469 612.95 71.8069 614.697 70.9428C616.443 70.0786 617.718 68.853 618.536 67.2975C619.716 68.7902 621.368 69.9843 623.492 70.8956C625.616 71.7912 628.102 72.2469 630.982 72.2469H633.515V65.3335H631.171C627.615 65.3335 625.097 64.2493 623.634 62.0653C622.171 59.8813 621.447 56.6445 621.447 52.3551V41.7021H634.538H634.553Z" fill="#3860A4"/>
<path d="M88.3497 82.4579C88.0036 83.0549 87.6732 83.5892 87.3427 84.1077C87.3427 84.1077 87.2641 84.2177 87.2483 84.2334C87.2483 84.2334 87.1854 84.2962 87.1539 84.3748C86.9179 84.7362 86.6819 85.0661 86.4144 85.4275C86.2885 85.6003 86.1784 85.7732 86.0368 85.9617C85.9267 86.1188 85.848 86.2288 85.7693 86.3388C85.7693 86.3388 85.4704 86.7316 85.4546 86.7473C85.077 87.2501 84.6994 87.7529 84.2746 88.24C84.0858 88.5071 83.9284 88.6957 83.7239 88.9156C83.2361 89.497 82.7484 90.0626 82.2134 90.5969C81.348 91.5239 80.6243 92.2466 79.9162 92.8909C79.334 93.4565 78.7204 93.975 78.1225 94.4935C78.0911 94.5092 78.0596 94.5407 78.0438 94.5878C77.4459 95.0749 76.9267 95.4834 76.3918 95.8762C76.2659 95.9862 76.1557 96.0805 76.0456 96.1433L75.8096 96.3161C75.8096 96.3161 75.668 96.4104 75.6051 96.4576C75.5736 96.4576 75.4477 96.5518 75.4162 96.5833C74.8498 97.0075 74.2834 97.4003 73.7169 97.7774L73.6697 97.8088C73.1977 97.746 71.9547 97.5731 71.9547 97.5731C62.3097 96.2062 52.0195 93.1423 42.0598 90.1726L40.1717 89.607C39.0546 89.277 37.9375 88.9471 36.8203 88.6328L36.3955 88.5071C42.0755 87.5801 47.315 86.5588 51.6419 85.7417C62.1523 83.7149 71.2152 81.9551 80.404 81.9551C83.1574 81.9551 85.8323 82.1122 88.3655 82.4264L88.3497 82.4579Z" fill="#64B789"/>
<path d="M58.4395 50.0602C71.5618 50.0602 83.1736 43.8382 90.6945 38.5274C82.9847 21.6995 66.0705 10.8423 47.5042 10.8423C28.9379 10.8423 11.8978 21.7624 4.25098 38.7159C12.5429 39.2973 26.1372 41.3713 44.8137 47.782C49.235 49.3061 53.8136 50.076 58.4552 50.076L58.4395 50.0602ZM63.9464 29.0686C67.9743 29.0686 71.2628 32.3525 71.2628 36.3748C71.2628 40.3972 67.9743 43.681 63.9464 43.681C59.9185 43.681 56.63 40.3972 56.63 36.3748C56.63 32.3525 59.9185 29.0686 63.9464 29.0686Z" fill="#3860A4"/>
<path d="M94.9714 56.8619C94.9714 56.6105 94.9714 56.3434 94.94 56.092C94.9242 55.4792 94.8928 54.8979 94.8141 54.2379C94.8141 54.1123 94.8141 54.018 94.7826 53.8451C94.7669 53.468 94.7354 53.0909 94.6568 52.651C94.641 52.2739 94.5938 51.8968 94.5151 51.504C94.4365 50.8912 94.3421 50.2942 94.2319 49.7128C94.1061 49.0057 93.9645 48.2987 93.7914 47.5916C93.6655 46.9789 93.5082 46.3818 93.3194 45.7533C93.1778 45.2191 93.0361 44.6849 92.8473 44.1349C92.7057 43.6321 92.5484 43.1293 92.3596 42.6265C92.2966 42.4223 92.218 42.2023 92.1393 41.998C81.0467 49.6657 69.4192 53.7352 58.4682 53.7352C53.449 53.7352 48.4455 52.9024 43.6466 51.2369C24.4509 44.6377 10.8723 42.7208 2.80068 42.2966V42.3437C2.5804 42.8622 2.40733 43.3807 2.26572 43.7893C2.26572 43.8364 2.23425 43.9621 2.21852 44.0092C2.06118 44.4963 1.90384 44.9991 1.76223 45.5019C1.60489 46.1147 1.43181 46.7275 1.2902 47.3717C1.13286 48.0473 0.975517 48.7072 0.849644 49.3671L0.818177 49.5714C0.708038 50.1685 0.613633 50.7498 0.534962 51.3469L0.472024 51.7554C0.393353 52.2425 0.346152 52.7296 0.283216 53.2324C0.173076 54.1751 0.110138 55.1021 0.0629351 56.0449C0.0314668 56.7833 0 57.5218 0 58.2603C0 58.9516 0.0157326 59.6273 0.0629351 60.3029C0.0786693 60.8371 0.0944056 61.3713 0.157342 61.9056C0.173076 62.1413 0.188809 62.3769 0.236012 62.644C0.314683 63.5554 0.409089 64.4667 0.566431 65.3466C0.660836 65.9908 0.770974 66.635 0.896847 67.2792C1.02272 67.9862 1.18006 68.6776 1.35314 69.3689C1.49475 69.9503 1.65209 70.5316 1.82516 71.1287C6.54541 71.7572 11.6118 72.0714 16.8985 72.0714C37.0854 72.0714 55.935 67.562 67.3265 60.0044C72.9908 56.2177 78.6866 54.3008 84.2093 54.3008C87.9068 54.3008 91.5257 55.1493 94.9872 56.8305L94.9714 56.8619Z" fill="#99D5EB"/>
<path d="M84.2083 57.9631C79.4408 57.9631 74.4531 59.6757 69.3709 63.0539C57.2084 71.1457 38.1701 75.7966 17.1807 75.7966C12.3031 75.7966 7.5514 75.5294 3.09863 75.0267C3.1773 75.2309 3.25597 75.4352 3.36611 75.7023C3.52346 76.1108 3.6808 76.5193 3.86961 76.9121C3.86961 76.9436 3.96401 77.1164 3.96401 77.1478C4.07415 77.4149 4.18429 77.6506 4.3259 77.9334C4.45177 78.232 4.59338 78.5462 4.73499 78.8447C4.8766 79.1433 5.0182 79.4261 5.19128 79.7718C5.26995 79.9446 5.36435 80.1332 5.49023 80.3374L5.86785 81.0445C6.11959 81.5158 6.37134 81.9558 6.67029 82.4429C6.84337 82.7571 7.04791 83.0556 7.25245 83.3856C7.5042 83.8098 7.77168 84.2184 8.0549 84.6426C8.54266 84.6112 9.01468 84.5797 9.50244 84.564C10.3049 84.5483 11.1388 84.5326 11.9412 84.5326C13.0741 84.5326 14.207 84.564 15.4972 84.6112L18.0304 84.7683C18.5968 84.8154 19.179 84.8626 19.7296 84.9411C20.9412 85.0511 22.1842 85.2239 23.4114 85.3968L24.0251 85.4911C24.5128 85.5853 25.7873 85.8053 25.7873 85.8053L27.4551 86.151C35.8257 85.0668 43.4096 83.6056 50.0966 82.3172L50.9305 82.16C61.6297 80.1017 70.8657 78.3262 80.4006 78.3262C83.8149 78.3262 87.1191 78.5619 90.2187 79.0176C90.4075 78.6405 90.5806 78.2791 90.7537 77.9963C90.7537 77.9334 90.7537 77.8549 90.8009 77.792C91.0369 77.3049 91.2414 76.8021 91.4617 76.2679C91.4932 76.2051 91.5719 76.0322 91.6505 75.7808C91.6977 75.7023 91.7292 75.6237 91.7921 75.4352C91.8393 75.3409 91.8708 75.278 91.9023 75.1681C92.1383 74.5867 92.3271 74.0211 92.5631 73.3611L92.7047 72.9212C92.7047 72.9212 92.7834 72.7326 92.7834 72.7169C92.7834 72.6541 92.7834 72.5912 92.8149 72.5284C92.8463 72.4341 92.8935 72.3241 92.925 72.1356C93.0823 71.6485 93.2239 71.1614 93.3498 70.6586L93.4285 70.3444C93.5858 69.8102 93.7117 69.2759 93.8218 68.6946C93.9635 68.1604 94.0736 67.6261 94.1995 66.9191C94.2467 66.652 94.3096 66.3692 94.3411 66.0863C94.3411 66.0863 94.404 65.7721 94.404 65.7564C94.404 65.6935 94.4355 65.6307 94.4355 65.5678C94.4355 65.5207 94.4827 65.2222 94.4984 65.175C94.6086 64.5308 94.6715 63.8866 94.7502 63.101L94.8288 62.1425C94.8288 62.1425 94.8603 62.0168 94.8603 61.9383C94.8603 61.9226 94.8603 61.7497 94.8603 61.734C94.8918 61.5141 94.9075 61.2941 94.9075 60.9484C91.4617 58.9372 87.8743 57.9316 84.2083 57.9316V57.9631Z" fill="#DBE9A8"/>
<path d="M66.458 100.388C65.7185 100.263 64.979 100.106 64.2395 99.9327L62.9335 99.6499C62.0839 99.4614 61.2342 99.2728 60.3846 99.0686L59.8811 98.9586C57.8514 98.4558 55.8059 97.9373 53.729 97.3716C52.3444 96.9945 50.9441 96.6017 49.5437 96.2089C46.7431 95.4076 43.9109 94.5905 41.0473 93.7264L39.049 93.1293C36.2326 92.2965 33.4162 91.4638 30.5841 90.6782C30.1278 90.5525 29.6557 90.4268 29.2152 90.3168L28.8848 90.2382L28.6645 90.1911C28.2239 90.0654 27.7676 89.9554 27.3428 89.8611L26.7607 89.7354C26.4145 89.6569 26.0684 89.594 25.7222 89.5312L25.1086 89.4212C24.5893 89.3112 24.0701 89.2169 23.5666 89.1384L22.8586 89.0284C21.6943 88.8713 20.5299 88.6984 19.3813 88.5884C18.7834 88.5099 18.2013 88.4627 17.6348 88.4313L15.3376 88.2899C14.2205 88.2428 13.1034 88.2271 11.9863 88.2271C11.5615 88.2271 11.1366 88.2271 10.7275 88.2271C11.058 88.6356 11.4041 89.0284 11.7503 89.4212C11.8919 89.594 12.0335 89.7511 12.238 89.9868C13.4338 91.3067 14.5667 92.4222 15.6838 93.4278C16.3446 94.0406 17.0369 94.622 17.7292 95.1719C18.4373 95.7375 19.1453 96.2718 19.8691 96.806C20.5614 97.2931 21.2694 97.7644 21.946 98.2201C22.0876 98.2986 22.2292 98.3772 22.3394 98.4715C23.0159 98.8957 23.6768 99.2885 24.3848 99.6813C25.0614 100.043 25.7222 100.404 26.3988 100.734C27.4844 101.284 28.6173 101.771 29.5613 102.18C30.411 102.525 31.2606 102.855 32.1103 103.138C33.0858 103.468 34.0613 103.767 35.0683 104.049C35.9022 104.285 36.7361 104.489 37.5858 104.662L38.5928 104.882C38.8602 104.929 39.1435 104.992 39.4424 105.024C41.0945 105.322 42.8567 105.526 44.6661 105.636H45.028C45.2955 105.668 45.563 105.699 45.8305 105.699H46.0193C46.5385 105.715 47.042 105.731 47.5612 105.731C48.0805 105.731 48.6312 105.715 49.2605 105.699C49.7483 105.683 50.236 105.652 50.7395 105.621H51.07C51.4948 105.558 51.9353 105.526 52.3759 105.479C53.4615 105.385 54.6416 105.212 55.9947 104.976C56.5454 104.882 57.1119 104.788 57.6468 104.646C59.2989 104.301 60.9667 103.829 62.7919 103.201C63.1381 103.091 63.4999 102.981 63.8461 102.84C64.444 102.62 65.0576 102.384 65.6713 102.132C66.1905 101.928 66.7097 101.708 67.2132 101.473C67.6852 101.268 68.1573 101.048 68.6136 100.813C68.5663 100.813 68.5349 100.797 68.4877 100.781C67.8268 100.671 67.166 100.561 66.4894 100.436L66.458 100.388Z" fill="#66C1B5"/>
</svg>
