<svg width="1108" height="1109" viewBox="0 0 1108 1109" fill="none" xmlns="http://www.w3.org/2000/svg">
<circle opacity="0.62" cx="554" cy="554.653" r="553.5" transform="rotate(90 554 554.653)" stroke="url(#paint0_linear_150_2)"/>
<path style="mix-blend-mode:overlay" opacity="0.7" d="M1107.96 544.35V542.961L1107.65 531.497V531.42V530.339H1107.61L1107.23 522.195L1107.07 519.956L1106.3 508.531V508.377L1105.41 498.419L1105.3 497.183L1104.06 485.874V485.72L1103.1 478.386L1102.98 477.537L1102.9 476.997L1102.09 471.245L1100.9 463.449L1100.63 461.789L1100.55 461.326L1098.62 450.595L1098.08 447.623L1097.77 446.195V445.964H1097.73L1096.77 441.255V441.139L1096.73 441.023L1095.22 434.114L1094.99 433.072L1094.91 432.647L1093.64 427.012L1091.79 419.292V419.254L1089.16 409.218L1088.93 408.408L1085.88 397.6V397.561L1082.87 387.642L1082.6 386.793L1079.13 376.101L1076.04 367.185L1075.42 365.486L1071.52 354.949L1069.86 350.665L1068.24 346.612L1067.2 344.103L1062.72 333.411L1061.45 330.516L1059.94 327.081L1058.01 322.835L1053.11 312.375L1048.63 303.305L1047.97 301.992L1042.65 291.802L1041.68 289.988L1037.86 283.002L1037.09 281.651L1031.34 271.693V271.654L1026.09 262.931L1025.39 261.85L1019.25 252.123V252.046L1014.08 244.327L1013.73 243.786L1010.99 239.656L1006.44 233.095L1000.53 224.95L999.683 223.792L992.734 214.606L991.885 213.487L991.808 213.371L986.828 207.079L985.438 205.381L978.258 196.696L976.097 194.11L973.124 190.637L970.731 187.896L963.011 179.289L956.101 171.878L955.058 170.797L946.952 162.46L946.026 161.533L939.656 155.281L938.653 154.316L930.778 146.905L919.313 136.56L914.68 132.546L913.793 131.774L913.638 131.658L911.592 129.922L911.438 129.806L910.782 129.265L905.532 124.942L903.949 123.669L897.078 118.11L894.028 115.717L886.694 110.082L885.999 109.542L877.043 102.98L876.734 102.748L868.126 96.7271L867.007 95.9551L857.858 89.818H857.781L857.742 89.7408L851.025 85.4564L838.325 77.621L834.349 75.2665L829.987 72.7576L828.405 71.8698L818.329 66.2731L803.506 58.5535L800.804 57.1639H800.688V57.1253L800.07 56.8166L799.955 56.7394L797.909 55.7358L788.065 51.0654L787.486 50.7952L776.909 46.0477H776.871L769.111 42.7668H769.034L768.378 42.458L762.819 40.1421L755.446 37.2087L752.706 36.1665L751.432 35.7033L751.123 35.5875L742.901 32.5769L734.369 29.5276H734.292L724.487 26.2854L721.09 25.2432L713.022 22.7343H712.945L703.063 19.9167L702.252 19.6851L691.482 16.8288H691.367H691.289L680.79 14.2813L680.133 14.1269L669.479 11.7725L655.775 9.10918H655.852L654.501 8.87759H654.347L650.371 8.18282L648.479 7.83543L647.321 7.64244L645.16 7.29506L637.632 6.13711L636.127 5.90552L624.971 4.3616L615.05 3.20365L613.66 3.04926L602.35 1.96851L597.795 1.58253L592.661 1.23514L590.962 1.11935L579.536 0.501777L576.177 0.347384L568.804 0.154393H568.032L556.606 0H556.413L546.377 0.0771964H544.91V0.115795L533.29 0.463178H533.213H533.02L522.173 1.00355H521.594L509.936 1.81412H509.627L502.447 2.50888L494.07 3.35804L486.543 4.2072L476.159 5.59674L474.769 5.78973L463.034 7.60385L451.183 9.72675L442.266 11.5023L438.252 12.3514L437.788 12.4286L426.903 14.8989L426.401 15.0147L419.761 16.6744L407.833 19.7623L402.043 21.422L400.19 21.9624L396.214 23.1589L394.708 23.6221L394.091 23.8151L390.269 25.0502L388.262 25.7064L383.823 27.2117L382.51 27.6749L376.836 29.682L375.407 30.2224L371.122 31.8049L369.154 32.5769L365.409 34.0436L363.363 34.8542L359.426 36.4753L357.882 37.1315H357.805V37.1701L351.126 40.0649L349.621 40.7211L343.483 43.5002L342.711 43.8476L336.072 47.0512L334.527 47.8232L327.849 51.2198L322.406 54.0761L320.631 55.041L317.002 57.0095L314.918 58.1675L311.636 60.0202L309.475 61.2939L306.309 63.1467L304.147 64.459L300.982 66.3889L298.859 67.7012L295.732 69.6698H294.806L294.922 69.9013L289.98 71.2523L293.493 71.0593L289.903 73.4138L288.514 74.3401L283.302 77.8526C228.14 116.335 166.492 162.769 130.051 199.205C129.357 199.9 128.662 200.595 128.005 201.251L127.774 201.483L121.366 209.511L116.811 215.301L113.53 219.585L113.452 219.701L104.111 232.438L103.918 232.709L95.155 245.407L85.5044 260.229L85.35 260.461L82.2618 265.478L82.0302 265.903L79.3667 270.419L75.0046 277.868L73.4991 280.532L70.9514 285.009L70.1407 286.476L69.0213 288.522L61.764 302.378L55.7807 314.46L55.3175 315.425L54.9314 316.274L52.6539 321.137L52.5381 321.369L47.79 332.022L44.5474 339.51L40.031 350.626L39.645 351.668L34.9741 363.981L33.8546 367.069L31.1525 374.866L28.3731 383.357L26.829 388.105L26.25 389.919L23.625 398.681L23.2776 399.993L19.9578 411.997L19.4946 413.773L17.5645 421.454L17.024 423.808L14.2833 435.735L12.1602 446.118L11.3495 450.441L9.72822 459.28V459.357L9.3036 461.943L8.10693 469.47L7.87532 471.052L6.21542 482.825L5.9452 484.871L5.01875 492.899L4.86434 494.52L3.74488 506.254L3.20445 513.279L2.93423 517.216V517.139L2.77982 519.377H1.08132V519.725L0.926914 522.465L0.540892 529.606L0.193471 539.873V541.263L0.0390625 552.919V553.614L0.0776647 562.26H0.0390625L0.0776647 564.499H0.116267L0.34788 572.99L0.463687 576.387V576.966L1.00412 587.426L1.77616 598.851V599.005L2.66401 608.964L3.16584 613.596L4.0537 621.508V621.624L5.13456 629.691L5.868 634.902L7.25768 643.934L9.03338 654.124L9.2264 655.089L11.3881 666.166L13.5884 676.279L13.7815 677.167L16.3678 688.09L18.8384 697.585L19.2244 698.936L22.274 709.782L23.9338 715.34L25.6323 720.86L30.5348 733.675L32.1175 737.534L36.1708 747.03V747.068L38.7957 752.858H38.7571L39.7222 754.865L39.838 755.097L43.1964 762.276L44.9721 764.399L84.3464 842.329L85.6202 844.336L85.8518 844.683L171.124 947.431L266.047 1018.99L267.437 1019.8L268.132 1020.23L435.009 1088.93H434.662L436.978 1089.86L437.055 1090.05H437.364L438.676 1090.63V1090.51L484.845 1103.41L485.308 1103.48H485.424L499.938 1105.03L506.693 1105.68H506.886L514.761 1106.26L529.546 1107.11L534.873 1107.31L538.695 1107.42H541.011L552.476 1107.58H559.965L564.134 1107.5L572.819 1107.23L576.911 1107.07L583.705 1106.76L586.793 1106.57H587.449L598.991 1105.72L606.789 1105.03H607.136L617.057 1103.99L623.658 1103.18L630.182 1102.36H630.298H630.645V1102.33L638.829 1101.09L650.68 1099.12L653.729 1098.62L658.593 1097.73L663.92 1096.65L665.58 1096.3L677.354 1093.76L689.321 1090.86L701.172 1087.74L709.278 1085.42L717.076 1083.1L717.539 1082.95L718.35 1082.72L718.581 1082.64L727.923 1079.63L729.544 1079.09L741.549 1074.92L744.638 1073.8L751.818 1071.1L760.272 1067.74L766.101 1065.43L771.582 1063.11L772.354 1062.76L772.663 1062.65L774.477 1061.84L775.288 1061.49L775.867 1061.22L778.144 1060.22L782.236 1058.36L791.231 1054.23L804.355 1047.79L817.21 1041.07L818.252 1040.53L819.217 1039.99L824.892 1036.82L831.724 1032.93L837.399 1029.57L841.298 1027.21L841.645 1027.02L842.842 1026.29L843.266 1026.02L847.358 1023.47L852.917 1019.96L853.187 1019.8H853.264V1019.73L861.332 1014.4L863.494 1012.93L877.314 1003.28L880.363 1001.12L892.909 991.665H892.986L893.063 991.549L893.411 991.279L902.637 983.945L908.311 979.236L912.519 975.724V975.801L914.024 974.489L914.14 974.373L921.976 967.503L922.131 967.387L929.89 960.323L930.855 959.397L939.579 951.137L947.145 943.572L953.321 937.242L953.514 937.049L953.669 936.894H953.707V936.856L953.862 936.663L956.024 934.424L956.41 934.038L960.772 929.329L964.979 924.697L965.056 924.62L965.172 924.466L973.086 914.237L973.163 914.083L973.935 912.925L974.167 912.577L975.016 911.226L975.132 911.072L977.216 907.675L977.409 907.367L978.104 906.209L980.806 901.5L981.115 901.384L981.038 901.114L1025.39 839.897L1025.85 839.164L1026.16 838.7L1041.37 813.65L1041.57 813.843L1041.8 812.878L1042.03 812.492L1041.95 812.415L1090.01 683.42L1092.48 681.142L1092.6 680.564L1094.61 671.724L1094.72 671.184L1096.77 661.226L1097 659.991L1099.2 648.141L1099.28 647.716L1100.32 641.232V641L1100.43 640.537L1101.55 633.088L1102.71 624.712V624.635L1103.95 614.329L1104.1 612.939L1105.22 601.206L1105.99 591.363L1106.11 589.472L1106.77 577.776L1106.8 576.31L1106.88 576.619L1107 571.755V571.485L1107.19 563.071L1107.31 554.54L1107.23 544.35H1107.96ZM953.63 171.762L954.634 172.804L961.544 180.176L969.264 188.784L971.657 191.486L974.63 194.96L976.791 197.507L983.971 206.192L985.361 207.89L990.341 214.181L990.418 214.297L991.267 215.417L998.216 224.564L999.065 225.722L1004.97 233.867L1009.53 240.428L1012.27 244.481L1012.61 245.06L1017.79 252.78V252.818L1023.92 262.506L1024.62 263.587L1029.87 272.272L1035.62 282.269L1036.39 283.581L1040.21 290.567L1041.18 292.343L1046.47 302.533L1047.12 303.845L1051.6 312.877L1056.51 323.337L1058.44 327.583L1059.94 330.98L1061.18 333.874L1065.65 344.566L1066.7 347.075L1068.32 351.089L1069.98 355.374L1073.88 365.911L1074.49 367.571L1077.58 376.487L1081.06 387.14L1081.33 387.989L1084.34 397.87L1087.39 408.716L1087.58 409.488L1090.2 419.562L1092.06 427.321L1093.33 432.917L1093.41 433.303L1093.64 434.346L1095.18 441.332V441.448L1095.92 445.037L1071.1 431.065H1070.87H1070.63L1061.64 431.759H1061.56V431.219H1061.48L1053.42 382.045L1053.38 381.813L1052.68 378.494L1007.17 250.001L1007.33 249.885L1006.98 249.46C1006.98 249.46 1006.98 249.422 1006.98 249.383V249.306V249.267L1006.79 248.92L1004.93 245.523L954.865 173.422L948.998 166.976L953.63 171.723V171.762ZM653.845 1019.03L582.315 1027.6L798.372 961.636L803.352 960.13L814.006 999.886L653.845 1019.07V1019.03ZM814.353 1001.16L823.425 1035.13L584.014 1028.72L814.315 1001.16H814.353ZM751.856 974.45L577.143 1027.79L646.897 950.635L688.703 897.447L718.736 859.235L718.813 859.428L719.199 858.733L781.657 878.997L803.043 958.818L751.895 974.45H751.856ZM410.844 994.946L358.306 975.685V975.608H358.152L306.657 825.268L306.078 822.721L303.028 808.825L331.439 844.065L331.864 844.567L334.103 847.192L372.435 888.685L372.628 888.801L451.183 944.305L444.968 1002.28L410.805 994.984L410.844 994.946ZM444.853 1003.55L436.013 1085.96L358.268 977.036L410.458 996.181L444.814 1003.55H444.853ZM481.602 20.7658L495.074 69.1294L473.302 61.5641L481.641 20.7658H481.602ZM472.029 61.1396L469.133 60.136L300.48 69.1294L478.282 19.8781L480.56 19.2991L472.029 61.1396ZM473.109 62.8765L495.499 70.6347L515.379 142.041L516.421 141.771L496.734 71.0979L618.061 113.131L617.907 113.209H618.061L507.273 191.254L462.61 222.712L461.799 222.248L473.109 62.9151V62.8765ZM715.609 139.533L717.462 140.15L723.754 142.389L724.371 142.62L831.686 191.601L833.616 192.682L843.189 210.322L880.981 305.157L881.367 306.393L760.079 364.367L757.569 360.97L757.338 360.662H757.299L674.806 210.283L706.421 136.445L707.811 136.908L710.668 137.873L715.609 139.533ZM1052.22 382.315L1060.02 429.791L970.538 299.329C970.731 299.02 971.04 298.557 971.426 297.94C973.974 294.041 980.459 284.16 987.214 274.356C990.611 269.454 994.047 264.591 997.058 260.461C998.756 258.145 1000.34 256.099 1001.73 254.439L1006.13 250.85L1051.45 378.841L1052.1 382.084V382.277L1052.22 382.315ZM949.307 732.98V734.176L949.577 740.507L950.117 762.006H949.963L950.04 762.353L886.192 788.754L808.486 699.129L850.755 623.554L910.203 478.772L933.094 577.931L947.492 698.048L947.917 704.687V705.459H947.956L949.268 732.941L949.307 732.98ZM718.967 856.417L602.427 571.253L548.654 439.672L909.469 477.19L861.68 593.486L849.559 622.975L807.559 698.087L794.357 682.841L793.547 683.536L807.019 699.052L764.672 774.782L719.006 856.378L718.967 856.417ZM600.96 784.354L588.993 875.137L503.451 886.871L547.998 441.641L717.964 857.459L590.113 874.983L602.041 784.508L600.96 784.354ZM569.345 1024.32L452.419 942.8L459.676 875.137L462.185 875.948L502.023 888.029V888.299L502.331 888.26L546.956 988.577L561.393 1010L569.615 1022.16L569.345 1024.28V1024.32ZM570.542 1023.55L572.587 1026.6L570.349 1025.01L570.542 1023.55ZM569.152 1025.79V1026.06L539.891 1005.41L569.152 1025.79ZM302.989 806.664L458.634 874.79L451.415 942.105L373.284 887.643L335.068 846.304L332.829 843.679L332.404 843.216L302.951 806.664H302.989ZM217.37 598.774L193.513 606.185L154.95 496.257L174.251 470.203L174.791 469.431L176.258 467.386L274.462 401.383L298.28 403.776L326.421 555.66L210.035 653.39L193.822 607.15L217.64 599.739L217.331 598.697L217.37 598.774ZM327.077 405.629L299.515 402.849L294.883 377.915L302.488 380.115L327.077 405.629ZM304.572 380.733L473.843 429.945L473.92 430.833L327.656 554.695L299.708 403.93L329.895 406.979L304.572 380.733ZM296.041 376.911L297.817 375.29L300.673 378.262L296.041 376.911ZM295.501 375.715L296.041 373.438L296.929 374.364L295.501 375.676V375.715ZM298.087 402.734L275.852 400.495L284.113 394.937L293.686 378.957L298.087 402.695V402.734ZM291.833 379.575L283.032 394.242L273.999 400.302L139.818 386.754L139.741 385.249L139.548 380.269V379.652L143.215 297.592L151.205 314.035L175.756 338.506L176.451 338.969L176.992 339.317H177.03L214.976 356.107L293.069 377.413L291.795 379.498L291.833 379.575ZM141.864 298.904L138.235 379.652V380.308L138.428 385.326L138.467 386.638L103.261 383.087L141.825 298.904H141.864ZM138.544 387.719L138.737 391.27L138.891 393.933L139.084 397.368L139.316 400.649L139.509 403.544L139.818 407.25L140.011 409.72L140.358 413.734L140.551 415.934L140.976 420.103L141.169 422.071L141.632 426.356L141.825 428.131L142.366 432.609L142.559 434.075L143.176 438.823L143.292 439.788L144.025 445.037L153.02 494.404L116.772 493.478H116.656L114.495 493.208L62.1115 472.712L102.682 384.091L138.389 387.68L138.544 387.719ZM145.454 444.844L144.72 439.595L144.604 438.63L143.987 433.882L143.794 432.416L143.253 427.938L143.06 426.163L142.597 421.878L142.404 419.91L141.979 415.741L141.786 413.58L141.439 409.604L141.246 407.134L140.937 403.428L140.744 400.534L140.513 397.253L140.32 393.817L140.165 391.154L140.011 387.796L272.764 401.19L175.37 466.614L173.904 468.621L173.363 469.393L154.718 494.559L145.647 444.806L145.454 444.844ZM327.849 556.277L475.271 431.451L475.194 430.37L479.556 431.644L546.608 439.479L541.088 449.708L539.853 451.985L463.652 581.829L461.876 584.608L458.788 589.472L416.21 653.12L410.458 661.342V661.419L301.252 803.306L327.888 556.316L327.849 556.277ZM411.423 662.152V662.075L417.252 653.815L459.83 590.128L462.918 585.265L464.694 582.485L540.934 452.603L542.169 450.325L546.608 442.104L502.138 886.755L462.532 874.751L459.869 873.902H459.792V873.748H459.251L301.87 804.772L301.716 804.695L411.384 662.152H411.423ZM548.114 987.998L503.682 888.145L588.839 876.449L569.885 1020.27L548.114 987.998ZM968.067 298.827L944.134 301.066L957.375 290.374L968.067 298.827ZM958.378 289.525L997.212 258.106C996.401 259.187 995.552 260.306 994.703 261.503C984.898 274.896 971.966 294.697 969.573 298.364L958.378 289.525ZM942.204 301.259L882.834 306.817L882.641 306.122L882.216 304.694L844.347 209.743L836.164 194.651L851.913 207.079L956.487 289.68L942.204 301.259ZM903.988 432.802L886.346 432.956V434.037L904.181 433.882L908.466 457.89L909.546 473.6L763.476 368.96L763.089 368.42L761.661 366.49L881.83 308.014L904.026 432.84L903.988 432.802ZM762.009 369.153L762.356 369.616L909.276 475.877L667.819 450.75L548.577 438.36L599.918 305.543L759.384 365.602L762.047 369.192L762.009 369.153ZM807.907 700.133L885.15 789.217L728.772 853.947L723.87 855.606L720.28 856.803L807.907 700.171V700.133ZM910.975 475.723L909.739 457.697L905.493 433.844L1057.97 432.377L1025.55 437.395H1025.51L979.108 450.981L978.258 451.29L973.974 452.718L973.008 453.066L968.724 454.532L968.453 454.61L911.013 475.684L910.975 475.723ZM905.3 432.802L883.142 308.129L940.351 302.764L904.258 331.945L904.914 332.794L942.242 302.61L969.38 300.062L1012.92 363.518L1059.44 431.335L905.262 432.802H905.3ZM1004.82 249.306C1004.47 249.576 1004.04 249.923 1003.62 250.387C1002.65 251.351 1001.46 252.741 1000.15 254.401L957.568 288.869L834.735 191.833L823.734 78.8947C831.415 86.1898 872.604 125.251 913.908 164.235C936.8 185.85 959.729 207.427 976.946 223.561C985.554 231.628 992.773 238.305 997.868 242.976C1000.42 245.292 1002.42 247.144 1003.81 248.341C1004.24 248.688 1004.59 249.036 1004.89 249.267L1004.82 249.306ZM674.111 209.086L622.114 114.328L698.817 134.013L700.168 134.438L704.839 135.943L705.379 136.136L674.111 209.125V209.086ZM705.263 134.669L700.593 133.164L699.164 132.701L621.303 112.707L747.147 38.6754L705.92 134.901L705.263 134.669ZM673.339 210.901L633.154 304.656L634.119 305.08L673.957 212.097L756.257 361.511L756.45 361.742L758.419 364.406L600.111 304.192L616.671 146.712L620.068 114.328L673.301 210.939L673.339 210.901ZM598.876 303.845L463.806 223.406L618.794 114.328L598.876 303.845ZM462.648 224.256L598.605 305.235L547.612 437.163L547.226 436.237L547.033 438.205L479.826 430.331L475.117 428.942L461.799 224.835L462.687 224.217L462.648 224.256ZM473.766 428.556L302.758 378.841L298.589 374.518L460.525 225.722L473.766 428.556ZM460.409 224.217L297.74 373.669L296.35 372.241L348.386 156.207L460.448 222.943V223.677V224.217H460.409ZM295.076 370.89L191.043 262.97L346.417 157.21L295.076 370.89ZM294.767 372.125L293.763 376.255L293.339 376.139V376.217L215.401 354.949L177.687 338.275L177.185 337.966L176.567 337.58L152.286 313.34L143.524 295.353L190.116 263.664L294.729 372.202L294.767 372.125ZM143.408 293.81L143.485 292.266L143.099 293.115L129.009 209.279L130.167 204.686L132.792 204.107L189.229 262.661L143.408 293.848V293.81ZM142.018 294.697H141.979L142.095 295.083V295.392L101.949 382.933L85.35 381.273L128.198 212.406L142.057 294.697H142.018ZM101.486 383.975L63.81 466.305L85.1184 382.354L101.524 384.014L101.486 383.975ZM61.3394 470.589L34.202 377.182L83.7673 382.199L61.3394 470.589ZM61.5324 475.26L66.8981 645.478L28.1801 657.482V656.131L28.2573 655.166L38.7957 567.201L61.4938 475.221L61.5324 475.26ZM62.5361 474.218L114.34 494.482L116.656 494.752H116.849L153.444 495.678L153.522 495.948L153.599 496.257L153.908 497.608L154.023 497.454L192.278 606.494L68.0176 645.092L62.5361 474.179V474.218ZM192.626 607.574L208.916 654.008L71.9936 664.121L68.558 661.149L68.0948 646.25L192.664 607.574H192.626ZM209.456 655.243L297.083 800.372L73.3061 665.279L209.456 655.243ZM210.614 654.703L326.653 557.281L299.747 802.302L210.614 654.703ZM301.059 806.355L301.175 806.509L304.765 822.991L305.344 825.538V825.616L356.647 975.299L338.89 971.864L206.561 916.591L301.059 806.432V806.355ZM452.187 945L568.92 1027.48L568.766 1028.76L446.049 1002.47L452.187 945ZM569.924 1028.18L571.198 1029.07L569.847 1028.91L569.962 1028.14L569.924 1028.18ZM570.117 1026.75V1026.48L574.054 1029.22L573.746 1029.3L573.089 1028.76V1028.84L570.078 1026.71L570.117 1026.75ZM570.773 1021.58L589.92 876.295L717.384 858.81L645.893 949.786L575.174 1028.06L570.812 1021.58H570.773ZM782.854 879.421L872.99 908.717L922.478 922.381L803.969 958.586L782.777 879.46L782.854 879.421ZM873.415 907.444L782.468 877.916L776.986 857.498L775.944 857.768L781.233 877.53L744.676 865.642L720.974 857.922L724.294 856.803L729.235 855.143L886.038 790.26L936.259 848.157L924.37 921.493L873.415 907.444ZM887.08 789.835L949.924 763.82L936.452 846.806L887.08 789.835ZM941.625 823.3L950.889 766.213L979.378 896.212L937.61 848.041L941.625 823.261V823.3ZM950.851 740.468L950.619 734.176V732.941H950.581L949.268 705.459L949.229 704.687L948.805 697.971L934.406 577.738L911.361 477.923L927.496 486.685L929.388 487.765L932.206 489.387L937.958 492.706L938.189 492.86L969.303 512.584L969.843 512.931L974.861 516.444L975.904 517.177L980.382 520.42L981.694 521.385L985.94 524.588L987.175 525.553L991.615 528.988L992.31 529.529L1064.88 613.789L989.414 717.27L951.43 761.118L950.928 740.545L950.851 740.468ZM993.197 528.487L992.387 527.869L987.948 524.434L986.712 523.469L982.466 520.265L981.154 519.3L976.676 516.058L975.633 515.325L970.615 511.812L970.075 511.465L938.923 491.703L938.653 491.548L932.901 488.229L930.044 486.608L928.153 485.527L912.017 476.765L927.844 470.975L968.917 455.883L969.187 455.806L973.472 454.339L974.437 453.992L978.722 452.525L979.571 452.255L1025.89 438.669L1060.56 433.303L1065.89 604.216L1065.38 610.431L1065.23 612.052L993.275 528.487H993.197ZM816.978 67.2381L827.053 72.8348L828.636 73.7226L832.998 76.2314L836.974 78.5859L849.674 86.4214L856.391 90.7058L856.468 90.783L865.617 96.9201L866.698 97.6534L875.306 103.675L875.615 103.906L884.532 110.468L885.266 111.008L892.6 116.605L895.65 118.998L902.521 124.556L904.065 125.83L909.315 130.115L909.932 130.694L910.087 130.809L912.133 132.546L923.327 143.238L939.579 158.754L939.695 158.909L953.746 174.232L1003.74 246.218L1004.2 247.067C1002.31 245.407 999.412 242.783 995.707 239.347C975.904 221.09 932.746 180.408 894.607 144.319C875.538 126.255 857.665 109.349 844.617 96.9587C832.651 85.6108 824.66 78.0456 823.425 76.849L823.27 76.6946L823.193 76.6174L807.598 62.3361L816.94 67.1995L816.978 67.2381ZM750.351 36.7841L754.095 38.2122L761.43 41.1457L766.988 43.4616L767.645 43.7318H767.722L775.442 47.0126H775.519L786.096 51.7602L786.675 52.0304L796.48 56.7008L798.526 57.7043H798.642L799.221 58.0517L804.896 61.7957L822.228 77.5052L833.268 190.675L831.995 189.633L832.458 190.444L832.303 190.366L724.873 141.308L724.217 141.076L717.925 138.838L716.072 138.22L711.131 136.56L708.274 135.595L707 135.171L748.768 37.7104L750.428 36.7455L750.351 36.7841ZM649.252 9.10918L653.073 9.80394L668.167 12.7374L678.821 15.0919L679.438 15.2463L689.9 17.7552H689.977H690.093L700.863 20.6114L701.635 20.8044L711.517 23.6221H711.594L719.662 26.131L723.059 27.1731L732.864 30.4154H732.941L741.472 33.4646L748.189 35.8963L747.919 36.5525L701.365 63.9572L620.3 111.665V111.51L619.566 112.051L618.987 111.549V111.973L496.194 69.4382L482.104 18.9131L649.136 9.03198L649.252 9.10918ZM300.21 67.2767L303.337 65.3854L305.499 64.073L308.664 62.2203L310.826 60.9466L314.107 59.0938L316.153 57.9359L319.781 55.9674L321.557 55.0024L326.961 52.1462L333.64 48.7881L335.184 48.0162L341.823 44.8125L342.595 44.4651L348.733 41.6861L350.239 41.0299L356.917 38.135H357.033L358.577 37.4403L362.514 35.8191L364.56 35.0086L368.304 33.5418L370.273 32.7699L374.558 31.1873L375.986 30.6856L381.661 28.6785L382.973 28.2153L387.413 26.71L389.42 26.0538L393.241 24.8186L393.859 24.6257L395.365 24.1625L399.341 22.9659L401.194 22.4256L406.984 20.7658L418.912 17.678L425.513 16.0183L426.015 15.9025L436.862 13.4322L437.325 13.355L441.34 12.5058L450.257 10.7303L462.108 8.6074L473.843 6.79328L475.233 6.60029L485.578 5.21076L493.105 4.3616L501.482 3.51244L508.662 2.81767H508.971L520.629 1.96851H521.208L532.055 1.38954H532.287H532.364L543.945 1.04215H545.411L555.448 0.926357H555.641L567.067 1.08075H567.839L575.212 1.31234L578.571 1.46673L589.997 2.0843L591.696 2.2001L596.83 2.54748L601.385 2.93346L612.657 4.01421L614.046 4.16861L623.967 5.32655L635.123 6.87048L636.629 7.10207L643.847 8.22142L482.104 17.7938V17.678L481.563 17.8324H481.525L480.984 17.9868L478.244 18.6815L298.936 68.3574L300.519 67.3925L300.21 67.2767ZM468.94 61.4483L471.836 62.4519L460.564 221.476L348.617 154.779L337.345 136.869L295.655 70.6733L468.94 61.4483ZM282.607 78.7017L287.78 75.1893L289.17 74.3015L292.914 71.8698L294.265 70.9821L332.327 131.427L347.228 155.049L190.116 261.966L133.989 203.76L343.869 156.67L343.56 155.396L132.908 202.679L129.858 199.514L129.472 199.861C165.797 163.541 227.445 117.146 282.53 78.6631L282.607 78.7017ZM129.125 200.286L131.711 202.988L129.086 203.567L128.469 206.076L127.735 201.714C128.198 201.251 128.7 200.749 129.164 200.286H129.125ZM69.7933 286.9L70.604 285.472L73.1517 280.995L74.6572 278.332L79.0192 270.882L81.6828 266.405L81.9144 265.98L85.0026 260.962L85.157 260.731L94.7689 245.909L103.532 233.21L103.686 232.979L113.028 220.241L113.105 220.126L116.386 215.88L120.169 211.055H120.208L121.404 209.55L125.072 204.879L126.577 202.988L127.619 209.164L83.9989 381.08L34.1634 376.062L69.7547 286.823L69.7933 286.9ZM2.3938 519.3V518.914L2.81842 513.163L3.35885 506.177L4.47832 494.482L4.63273 492.86L5.55918 484.832L5.8294 482.825L7.48929 471.014L7.72091 469.431L8.91758 461.943L9.3422 459.357V459.28L10.9635 450.441L11.7741 446.157L13.8973 435.851L16.638 423.924L17.1785 421.608L19.1086 413.966L19.5718 412.19L22.8916 400.186L23.239 398.912L25.864 390.189L26.443 388.375L27.9871 383.628L30.7664 375.175L33.4686 367.378L34.5881 364.328L39.2589 352.016L39.645 351.012L44.1614 339.896L47.404 332.408L52.1135 321.793L52.2293 321.562L54.5068 316.698L54.8928 315.849L55.3561 314.884L61.3394 302.803L64.0802 297.554L32.7738 375.985H32.6193L32.5807 376.487V377.027H32.7352L60.3358 471.979L60.1813 471.902L60.5674 472.867L18.1435 511.349L16.6766 512.507L16.2906 512.777L15.2097 513.588L14.7079 513.935L13.6657 514.668L13.1638 515.016L12.083 515.749L11.7741 515.942L10.7705 516.598L10.4617 516.83L8.26134 518.181L8.02973 518.297L7.14187 518.798L7.02607 518.876L6.17682 519.3L5.71359 519.532L5.52058 519.609L2.471 520.497L2.3552 520.342L2.23939 520.034V519.262L2.3938 519.3ZM33.3528 737.071L31.7701 733.25L26.9062 720.435L25.2077 714.916L23.5478 709.358L20.4982 698.55L20.1122 697.199L17.6417 687.704L15.0553 676.742L14.8623 675.893L12.662 665.78L10.5003 654.703L10.3073 653.776L8.53155 643.625L7.14187 634.632L6.40843 629.421L5.32757 621.354V621.199L4.43972 613.287L3.93789 608.694L3.05004 598.812V598.658L2.27799 587.233L1.73756 576.773H1.77616V576.194L1.66036 572.797L1.42874 564.306V562.106H1.39014V553.498H1.35154V552.842L1.50595 541.185H1.46735V539.834L1.81477 529.606H1.85337L2.23939 522.465V522.118L6.09961 520.999L6.36983 520.883L6.87166 520.651L7.75951 520.227L7.87532 520.149L8.76317 519.648L8.99478 519.493L11.2337 518.104L11.5425 517.911L12.5462 517.255L12.855 517.023L13.9359 516.251L14.4377 515.904L15.48 515.17L15.9432 514.823L17.024 514.012L17.4101 513.703L18.9156 512.546L60.1427 475.144L37.4446 567.162L26.8676 655.243V656.285L26.7904 658.292L33.7002 737.264L34.2406 739.464L33.2756 737.264L33.3528 737.071ZM37.4446 746.605L35.0513 736.878L28.1801 658.061L28.3345 658.563L66.9367 646.597L67.4 661.921L70.0249 664.159L31.2683 660.956V662.268L71.2988 665.51H71.5304L299.245 803.962L299.322 804.078L134.877 815.426L41.4593 754.595L37.406 746.605H37.4446ZM42.6559 756.949L134.568 816.777L300.171 805.352V805.699L205.519 916.09L156.301 895.517L46.0529 763.665L42.6559 756.911V756.949ZM268.788 1019.07L268.132 1018.68L266.819 1017.91L172.051 946.505L86.9327 843.95L86.7397 843.641L85.5044 841.672L48.6779 768.838L155.529 896.636L204.631 917.17L177.841 948.396L178.652 949.091L205.673 917.595L338.503 973.099L356.955 976.689L435.82 1087.47V1087.93L268.749 1019.11L268.788 1019.07ZM437.943 1088.66L436.939 1087.27L445.895 1003.78L568.611 1030.07L569.152 1030.19L569.692 1030.26L570.503 1030.34L486.08 1056.82L485.462 1056.97L438.02 1088.7L437.943 1088.66ZM587.527 1105.3H586.909V1105.34L583.821 1105.53L577.065 1105.84L572.973 1105.99L564.288 1106.22L560.119 1106.3H556.297H552.939H552.63L541.165 1106.15H538.849L535.028 1105.99L529.7 1105.8H529.662L514.877 1104.95L507.041 1104.37H506.886H506.848L500.092 1103.72L485.578 1102.17H485.462L485.038 1102.09L440.298 1089.74L485.578 1058.21L486.311 1058.05H486.389L572.858 1030.92L568.804 1067.74V1069.29L572.317 1092.02L572.51 1092.48L572.742 1092.99V1093.1L582.161 1102.98L582.663 1103.21L582.971 1103.37H583.049L583.165 1103.45L589.457 1105.14L587.527 1105.26V1105.3ZM744.56 1072.57L741.472 1073.69L729.467 1077.82L727.846 1078.36L718.543 1081.37L718.311 1081.44L717.5 1081.68L717.114 1081.79L709.239 1084.11L701.133 1086.42L689.282 1089.51L677.315 1092.41L665.58 1094.95L663.959 1095.3L658.593 1096.38L653.729 1097.27L650.68 1097.77L638.829 1099.74L630.645 1100.98L630.298 1101.01H630.182L623.658 1101.86L617.096 1102.67L607.175 1103.72H606.828L599.107 1104.41H598.76L591.425 1104.18L583.473 1102.13L583.203 1102.02L582.933 1101.86L573.9 1092.29L573.707 1091.9L573.553 1091.6L570.078 1069.13V1067.82L574.093 1031.27L583.975 1039.18L584.091 1039.3L584.902 1039.91H584.94L649.831 1073.15L650.448 1073.3L652.842 1073.96L653.768 1074.19L655.968 1074.73L656.972 1074.96L659.249 1075.46L659.713 1075.58H659.79H660.137L748.652 1070.95L744.445 1072.53L744.56 1072.57ZM817.982 1039.37L816.94 1039.91L804.124 1046.59L790.96 1053.04L782.005 1057.13L777.913 1058.98L775.635 1059.98L775.056 1060.25L774.284 1060.6L772.47 1061.37L752.898 1068.51L659.983 1074.3L659.597 1074.23L657.319 1073.69L656.354 1073.45L654.154 1072.91L653.228 1072.68L650.834 1072.03L650.332 1071.87L585.674 1038.79L584.94 1038.21L584.824 1038.1L575.791 1030.84H576.062L575.791 1030.69H576.293L577.567 1031.61L576.988 1030.73L823.27 1036.4L817.982 1039.33V1039.37ZM880.016 1000.08L877.005 1002.2L863.185 1011.85L861.023 1013.32L852.956 1018.61H852.878L852.608 1018.84L847.049 1022.35L842.958 1024.9L842.533 1025.17L841.375 1025.9L841.027 1026.09L824.506 1034.86L815.434 1001.01L890.824 991.974L880.054 1000.08H880.016ZM913.484 973.64L908.002 978.233L902.328 982.942L893.102 990.275L892.87 990.43L815.087 999.732L804.394 959.783L924.022 923.269L916.302 960.207L913.484 973.678V973.64ZM946.798 942.607L939.27 950.133L930.546 958.393L929.581 959.281L921.783 966.383L921.667 966.499L915.144 972.173L918.078 958.085L925.412 923.153L932.013 926.048L933.132 926.55L933.364 926.627L948.419 933.498L948.573 933.575L949.037 933.806L949.268 933.922L949.809 934.192L952.858 936.354L946.836 942.529L946.798 942.607ZM977.679 905.514L976.985 906.672L976.791 906.981L974.707 910.339L974.591 910.493L973.742 911.844L973.51 912.191L972.738 913.311L972.661 913.426L964.825 923.578L964.709 923.694L964.632 923.771L960.424 928.364L956.062 933.073L955.715 933.459L953.746 935.505L950.465 933.189H950.388L949.809 932.841L949.577 932.726L949.114 932.494L948.959 932.417L933.904 925.546L933.673 925.431L932.553 924.929L926.802 922.381L927.265 922.227L927.033 922.15L979.609 902.156L977.679 905.475V905.514ZM925.721 921.3L937.379 849.469L979.841 898.45L980.304 900.573L925.721 921.3ZM1025.78 838.006L1025.47 838.469L1025.01 839.164L981.694 898.952L981.115 898.296L951.584 763.472L991.344 767.525L1021.22 794.698L1041.06 812.724L1025.74 837.967L1025.78 838.006ZM1041.57 811.411L991.923 766.29L962.393 763.279L952.086 762.237L990.379 718.042L1065.04 615.603L1067.43 707.273L1067.35 708.007L1066.81 713.642L1066.73 714.376L1054.19 762.546L1041.49 811.45L1041.57 811.411ZM1089.55 682.957L1045.77 800.45L1068.12 714.569L1068.2 713.758L1068.74 708.123L1068.82 707.351L1066.43 615.294L1068.36 617.224L1085.42 644.436L1089.63 664.854V682.918L1089.55 682.957ZM1090.36 662.229L1086.58 643.972L1069.28 616.413L1066.31 613.403L1066.54 610.546L1067.08 604.255L1061.87 436.237L1064.77 443.571L1066.16 447.237L1066.85 449.129L1085.34 510.77L1086.81 517.486L1087.23 519.416L1088.24 524.434L1092.83 552.958L1093.02 554.579L1093.6 559.404L1094.1 564.074L1094.3 566.004L1090.4 662.268L1090.36 662.229ZM1106.19 577.738L1105.53 589.433L1105.41 591.324L1104.68 601.09L1103.56 612.824L1103.41 614.213L1102.17 624.48L1101.01 632.895L1099.89 640.344L1099.82 640.807V641.039L1098.74 647.523L1098.66 647.948L1096.46 659.798L1096.23 660.994L1094.18 670.953L1094.07 671.493L1092.06 680.332V680.525L1090.86 681.567L1095.53 565.965L1095.34 563.958L1094.84 559.249L1094.26 554.386L1094.07 552.765L1089.47 524.202L1088.47 519.146L1088.04 517.177L1086.58 510.461V510.384L1068.05 448.627L1067.31 446.697L1065.92 443.03L1063.65 437.202L1078.43 457.775L1079.16 458.971L1079.74 459.936L1106.34 571.562L1106.11 577.699L1106.19 577.738ZM1106.57 563.032L1106.5 566.429L1081.02 459.473V459.396L1080.32 458.315L1079.59 457.118L1062.37 433.11L1070.87 432.454H1070.94L1096.42 446.774L1097.19 450.827L1099.12 461.519L1099.2 461.982L1099.47 463.603L1100.67 471.4L1101.48 477.151L1101.55 477.691L1101.67 478.502L1102.67 485.836V485.951L1103.91 497.261L1104.06 498.496L1104.95 508.416V508.57L1105.72 519.956L1105.88 522.156L1106.26 530.301L1106.3 531.381V531.459L1106.61 542.922V544.273L1106.69 554.425L1106.57 562.955V563.032Z" fill="url(#paint1_radial_150_2)"/>
<g filter="url(#filter0_f_150_2)">
<circle cx="8.5" cy="8.5" r="8.5" transform="matrix(1 0 0 -1 874 317)" fill="white"/>
</g>
<circle cx="4.98276" cy="4.98276" r="4.98276" transform="matrix(1 0 0 -1 877.518 313.483)" fill="white"/>
<g filter="url(#filter1_f_150_2)">
<circle cx="8.5" cy="8.5" r="8.5" transform="matrix(1 0 0 -1 829 202)" fill="white"/>
</g>
<circle cx="4.98276" cy="4.98276" r="4.98276" transform="matrix(1 0 0 -1 832.518 198.483)" fill="white"/>
<g filter="url(#filter2_f_150_2)">
<circle cx="8.5" cy="8.5" r="8.5" transform="matrix(1 0 0 -1 710 866)" fill="white"/>
</g>
<circle cx="4.98276" cy="4.98276" r="4.98276" transform="matrix(1 0 0 -1 713.518 862.483)" fill="white"/>
<g filter="url(#filter3_f_150_2)">
<circle cx="8.5" cy="8.5" r="8.5" transform="matrix(1 0 0 -1 465 440)" fill="white"/>
</g>
<circle cx="4.98276" cy="4.98276" r="4.98276" transform="matrix(1 0 0 -1 468.518 436.483)" fill="white"/>
<g filter="url(#filter4_f_150_2)">
<circle cx="8.5" cy="8.5" r="8.5" transform="matrix(1 0 0 -1 461 72)" fill="white"/>
</g>
<circle cx="4.98276" cy="4.98276" r="4.98276" transform="matrix(1 0 0 -1 464.518 68.4828)" fill="white"/>
<g filter="url(#filter5_f_150_2)">
<circle cx="8.5" cy="8.5" r="8.5" transform="matrix(1 0 0 -1 537 448)" fill="white"/>
</g>
<circle cx="4.98276" cy="4.98276" r="4.98276" transform="matrix(1 0 0 -1 540.518 444.483)" fill="white"/>
<g filter="url(#filter6_f_150_2)">
<circle cx="11.5" cy="11.5" r="11.5" transform="matrix(1 0 0 -1 285 389)" fill="white"/>
</g>
<circle cx="6.74138" cy="6.74138" r="6.74138" transform="matrix(1 0 0 -1 289.76 384.241)" fill="white"/>
<g filter="url(#filter7_f_150_2)">
<circle cx="11.5" cy="11.5" r="11.5" transform="matrix(1 0 0 -1 797 712)" fill="white"/>
</g>
<circle cx="6.74138" cy="6.74138" r="6.74138" transform="matrix(1 0 0 -1 801.76 707.241)" fill="white"/>
<g filter="url(#filter8_f_150_2)">
<circle cx="11.5" cy="11.5" r="11.5" transform="matrix(1 0 0 -1 493 899)" fill="white"/>
</g>
<circle cx="6.74138" cy="6.74138" r="6.74138" transform="matrix(1 0 0 -1 497.76 894.241)" fill="white"/>
<defs>
<filter id="filter0_f_150_2" x="868" y="294" width="29" height="29" filterUnits="userSpaceOnUse" color-interpolation-filters="sRGB">
<feFlood flood-opacity="0" result="BackgroundImageFix"/>
<feBlend mode="normal" in="SourceGraphic" in2="BackgroundImageFix" result="shape"/>
<feGaussianBlur stdDeviation="3" result="effect1_foregroundBlur_150_2"/>
</filter>
<filter id="filter1_f_150_2" x="823" y="179" width="29" height="29" filterUnits="userSpaceOnUse" color-interpolation-filters="sRGB">
<feFlood flood-opacity="0" result="BackgroundImageFix"/>
<feBlend mode="normal" in="SourceGraphic" in2="BackgroundImageFix" result="shape"/>
<feGaussianBlur stdDeviation="3" result="effect1_foregroundBlur_150_2"/>
</filter>
<filter id="filter2_f_150_2" x="704" y="843" width="29" height="29" filterUnits="userSpaceOnUse" color-interpolation-filters="sRGB">
<feFlood flood-opacity="0" result="BackgroundImageFix"/>
<feBlend mode="normal" in="SourceGraphic" in2="BackgroundImageFix" result="shape"/>
<feGaussianBlur stdDeviation="3" result="effect1_foregroundBlur_150_2"/>
</filter>
<filter id="filter3_f_150_2" x="459" y="417" width="29" height="29" filterUnits="userSpaceOnUse" color-interpolation-filters="sRGB">
<feFlood flood-opacity="0" result="BackgroundImageFix"/>
<feBlend mode="normal" in="SourceGraphic" in2="BackgroundImageFix" result="shape"/>
<feGaussianBlur stdDeviation="3" result="effect1_foregroundBlur_150_2"/>
</filter>
<filter id="filter4_f_150_2" x="455" y="49" width="29" height="29" filterUnits="userSpaceOnUse" color-interpolation-filters="sRGB">
<feFlood flood-opacity="0" result="BackgroundImageFix"/>
<feBlend mode="normal" in="SourceGraphic" in2="BackgroundImageFix" result="shape"/>
<feGaussianBlur stdDeviation="3" result="effect1_foregroundBlur_150_2"/>
</filter>
<filter id="filter5_f_150_2" x="531" y="425" width="29" height="29" filterUnits="userSpaceOnUse" color-interpolation-filters="sRGB">
<feFlood flood-opacity="0" result="BackgroundImageFix"/>
<feBlend mode="normal" in="SourceGraphic" in2="BackgroundImageFix" result="shape"/>
<feGaussianBlur stdDeviation="3" result="effect1_foregroundBlur_150_2"/>
</filter>
<filter id="filter6_f_150_2" x="279" y="360" width="35" height="35" filterUnits="userSpaceOnUse" color-interpolation-filters="sRGB">
<feFlood flood-opacity="0" result="BackgroundImageFix"/>
<feBlend mode="normal" in="SourceGraphic" in2="BackgroundImageFix" result="shape"/>
<feGaussianBlur stdDeviation="3" result="effect1_foregroundBlur_150_2"/>
</filter>
<filter id="filter7_f_150_2" x="791" y="683" width="35" height="35" filterUnits="userSpaceOnUse" color-interpolation-filters="sRGB">
<feFlood flood-opacity="0" result="BackgroundImageFix"/>
<feBlend mode="normal" in="SourceGraphic" in2="BackgroundImageFix" result="shape"/>
<feGaussianBlur stdDeviation="3" result="effect1_foregroundBlur_150_2"/>
</filter>
<filter id="filter8_f_150_2" x="487" y="870" width="35" height="35" filterUnits="userSpaceOnUse" color-interpolation-filters="sRGB">
<feFlood flood-opacity="0" result="BackgroundImageFix"/>
<feBlend mode="normal" in="SourceGraphic" in2="BackgroundImageFix" result="shape"/>
<feGaussianBlur stdDeviation="3" result="effect1_foregroundBlur_150_2"/>
</filter>
<linearGradient id="paint0_linear_150_2" x1="554" y1="0.652588" x2="554" y2="1108.65" gradientUnits="userSpaceOnUse">
<stop stop-color="#3875F2"/>
<stop offset="1" stop-color="#CEDEFF"/>
</linearGradient>
<radialGradient id="paint1_radial_150_2" cx="0" cy="0" r="1" gradientUnits="userSpaceOnUse" gradientTransform="translate(554.02 553.653) scale(554.019 553.961)">
<stop offset="0.509615" stop-color="#F5F5F5"/>
<stop offset="1" stop-color="#B6FBFF"/>
</radialGradient>
</defs>
</svg>
